<svg width="850" height="551" viewBox="0 0 850 551" fill="none" xmlns="http://www.w3.org/2000/svg">
<path d="M101.46 244.001H96.8701V182.891H132.51V191.261H106.14V207.101H129.81V215.471H106.14V235.721H132.51V244.091H101.46V244.001Z" fill="black"/>
<path d="M136.171 197.741H145.531L158.311 233.111L171.001 197.741H180.361L162.721 244.001H153.811L136.171 197.741Z" fill="black"/>
<path d="M223.17 223.391H190.23V225.011C190.23 230.141 194.28 236.351 202.11 236.351C207.87 236.351 213.54 233.831 213.54 228.881H222.72C222.72 237.071 214.17 244.721 203.37 244.721H200.76C188.25 244.721 180.96 234.281 180.96 225.011V216.731C180.96 207.461 188.79 196.841 201.3 196.841H202.83C208.23 196.841 213.36 199.001 217.05 202.511C223.26 208.451 223.17 214.121 223.17 222.131V223.391ZM190.32 215.651H214.17C214.17 209.351 208.77 205.301 202.74 205.301C195.45 205.301 190.86 210.791 190.32 215.651Z" fill="black"/>
<path d="M261.702 202.061L255.042 208.991C253.062 206.471 250.362 205.301 247.932 205.301C243.522 205.301 239.382 208.901 239.382 215.021V244.001H230.112V197.741H238.482L239.382 202.781V202.871C242.712 199.451 247.482 196.931 252.342 196.841C256.122 196.841 259.722 198.461 261.702 202.061Z" fill="black"/>
<path d="M265.16 197.741H274.43V222.761C274.43 227.891 278.39 234.191 286.22 234.191C293.24 234.191 298.1 227.891 298.1 222.761V197.741H307.37V245.891C307.37 254.441 300.89 262.631 288.38 262.631C276.14 262.631 269.39 254.891 269.03 246.521H278.12C278.48 251.651 283.43 254.171 288.38 254.171C293.51 254.171 298.1 251.471 298.1 245.801V236.801C294.77 240.401 290.18 242.651 284.87 242.651C272.36 242.651 265.16 232.031 265.16 222.761V197.741Z" fill="black"/>
<path d="M355.063 244.901C342.553 244.901 335.353 234.281 335.353 225.011V216.731C335.353 207.461 342.553 196.841 355.063 196.841C360.373 196.841 364.963 199.091 368.293 202.601V179.561H377.563V244.001H369.193L368.293 239.051C364.693 242.561 359.923 244.901 355.063 244.901ZM344.623 216.731V225.011C344.623 230.141 348.583 236.351 356.413 236.351C363.433 236.351 368.293 230.681 368.293 225.551V216.731C368.293 211.601 363.433 205.301 356.413 205.301C348.583 205.301 344.623 211.601 344.623 216.731Z" fill="black"/>
<path d="M426.637 223.391H393.697V225.011C393.697 230.141 397.747 236.351 405.577 236.351C411.337 236.351 417.007 233.831 417.007 228.881H426.187C426.187 237.071 417.637 244.721 406.837 244.721H404.227C391.717 244.721 384.427 234.281 384.427 225.011V216.731C384.427 207.461 392.257 196.841 404.767 196.841H406.297C411.697 196.841 416.827 199.001 420.517 202.511C426.727 208.451 426.637 214.121 426.637 222.131V223.391ZM393.787 215.651H417.637C417.637 209.351 412.237 205.301 406.207 205.301C398.917 205.301 394.327 210.791 393.787 215.651Z" fill="black"/>
<path d="M463.189 223.661H449.059C443.839 223.661 441.049 226.721 440.959 229.871C440.869 233.291 443.839 236.801 450.499 236.801C456.349 236.801 463.189 232.391 463.189 224.651V223.661ZM452.929 196.841C465.439 196.841 472.189 205.031 472.189 213.581V244.001H464.089L463.189 239.141V239.051C459.769 242.381 454.909 244.901 448.339 244.901C439.969 244.901 431.779 240.131 431.779 230.861C431.779 223.751 437.719 216.461 449.509 216.461H463.189V213.671C463.189 208.001 458.059 205.301 452.929 205.301C447.979 205.301 443.029 207.821 442.579 212.951H433.579C433.939 204.581 440.689 196.841 452.929 196.841Z" fill="black"/>
<path d="M496.479 244.901C483.969 244.901 476.769 234.281 476.769 225.011V216.731C476.769 207.461 483.969 196.841 496.479 196.841C501.789 196.841 506.379 199.091 509.709 202.601V179.561H518.979V244.001H510.609L509.709 239.051C506.109 242.561 501.339 244.901 496.479 244.901ZM486.039 216.731V225.011C486.039 230.141 489.999 236.351 497.829 236.351C504.849 236.351 509.709 230.681 509.709 225.551V216.731C509.709 211.601 504.849 205.301 497.829 205.301C489.999 205.301 486.039 211.601 486.039 216.731Z" fill="black"/>
<path d="M526.743 244.001V179.561H536.013V244.001H526.743Z" fill="black"/>
<path d="M543.884 197.741H553.154V244.001H543.884V197.741ZM543.794 179.651H553.154V189.191H543.794V179.651Z" fill="black"/>
<path d="M603.143 244.001H593.873V216.731C593.873 211.601 589.913 205.301 582.083 205.301C575.063 205.301 570.203 211.061 570.203 216.191V244.001H560.933V197.741H569.303L570.203 202.601C574.073 198.821 579.473 196.841 584.783 196.841C594.143 196.841 603.143 202.961 603.143 216.731V244.001Z" fill="black"/>
<path d="M651.286 223.391H618.346V225.011C618.346 230.141 622.396 236.351 630.226 236.351C635.986 236.351 641.656 233.831 641.656 228.881H650.836C650.836 237.071 642.286 244.721 631.486 244.721H628.876C616.366 244.721 609.076 234.281 609.076 225.011V216.731C609.076 207.461 616.906 196.841 629.416 196.841H630.946C636.346 196.841 641.476 199.001 645.166 202.511C651.376 208.451 651.286 214.121 651.286 222.131V223.391ZM618.436 215.651H642.286C642.286 209.351 636.886 205.301 630.856 205.301C623.566 205.301 618.976 210.791 618.436 215.651Z" fill="black"/>
<path d="M653.921 234.461H663.191V244.001H653.921V234.461Z" fill="black"/>
<path d="M117.57 353.001H96.8701V291.891H117.57C134.58 291.891 139.98 304.131 139.98 317.001V327.711C139.98 340.581 134.58 353.001 117.57 353.001ZM130.71 327.711V317.001C130.71 308.271 128.55 300.171 116.22 300.171H106.14V344.451H116.22C128.55 344.451 130.71 336.441 130.71 327.711Z" fill="black"/>
<path d="M188.102 332.391H155.162V334.011C155.162 339.141 159.212 345.351 167.042 345.351C172.802 345.351 178.472 342.831 178.472 337.881H187.652C187.652 346.071 179.102 353.721 168.302 353.721H165.692C153.182 353.721 145.892 343.281 145.892 334.011V325.731C145.892 316.461 153.722 305.841 166.232 305.841H167.762C173.162 305.841 178.292 308.001 181.982 311.511C188.192 317.451 188.102 323.121 188.102 331.131V332.391ZM155.252 324.651H179.102C179.102 318.351 173.702 314.301 167.672 314.301C160.382 314.301 155.792 319.791 155.252 324.651Z" fill="black"/>
<path d="M195.044 353.001V288.561H204.314V353.001H195.044Z" fill="black"/>
<path d="M212.185 306.741H221.455V353.001H212.185V306.741ZM212.095 288.651H221.455V298.191H212.095V288.651Z" fill="black"/>
<path d="M226.083 306.741H235.443L248.223 342.111L260.913 306.741H270.273L252.633 353.001H243.723L226.083 306.741Z" fill="black"/>
<path d="M313.082 332.391H280.142V334.011C280.142 339.141 284.192 345.351 292.022 345.351C297.782 345.351 303.452 342.831 303.452 337.881H312.632C312.632 346.071 304.082 353.721 293.282 353.721H290.672C278.162 353.721 270.872 343.281 270.872 334.011V325.731C270.872 316.461 278.702 305.841 291.212 305.841H292.742C298.142 305.841 303.272 308.001 306.962 311.511C313.172 317.451 313.082 323.121 313.082 331.131V332.391ZM280.232 324.651H304.082C304.082 318.351 298.682 314.301 292.652 314.301C285.362 314.301 280.772 319.791 280.232 324.651Z" fill="black"/>
<path d="M351.614 311.061L344.954 317.991C342.974 315.471 340.274 314.301 337.844 314.301C333.434 314.301 329.294 317.901 329.294 324.021V353.001H320.024V306.741H328.394L329.294 311.781V311.871C332.624 308.451 337.394 305.931 342.254 305.841C346.034 305.841 349.634 307.461 351.614 311.061Z" fill="black"/>
<path d="M393.59 332.391H360.65V334.011C360.65 339.141 364.7 345.351 372.53 345.351C378.29 345.351 383.96 342.831 383.96 337.881H393.14C393.14 346.071 384.59 353.721 373.79 353.721H371.18C358.67 353.721 351.38 343.281 351.38 334.011V325.731C351.38 316.461 359.21 305.841 371.72 305.841H373.25C378.65 305.841 383.78 308.001 387.47 311.511C393.68 317.451 393.59 323.121 393.59 331.131V332.391ZM360.74 324.651H384.59C384.59 318.351 379.19 314.301 373.16 314.301C365.87 314.301 361.28 319.791 360.74 324.651Z" fill="black"/>
<path d="M417.992 353.901C405.482 353.901 398.282 343.281 398.282 334.011V325.731C398.282 316.461 405.482 305.841 417.992 305.841C423.302 305.841 427.892 308.091 431.222 311.601V288.561H440.492V353.001H432.122L431.222 348.051C427.622 351.561 422.852 353.901 417.992 353.901ZM407.552 325.731V334.011C407.552 339.141 411.512 345.351 419.342 345.351C426.362 345.351 431.222 339.681 431.222 334.551V325.731C431.222 320.601 426.362 314.301 419.342 314.301C411.512 314.301 407.552 320.601 407.552 325.731Z" fill="black"/>
<path d="M448.257 343.461H457.527V353.001H448.257V343.461Z" fill="black"/>
<path d="M614.441 472.207C618.395 472.207 621.557 469.603 621.557 465.555C621.557 462.207 619.091 458.904 614.441 458.904H608.303V470.765H603.51V454.579H615.602C622.114 454.579 626.348 459.323 626.348 465.649C626.348 471.185 622.765 476.535 615.602 476.535H611.694C609.833 476.535 608.3 478.07 608.3 479.929V486.16H603.51V480.345C603.51 475.835 607.138 472.207 611.649 472.207H614.441Z" fill="#C71617"/>
<path d="M638.395 486.531C631.929 486.531 628.164 481.136 628.164 476.346V472.067C628.164 467.277 632.209 461.787 638.674 461.787H640.396C646.862 461.787 650.907 467.277 650.907 472.067V476.346C650.907 481.136 647.138 486.531 640.676 486.531H638.395ZM632.954 476.346C632.954 480.205 636.208 482.206 639.511 482.206C642.814 482.206 646.117 480.205 646.117 476.346V472.067C646.117 468.113 642.814 466.16 639.511 466.16C635.977 466.16 632.954 468.347 632.954 472.067V476.346Z" fill="black"/>
<path d="M668.3 486.486C667.789 486.626 665.833 486.626 665.277 486.626C659.927 486.626 657.789 483.882 657.789 478.207V466.3H653.045V463.417C656.162 463.417 659.462 462.021 659.462 456.535H662.579V462.255H668.485V466.3H662.579V478.113C662.579 481.136 663.741 481.927 666.253 481.927H668.856L668.297 486.486H668.3Z" fill="black"/>
<path d="M708.16 461.787C714.532 461.787 718.206 465.695 718.206 472.067V486.16H713.416V472.067C713.416 469.414 711.369 466.16 707.324 466.16C704.07 466.16 701.974 467.973 700.207 470.485C700.067 470.716 699.927 470.905 699.787 471.136C695.834 477.182 693.321 486.626 682.765 486.626C677.741 486.626 670.998 483.277 670.998 476.44V472.161C670.998 467.371 675.043 461.881 681.509 461.881H682.3C685.092 461.881 687.74 462.997 689.647 464.81C692.856 467.879 692.81 470.811 692.81 474.95V475.601H675.788C675.788 479.183 678.16 482.252 683.185 482.252C690.393 482.252 693.37 476.811 696.393 471.556V462.252H700.718L701.183 464.764C701.743 464.208 702.394 463.694 703.136 463.277L703.181 463.232C704.577 462.395 706.204 461.881 708.157 461.79L708.16 461.787ZM688.16 471.507C688.16 468.25 685.463 466.157 682.345 466.157C678.577 466.157 676.065 468.995 675.834 471.507H688.16ZM701.183 472.997V486.16H696.393V481.416L701.183 472.997Z" fill="black"/>
<path d="M735.602 486.486C735.091 486.626 733.135 486.626 732.579 486.626C727.229 486.626 725.091 483.882 725.091 478.207V466.3H720.347V463.417C723.464 463.417 726.764 462.021 726.764 456.535H729.881V462.255H735.787V466.3H729.881V478.113C729.881 481.136 731.043 481.927 733.555 481.927H736.158L735.599 486.486H735.602Z" fill="black"/>
<path d="M743.6 452.903V457.833H738.765V452.903H743.6ZM743.6 462.252V486.16H738.81V462.252H743.6Z" fill="black"/>
<path d="M762.855 483.648C761.134 485.369 758.576 486.626 755.182 486.626C750.298 486.626 746.578 483.697 746.578 479.418C746.578 474.582 750.812 471.93 755.787 471.93H758.16C759.835 471.93 763.275 471.094 763.275 468.952C763.275 467.14 760.903 466.16 758.345 466.16C755.416 466.16 752.299 467.416 752.299 470.069H747.509C747.509 464.488 752.859 461.79 758.16 461.79C763.184 461.79 768.205 464.257 768.205 469.187C768.205 474.117 762.624 475.653 758.765 475.653H755.602C753.789 475.653 751.417 476.723 751.417 478.907C751.417 481.419 754.486 482.35 756.347 482.35C759.09 482.35 763.418 480.488 763.789 477.094H767.557V486.163H763.324L762.859 483.651L762.855 483.648Z" fill="black"/>
<path d="M771.089 452.857H775.879V486.16H771.089V452.857Z" fill="black"/>
<path d="M603.143 505.005V492.854H610.23V494.517H604.984V497.667H609.69V499.33H604.984V503.355H610.227V505.018H604.054V504.998H603.143V505.005Z" fill="black"/>
<path d="M612.824 495.806L615.365 502.838L617.887 495.806H619.749L616.241 505.005H614.47L610.962 495.806H612.824Z" fill="black"/>
<path d="M621.72 500.908V501.23C621.72 502.249 622.524 503.485 624.083 503.485C625.228 503.485 626.354 502.984 626.354 502.001H628.18C628.18 503.628 626.481 505.151 624.333 505.151H623.816C621.33 505.151 619.878 503.075 619.878 501.233V499.587C619.878 497.745 621.434 495.633 623.923 495.633H624.226C625.3 495.633 626.318 496.063 627.054 496.759C628.287 497.94 628.271 499.066 628.271 500.661V500.911H621.72V500.908ZM626.481 499.369C626.481 498.116 625.407 497.312 624.21 497.312C622.762 497.312 621.847 498.402 621.74 499.369H626.481Z" fill="black"/>
<path d="M634.606 498.044C634.213 497.543 633.676 497.312 633.194 497.312C632.319 497.312 631.496 498.028 631.496 499.245V505.008H629.654V495.809H631.317L631.496 496.811V496.827C632.156 496.147 633.106 495.646 634.073 495.63C634.825 495.63 635.54 495.952 635.934 496.668L634.61 498.044H634.606Z" fill="black"/>
<path d="M638.453 495.806V500.781C638.453 501.8 639.241 503.052 640.796 503.052C642.192 503.052 643.159 501.8 643.159 500.781V495.806H645V505.379C645 507.078 643.712 508.708 641.226 508.708C638.739 508.708 637.451 507.169 637.379 505.506H639.185C639.257 506.525 640.24 507.026 641.226 507.026C642.212 507.026 643.159 506.489 643.159 505.363V503.573C642.498 504.289 641.584 504.735 640.529 504.735C638.043 504.735 636.611 502.623 636.611 500.781V495.806H638.453Z" fill="black"/>
<path d="M656.513 498.402C656.513 497.563 655.618 497.312 654.688 497.312C653.757 497.312 652.862 497.725 652.862 498.367C652.862 500.228 658.534 498.816 658.534 502.32C658.534 504.162 656.601 505.184 654.668 505.184C652.735 505.184 650.838 504.165 650.838 502.053H652.664C652.664 503.056 653.682 503.485 654.685 503.485C655.687 503.485 656.689 503.072 656.689 502.324C656.689 500.57 651.017 501.842 651.017 498.406C651.017 496.671 652.787 495.649 654.613 495.649C656.438 495.649 658.336 496.222 658.336 498.406H656.51L656.513 498.402Z" fill="black"/>
<path d="M668.287 499.584V501.23C668.287 503.072 666.839 505.184 664.35 505.184C663.312 505.184 662.401 504.738 661.737 504.038V508.62H659.895V495.809H661.558L661.737 496.775C662.453 496.079 663.4 495.63 664.35 495.63C666.836 495.63 668.287 497.742 668.287 499.584ZM666.445 499.584C666.445 498.565 665.642 497.312 664.083 497.312C662.687 497.312 661.74 498.458 661.74 499.476V501.23C661.74 502.249 662.687 503.485 664.083 503.485C665.638 503.485 666.445 502.252 666.445 501.23V499.584Z" fill="black"/>
<path d="M677.148 498.956V505.005H675.538L675.359 504.038V504.022C674.679 504.683 673.712 505.184 672.407 505.184C670.744 505.184 669.114 504.237 669.114 502.392C669.114 500.98 670.295 499.528 672.638 499.528H675.359V498.972C675.359 497.846 674.34 497.309 673.318 497.309C672.296 497.309 671.35 497.81 671.262 498.829H669.472C669.544 497.166 670.884 495.627 673.318 495.627C675.752 495.627 677.148 497.254 677.148 498.956ZM672.55 500.96C671.512 500.96 670.959 501.569 670.94 502.193C670.92 502.874 671.512 503.57 672.837 503.57C673.998 503.57 675.359 502.695 675.359 501.155V500.96H672.55Z" fill="black"/>
<path d="M680.174 501.211C680.174 502.786 681.427 503.482 682.625 503.482C683.715 503.482 684.753 502.909 684.753 501.891H686.595C686.595 504.162 684.769 505.164 682.693 505.164C680.617 505.164 678.326 503.947 678.326 501.211V499.584C678.326 496.827 680.545 495.61 682.673 495.61C684.802 495.61 686.575 496.613 686.575 498.903H684.733C684.733 497.901 683.695 497.328 682.621 497.328C681.424 497.328 680.171 498.009 680.171 499.584V501.211H680.174Z" fill="black"/>
<path d="M689.625 500.908V501.23C689.625 502.249 690.428 503.485 691.987 503.485C693.133 503.485 694.258 502.984 694.258 502.001H696.084C696.084 503.628 694.385 505.151 692.238 505.151H691.717C689.231 505.151 687.779 503.075 687.779 501.233V499.587C687.779 497.745 689.335 495.633 691.824 495.633H692.13C693.204 495.633 694.223 496.063 694.958 496.759C696.191 497.94 696.175 499.066 696.175 500.661V500.911H689.625V500.908ZM694.382 499.369C694.382 498.116 693.308 497.312 692.111 497.312C690.659 497.312 689.748 498.402 689.641 499.369H694.382Z" fill="black"/>
<path d="M698.538 503.108V505.005H696.696V503.108H698.538Z" fill="black"/>
<path d="M704.551 505.005V492.854H708.667C712.049 492.854 713.122 495.288 713.122 497.846V499.974C713.122 502.532 712.049 505.002 708.667 505.002H704.551V505.005ZM711.277 497.846C711.277 496.111 710.848 494.501 708.397 494.501H706.393V503.306H708.397C710.851 503.306 711.277 501.715 711.277 499.977V497.846Z" fill="black"/>
<path d="M716.149 500.908V501.23C716.149 502.249 716.953 503.485 718.511 503.485C719.657 503.485 720.783 502.984 720.783 502.001H722.608C722.608 503.628 720.91 505.151 718.762 505.151H718.245C715.758 505.151 714.307 503.075 714.307 501.233V499.587C714.307 497.745 715.863 495.633 718.352 495.633H718.655C719.728 495.633 720.747 496.063 721.482 496.759C722.716 497.94 722.699 499.066 722.699 500.661V500.911H716.149V500.908ZM720.906 499.369C720.906 498.116 719.833 497.312 718.635 497.312C717.187 497.312 716.272 498.402 716.165 499.369H720.906Z" fill="black"/>
<path d="M724.076 492.193H725.918V505.008H724.076V492.193Z" fill="black"/>
<path d="M729.318 492.21V494.107H727.457V492.21H729.318ZM729.318 495.806V505.005H727.477V495.806H729.318Z" fill="black"/>
<path d="M732.094 495.806L734.636 502.838L737.157 495.806H739.019L735.511 505.005H733.741L730.233 495.806H732.094Z" fill="black"/>
<path d="M740.988 500.908V501.23C740.988 502.249 741.795 503.485 743.35 503.485C744.496 503.485 745.621 502.984 745.621 502.001H747.447C747.447 503.628 745.748 505.151 743.601 505.151H743.083C740.597 505.151 739.146 503.075 739.146 501.233V499.587C739.146 497.745 740.705 495.633 743.191 495.633H743.493C744.567 495.633 745.586 496.063 746.321 496.759C747.554 497.94 747.538 499.066 747.538 500.661V500.911H740.988V500.908ZM745.748 499.369C745.748 498.116 744.675 497.312 743.477 497.312C742.029 497.312 741.115 498.402 741.007 499.369H745.748Z" fill="black"/>
<path d="M753.874 498.044C753.481 497.543 752.944 497.312 752.462 497.312C751.587 497.312 750.763 498.028 750.763 499.245V505.008H748.918V495.809H750.584L750.763 496.811V496.827C751.424 496.147 752.374 495.646 753.341 495.63C754.092 495.63 754.808 495.952 755.202 496.668L753.878 498.044H753.874Z" fill="black"/>
<path d="M756.988 500.908V501.23C756.988 502.249 757.795 503.485 759.351 503.485C760.496 503.485 761.622 502.984 761.622 502.001H763.448C763.448 503.628 761.749 505.151 759.601 505.151H759.084C756.598 505.151 755.146 503.075 755.146 501.233V499.587C755.146 497.745 756.705 495.633 759.191 495.633H759.494C760.568 495.633 761.586 496.063 762.322 496.759C763.555 497.94 763.539 499.066 763.539 500.661V500.911H756.988V500.908ZM761.749 499.369C761.749 498.116 760.675 497.312 759.478 497.312C758.03 497.312 757.115 498.402 757.008 499.369H761.749Z" fill="black"/>
<path d="M764.47 499.584C764.47 497.742 765.902 495.63 768.388 495.63C769.446 495.63 770.357 496.079 771.017 496.775V492.193H772.859V505.008H771.196L771.017 504.025C770.301 504.722 769.354 505.187 768.388 505.187C765.902 505.187 764.47 503.075 764.47 501.233V499.584ZM766.315 501.23C766.315 502.249 767.103 503.485 768.658 503.485C770.054 503.485 771.021 502.359 771.021 501.338V499.584C771.021 498.565 770.054 497.312 768.658 497.312C767.103 497.312 766.315 498.565 766.315 499.584V501.23Z" fill="black"/>
<path d="M776.246 503.108V505.005H774.401V503.108H776.246Z" fill="black"/>
</svg>
