<svg width="850" height="551" viewBox="0 0 850 551" fill="none" xmlns="http://www.w3.org/2000/svg">
<path d="M98.46 190H93.87V128.89H129.51V137.26H103.14V153.1H126.81V161.47H103.14V181.72H129.51V190.09H98.46V190Z" fill="black"/>
<path d="M133.171 143.74H142.531L155.311 179.11L168.001 143.74H177.361L159.721 190H150.811L133.171 143.74Z" fill="black"/>
<path d="M220.17 169.39H187.23V171.01C187.23 176.14 191.28 182.35 199.11 182.35C204.87 182.35 210.54 179.83 210.54 174.88H219.72C219.72 183.07 211.17 190.72 200.37 190.72H197.76C185.25 190.72 177.96 180.28 177.96 171.01V162.73C177.96 153.46 185.79 142.84 198.3 142.84H199.83C205.23 142.84 210.36 145 214.05 148.51C220.26 154.45 220.17 160.12 220.17 168.13V169.39ZM187.32 161.65H211.17C211.17 155.35 205.77 151.3 199.74 151.3C192.45 151.3 187.86 156.79 187.32 161.65Z" fill="black"/>
<path d="M258.702 148.06L252.042 154.99C250.062 152.47 247.362 151.3 244.932 151.3C240.522 151.3 236.382 154.9 236.382 161.02V190H227.112V143.74H235.482L236.382 148.78V148.87C239.712 145.45 244.482 142.93 249.342 142.84C253.122 142.84 256.722 144.46 258.702 148.06Z" fill="black"/>
<path d="M262.159 143.74H271.429V168.76C271.429 173.89 275.389 180.19 283.219 180.19C290.239 180.19 295.099 173.89 295.099 168.76V143.74H304.369V191.89C304.369 200.44 297.889 208.63 285.379 208.63C273.139 208.63 266.389 200.89 266.029 192.52H275.119C275.479 197.65 280.429 200.17 285.379 200.17C290.509 200.17 295.099 197.47 295.099 191.8V182.8C291.769 186.4 287.179 188.65 281.869 188.65C269.359 188.65 262.159 178.03 262.159 168.76V143.74Z" fill="black"/>
<path d="M342.972 162.73V170.92C342.972 178.84 349.272 182.35 355.302 182.35C360.792 182.35 366.012 179.47 366.012 174.34H375.282C375.282 185.77 366.102 190.81 355.662 190.81C344.862 190.81 333.702 184.69 333.702 170.92V162.73C333.702 148.87 344.862 142.75 355.572 142.75C366.102 142.75 375.192 147.79 375.192 159.31H365.922C365.922 154.27 360.702 151.39 355.302 151.39C349.272 151.39 342.972 154.81 342.972 162.73Z" fill="black"/>
<path d="M413.741 148.06L407.081 154.99C405.101 152.47 402.401 151.3 399.971 151.3C395.561 151.3 391.421 154.9 391.421 161.02V190H382.151V143.74H390.521L391.421 148.78V148.87C394.751 145.45 399.521 142.93 404.381 142.84C408.161 142.84 411.761 144.46 413.741 148.06Z" fill="black"/>
<path d="M418.188 143.74H427.458V190H418.188V143.74ZM418.098 125.65H427.458V135.19H418.098V125.65Z" fill="black"/>
<path d="M472.047 156.79H462.867C462.867 152.56 458.367 151.3 453.687 151.3C449.187 151.3 444.507 153.37 444.507 156.61C444.507 165.97 473.037 158.86 473.037 176.5C473.037 185.77 463.317 190.9 453.597 190.9C443.967 190.9 434.337 185.77 434.337 175.15H443.517C443.517 180.19 448.647 182.35 453.687 182.35C458.727 182.35 463.767 180.28 463.767 176.5C463.767 167.68 435.237 174.07 435.237 156.79C435.237 148.06 444.147 142.93 453.327 142.93C462.597 142.93 472.047 145.81 472.047 156.79Z" fill="black"/>
<path d="M479.976 143.74H489.246V190H479.976V143.74ZM479.886 125.65H489.246V135.19H479.886V125.65Z" fill="black"/>
<path d="M533.834 156.79H524.654C524.654 152.56 520.154 151.3 515.474 151.3C510.974 151.3 506.294 153.37 506.294 156.61C506.294 165.97 534.824 158.86 534.824 176.5C534.824 185.77 525.104 190.9 515.384 190.9C505.754 190.9 496.124 185.77 496.124 175.15H505.304C505.304 180.19 510.434 182.35 515.474 182.35C520.514 182.35 525.554 180.28 525.554 176.5C525.554 167.68 497.024 174.07 497.024 156.79C497.024 148.06 505.934 142.93 515.114 142.93C524.384 142.93 533.834 145.81 533.834 156.79Z" fill="black"/>
<path d="M537.366 180.46H546.636V190H537.366V180.46Z" fill="black"/>
<path d="M139.14 256.07H129.87C129.87 248.6 123.57 245.54 117.27 245.54C110.79 245.54 104.22 248.69 104.22 254C104.22 266.78 139.59 261.83 139.59 281.36C139.59 293.06 128.79 299.9 116.55 299.9C105.03 299.9 92.97 293.69 92.97 279.38H102.24C102.24 287.66 109.53 291.35 116.55 291.35C123.12 291.35 130.32 288.2 130.32 282.71C130.32 269.93 94.95 276.32 94.95 254.9C94.95 243.29 106.29 236.99 117.45 236.99C128.34 236.99 139.14 243.02 139.14 256.07Z" fill="black"/>
<path d="M168.069 299.72H163.659C151.149 299.72 143.859 289.28 143.859 280.01V271.73C143.859 262.46 151.689 251.84 164.199 251.84H167.529C180.039 251.84 187.869 262.46 187.869 271.73V280.01C187.869 289.28 180.579 299.72 168.069 299.72ZM153.129 271.73V280.01C153.129 287.48 159.429 291.35 165.819 291.35C172.209 291.35 178.599 287.48 178.599 280.01V271.73C178.599 264.08 172.209 260.3 165.819 260.3C158.979 260.3 153.129 264.53 153.129 271.73Z" fill="black"/>
<path d="M194.681 299V234.56H203.951V299H194.681Z" fill="black"/>
<path d="M208.581 252.74H217.941L230.721 288.11L243.411 252.74H252.771L235.131 299H226.221L208.581 252.74Z" fill="black"/>
<path d="M295.58 278.39H262.64V280.01C262.64 285.14 266.69 291.35 274.52 291.35C280.28 291.35 285.95 288.83 285.95 283.88H295.13C295.13 292.07 286.58 299.72 275.78 299.72H273.17C260.66 299.72 253.37 289.28 253.37 280.01V271.73C253.37 262.46 261.2 251.84 273.71 251.84H275.24C280.64 251.84 285.77 254 289.46 257.51C295.67 263.45 295.58 269.12 295.58 277.13V278.39ZM262.73 270.65H286.58C286.58 264.35 281.18 260.3 275.15 260.3C267.86 260.3 263.27 265.79 262.73 270.65Z" fill="black"/>
<path d="M319.982 299.9C307.472 299.9 300.272 289.28 300.272 280.01V271.73C300.272 262.46 307.472 251.84 319.982 251.84C325.292 251.84 329.882 254.09 333.212 257.6V234.56H342.482V299H334.112L333.212 294.05C329.612 297.56 324.842 299.9 319.982 299.9ZM309.542 271.73V280.01C309.542 285.14 313.502 291.35 321.332 291.35C328.352 291.35 333.212 285.68 333.212 280.55V271.73C333.212 266.6 328.352 260.3 321.332 260.3C313.502 260.3 309.542 266.6 309.542 271.73Z" fill="black"/>
<path d="M395.247 299.9C390.387 299.9 385.617 297.56 382.017 294.05L381.117 299H372.747V234.56H382.017V257.6C385.347 254.09 389.937 251.84 395.247 251.84C407.757 251.84 414.957 262.46 414.957 271.73V280.01C414.957 289.28 407.757 299.9 395.247 299.9ZM405.687 280.01V271.73C405.687 266.6 401.727 260.3 393.897 260.3C386.877 260.3 382.017 266.6 382.017 271.73V280.55C382.017 285.68 386.877 291.35 393.897 291.35C401.727 291.35 405.687 285.14 405.687 280.01Z" fill="black"/>
<path d="M461.782 278.39H428.842V280.01C428.842 285.14 432.892 291.35 440.722 291.35C446.482 291.35 452.152 288.83 452.152 283.88H461.332C461.332 292.07 452.782 299.72 441.982 299.72H439.372C426.862 299.72 419.572 289.28 419.572 280.01V271.73C419.572 262.46 427.402 251.84 439.912 251.84H441.442C446.842 251.84 451.972 254 455.662 257.51C461.872 263.45 461.782 269.12 461.782 277.13V278.39ZM428.932 270.65H452.782C452.782 264.35 447.382 260.3 441.352 260.3C434.062 260.3 429.472 265.79 428.932 270.65Z" fill="black"/>
<path d="M493.113 234.02L494.464 234.11L493.203 242.93H491.583C486.723 242.93 481.413 244.46 481.413 250.31V252.74H493.833V260.57H481.413V298.91H472.143V260.57H466.023V252.74H472.143V250.13C472.143 244.82 474.213 241.04 477.273 238.34C481.323 234.74 487.353 233.66 493.113 234.02Z" fill="black"/>
<path d="M520.51 299.72H516.1C503.59 299.72 496.3 289.28 496.3 280.01V271.73C496.3 262.46 504.13 251.84 516.64 251.84H519.97C532.48 251.84 540.31 262.46 540.31 271.73V280.01C540.31 289.28 533.02 299.72 520.51 299.72ZM505.57 271.73V280.01C505.57 287.48 511.87 291.35 518.26 291.35C524.65 291.35 531.04 287.48 531.04 280.01V271.73C531.04 264.08 524.65 260.3 518.26 260.3C511.42 260.3 505.57 264.53 505.57 271.73Z" fill="black"/>
<path d="M578.712 257.06L572.052 263.99C570.072 261.47 567.372 260.3 564.942 260.3C560.532 260.3 556.392 263.9 556.392 270.02V299H547.122V252.74H555.492L556.392 257.78V257.87C559.722 254.45 564.492 251.93 569.352 251.84C573.132 251.84 576.732 253.46 578.712 257.06Z" fill="black"/>
<path d="M620.688 278.39H587.748V280.01C587.748 285.14 591.798 291.35 599.628 291.35C605.388 291.35 611.058 288.83 611.058 283.88H620.238C620.238 292.07 611.688 299.72 600.888 299.72H598.278C585.768 299.72 578.478 289.28 578.478 280.01V271.73C578.478 262.46 586.308 251.84 598.818 251.84H600.348C605.748 251.84 610.878 254 614.568 257.51C620.778 263.45 620.688 269.12 620.688 277.13V278.39ZM587.838 270.65H611.688C611.688 264.35 606.288 260.3 600.258 260.3C592.968 260.3 588.378 265.79 587.838 270.65Z" fill="black"/>
<path d="M92.97 361.74H102.24V386.76C102.24 391.89 106.2 398.19 114.03 398.19C121.05 398.19 125.91 391.89 125.91 386.76V361.74H135.18V409.89C135.18 418.44 128.7 426.63 116.19 426.63C103.95 426.63 97.2 418.89 96.84 410.52H105.93C106.29 415.65 111.24 418.17 116.19 418.17C121.32 418.17 125.91 415.47 125.91 409.8V400.8C122.58 404.4 117.99 406.65 112.68 406.65C100.17 406.65 92.97 396.03 92.97 386.76V361.74Z" fill="black"/>
<path d="M166.223 408.72H161.813C149.303 408.72 142.013 398.28 142.013 389.01V380.73C142.013 371.46 149.843 360.84 162.353 360.84H165.683C178.193 360.84 186.023 371.46 186.023 380.73V389.01C186.023 398.28 178.733 408.72 166.223 408.72ZM151.283 380.73V389.01C151.283 396.48 157.583 400.35 163.973 400.35C170.363 400.35 176.753 396.48 176.753 389.01V380.73C176.753 373.08 170.363 369.3 163.973 369.3C157.133 369.3 151.283 373.53 151.283 380.73Z" fill="black"/>
<path d="M192.835 361.74H202.105V389.01C202.105 394.14 206.155 400.35 213.895 400.35C221.005 400.35 225.775 394.68 225.775 389.55V361.74H235.045V408H226.675L225.775 402.96C222.175 406.65 217.315 408.9 212.455 408.9C199.945 408.9 192.835 401.52 192.835 389.01V361.74Z" fill="black"/>
<path d="M265.257 408V343.56H274.527V387.12L294.597 361.74H304.767L289.557 380.73L306.657 408H296.487L283.977 387.75L274.527 399.54V408H265.257Z" fill="black"/>
<path d="M351.764 408H342.494V380.73C342.494 375.6 338.534 369.3 330.704 369.3C323.684 369.3 318.824 375.06 318.824 380.19V408H309.554V361.74H317.924L318.824 366.6C322.694 362.82 328.094 360.84 333.404 360.84C342.764 360.84 351.764 366.96 351.764 380.73V408Z" fill="black"/>
<path d="M399.907 387.39H366.967V389.01C366.967 394.14 371.017 400.35 378.847 400.35C384.607 400.35 390.277 397.83 390.277 392.88H399.457C399.457 401.07 390.907 408.72 380.107 408.72H377.497C364.987 408.72 357.697 398.28 357.697 389.01V380.73C357.697 371.46 365.527 360.84 378.037 360.84H379.567C384.967 360.84 390.097 363 393.787 366.51C399.997 372.45 399.907 378.12 399.907 386.13V387.39ZM367.057 379.65H390.907C390.907 373.35 385.507 369.3 379.477 369.3C372.187 369.3 367.597 374.79 367.057 379.65Z" fill="black"/>
<path d="M421.149 408H412.869L400.809 361.74H410.079L417.549 394.41L425.739 361.74H434.289L442.389 394.23L449.859 361.74H459.129L447.069 408H437.889L430.059 376.95L421.149 408Z" fill="black"/>
<path d="M464.153 398.46H473.423V408H464.153V398.46Z" fill="black"/>
<path d="M614.441 472.207C618.395 472.207 621.557 469.603 621.557 465.555C621.557 462.207 619.091 458.904 614.441 458.904H608.303V470.765H603.51V454.579H615.602C622.114 454.579 626.348 459.323 626.348 465.649C626.348 471.185 622.765 476.535 615.602 476.535H611.694C609.833 476.535 608.3 478.07 608.3 479.929V486.16H603.51V480.345C603.51 475.835 607.138 472.207 611.649 472.207H614.441Z" fill="#C71617"/>
<path d="M638.395 486.531C631.929 486.531 628.164 481.136 628.164 476.346V472.067C628.164 467.277 632.209 461.787 638.674 461.787H640.396C646.862 461.787 650.907 467.277 650.907 472.067V476.346C650.907 481.136 647.138 486.531 640.676 486.531H638.395ZM632.954 476.346C632.954 480.205 636.208 482.206 639.511 482.206C642.814 482.206 646.117 480.205 646.117 476.346V472.067C646.117 468.113 642.814 466.16 639.511 466.16C635.977 466.16 632.954 468.347 632.954 472.067V476.346Z" fill="black"/>
<path d="M668.3 486.486C667.789 486.626 665.833 486.626 665.277 486.626C659.927 486.626 657.789 483.882 657.789 478.207V466.3H653.045V463.417C656.162 463.417 659.462 462.021 659.462 456.535H662.579V462.255H668.485V466.3H662.579V478.113C662.579 481.136 663.741 481.927 666.253 481.927H668.856L668.297 486.486H668.3Z" fill="black"/>
<path d="M708.16 461.787C714.532 461.787 718.206 465.695 718.206 472.067V486.16H713.416V472.067C713.416 469.414 711.369 466.16 707.324 466.16C704.07 466.16 701.974 467.973 700.207 470.485C700.067 470.716 699.927 470.905 699.787 471.136C695.834 477.182 693.321 486.626 682.765 486.626C677.741 486.626 670.998 483.277 670.998 476.44V472.161C670.998 467.371 675.043 461.881 681.509 461.881H682.3C685.092 461.881 687.74 462.997 689.647 464.81C692.856 467.879 692.81 470.811 692.81 474.95V475.601H675.788C675.788 479.183 678.16 482.252 683.185 482.252C690.393 482.252 693.37 476.811 696.393 471.556V462.252H700.718L701.183 464.764C701.743 464.208 702.394 463.694 703.136 463.277L703.181 463.232C704.577 462.395 706.204 461.881 708.157 461.79L708.16 461.787ZM688.16 471.507C688.16 468.25 685.463 466.157 682.345 466.157C678.577 466.157 676.065 468.995 675.834 471.507H688.16ZM701.183 472.997V486.16H696.393V481.416L701.183 472.997Z" fill="black"/>
<path d="M735.602 486.486C735.091 486.626 733.135 486.626 732.579 486.626C727.229 486.626 725.091 483.882 725.091 478.207V466.3H720.347V463.417C723.464 463.417 726.764 462.021 726.764 456.535H729.881V462.255H735.787V466.3H729.881V478.113C729.881 481.136 731.043 481.927 733.555 481.927H736.158L735.599 486.486H735.602Z" fill="black"/>
<path d="M743.6 452.903V457.833H738.765V452.903H743.6ZM743.6 462.252V486.16H738.81V462.252H743.6Z" fill="black"/>
<path d="M762.855 483.648C761.134 485.369 758.576 486.626 755.182 486.626C750.298 486.626 746.578 483.697 746.578 479.418C746.578 474.582 750.812 471.93 755.787 471.93H758.16C759.835 471.93 763.275 471.094 763.275 468.952C763.275 467.14 760.903 466.16 758.345 466.16C755.416 466.16 752.299 467.416 752.299 470.069H747.509C747.509 464.488 752.859 461.79 758.16 461.79C763.184 461.79 768.205 464.257 768.205 469.187C768.205 474.117 762.624 475.653 758.765 475.653H755.602C753.789 475.653 751.417 476.723 751.417 478.907C751.417 481.419 754.486 482.35 756.347 482.35C759.09 482.35 763.418 480.488 763.789 477.094H767.557V486.163H763.324L762.859 483.651L762.855 483.648Z" fill="black"/>
<path d="M771.089 452.857H775.879V486.16H771.089V452.857Z" fill="black"/>
<path d="M603.143 505.005V492.854H610.23V494.517H604.984V497.667H609.69V499.33H604.984V503.355H610.227V505.018H604.054V504.998H603.143V505.005Z" fill="black"/>
<path d="M612.824 495.806L615.365 502.838L617.887 495.806H619.749L616.241 505.005H614.47L610.962 495.806H612.824Z" fill="black"/>
<path d="M621.72 500.908V501.23C621.72 502.249 622.524 503.485 624.083 503.485C625.228 503.485 626.354 502.984 626.354 502.001H628.18C628.18 503.628 626.481 505.151 624.333 505.151H623.816C621.33 505.151 619.878 503.075 619.878 501.233V499.587C619.878 497.745 621.434 495.633 623.923 495.633H624.226C625.3 495.633 626.318 496.063 627.054 496.759C628.287 497.94 628.271 499.066 628.271 500.661V500.911H621.72V500.908ZM626.481 499.369C626.481 498.116 625.407 497.312 624.21 497.312C622.762 497.312 621.847 498.402 621.74 499.369H626.481Z" fill="black"/>
<path d="M634.606 498.044C634.213 497.543 633.676 497.312 633.194 497.312C632.319 497.312 631.496 498.028 631.496 499.245V505.008H629.654V495.809H631.317L631.496 496.811V496.827C632.156 496.147 633.106 495.646 634.073 495.63C634.825 495.63 635.54 495.952 635.934 496.668L634.61 498.044H634.606Z" fill="black"/>
<path d="M638.453 495.806V500.781C638.453 501.8 639.241 503.052 640.796 503.052C642.192 503.052 643.159 501.8 643.159 500.781V495.806H645V505.379C645 507.078 643.712 508.708 641.226 508.708C638.739 508.708 637.451 507.169 637.379 505.506H639.185C639.257 506.525 640.24 507.026 641.226 507.026C642.212 507.026 643.159 506.489 643.159 505.363V503.573C642.498 504.289 641.584 504.735 640.529 504.735C638.043 504.735 636.611 502.623 636.611 500.781V495.806H638.453Z" fill="black"/>
<path d="M656.513 498.402C656.513 497.563 655.618 497.312 654.688 497.312C653.757 497.312 652.862 497.725 652.862 498.367C652.862 500.228 658.534 498.816 658.534 502.32C658.534 504.162 656.601 505.184 654.668 505.184C652.735 505.184 650.838 504.165 650.838 502.053H652.664C652.664 503.056 653.682 503.485 654.685 503.485C655.687 503.485 656.689 503.072 656.689 502.324C656.689 500.57 651.017 501.842 651.017 498.406C651.017 496.671 652.787 495.649 654.613 495.649C656.438 495.649 658.336 496.222 658.336 498.406H656.51L656.513 498.402Z" fill="black"/>
<path d="M668.287 499.584V501.23C668.287 503.072 666.839 505.184 664.35 505.184C663.312 505.184 662.401 504.738 661.737 504.038V508.62H659.895V495.809H661.558L661.737 496.775C662.453 496.079 663.4 495.63 664.35 495.63C666.836 495.63 668.287 497.742 668.287 499.584ZM666.445 499.584C666.445 498.565 665.642 497.312 664.083 497.312C662.687 497.312 661.74 498.458 661.74 499.476V501.23C661.74 502.249 662.687 503.485 664.083 503.485C665.638 503.485 666.445 502.252 666.445 501.23V499.584Z" fill="black"/>
<path d="M677.148 498.956V505.005H675.538L675.359 504.038V504.022C674.679 504.683 673.712 505.184 672.407 505.184C670.744 505.184 669.114 504.237 669.114 502.392C669.114 500.98 670.295 499.528 672.638 499.528H675.359V498.972C675.359 497.846 674.34 497.309 673.318 497.309C672.296 497.309 671.35 497.81 671.262 498.829H669.472C669.544 497.166 670.884 495.627 673.318 495.627C675.752 495.627 677.148 497.254 677.148 498.956ZM672.55 500.96C671.512 500.96 670.959 501.569 670.94 502.193C670.92 502.874 671.512 503.57 672.837 503.57C673.998 503.57 675.359 502.695 675.359 501.155V500.96H672.55Z" fill="black"/>
<path d="M680.174 501.211C680.174 502.786 681.427 503.482 682.625 503.482C683.715 503.482 684.753 502.909 684.753 501.891H686.595C686.595 504.162 684.769 505.164 682.693 505.164C680.617 505.164 678.326 503.947 678.326 501.211V499.584C678.326 496.827 680.545 495.61 682.673 495.61C684.802 495.61 686.575 496.613 686.575 498.903H684.733C684.733 497.901 683.695 497.328 682.621 497.328C681.424 497.328 680.171 498.009 680.171 499.584V501.211H680.174Z" fill="black"/>
<path d="M689.625 500.908V501.23C689.625 502.249 690.428 503.485 691.987 503.485C693.133 503.485 694.258 502.984 694.258 502.001H696.084C696.084 503.628 694.385 505.151 692.238 505.151H691.717C689.231 505.151 687.779 503.075 687.779 501.233V499.587C687.779 497.745 689.335 495.633 691.824 495.633H692.13C693.204 495.633 694.223 496.063 694.958 496.759C696.191 497.94 696.175 499.066 696.175 500.661V500.911H689.625V500.908ZM694.382 499.369C694.382 498.116 693.308 497.312 692.111 497.312C690.659 497.312 689.748 498.402 689.641 499.369H694.382Z" fill="black"/>
<path d="M698.538 503.108V505.005H696.696V503.108H698.538Z" fill="black"/>
<path d="M704.551 505.005V492.854H708.667C712.049 492.854 713.122 495.288 713.122 497.846V499.974C713.122 502.532 712.049 505.002 708.667 505.002H704.551V505.005ZM711.277 497.846C711.277 496.111 710.848 494.501 708.397 494.501H706.393V503.306H708.397C710.851 503.306 711.277 501.715 711.277 499.977V497.846Z" fill="black"/>
<path d="M716.149 500.908V501.23C716.149 502.249 716.953 503.485 718.511 503.485C719.657 503.485 720.783 502.984 720.783 502.001H722.608C722.608 503.628 720.91 505.151 718.762 505.151H718.245C715.758 505.151 714.307 503.075 714.307 501.233V499.587C714.307 497.745 715.863 495.633 718.352 495.633H718.655C719.728 495.633 720.747 496.063 721.482 496.759C722.716 497.94 722.699 499.066 722.699 500.661V500.911H716.149V500.908ZM720.906 499.369C720.906 498.116 719.833 497.312 718.635 497.312C717.187 497.312 716.272 498.402 716.165 499.369H720.906Z" fill="black"/>
<path d="M724.076 492.193H725.918V505.008H724.076V492.193Z" fill="black"/>
<path d="M729.318 492.21V494.107H727.457V492.21H729.318ZM729.318 495.806V505.005H727.477V495.806H729.318Z" fill="black"/>
<path d="M732.094 495.806L734.636 502.838L737.157 495.806H739.019L735.511 505.005H733.741L730.233 495.806H732.094Z" fill="black"/>
<path d="M740.988 500.908V501.23C740.988 502.249 741.795 503.485 743.35 503.485C744.496 503.485 745.621 502.984 745.621 502.001H747.447C747.447 503.628 745.748 505.151 743.601 505.151H743.083C740.597 505.151 739.146 503.075 739.146 501.233V499.587C739.146 497.745 740.705 495.633 743.191 495.633H743.493C744.567 495.633 745.586 496.063 746.321 496.759C747.554 497.94 747.538 499.066 747.538 500.661V500.911H740.988V500.908ZM745.748 499.369C745.748 498.116 744.675 497.312 743.477 497.312C742.029 497.312 741.115 498.402 741.007 499.369H745.748Z" fill="black"/>
<path d="M753.874 498.044C753.481 497.543 752.944 497.312 752.462 497.312C751.587 497.312 750.763 498.028 750.763 499.245V505.008H748.918V495.809H750.584L750.763 496.811V496.827C751.424 496.147 752.374 495.646 753.341 495.63C754.092 495.63 754.808 495.952 755.202 496.668L753.878 498.044H753.874Z" fill="black"/>
<path d="M756.988 500.908V501.23C756.988 502.249 757.795 503.485 759.351 503.485C760.496 503.485 761.622 502.984 761.622 502.001H763.448C763.448 503.628 761.749 505.151 759.601 505.151H759.084C756.598 505.151 755.146 503.075 755.146 501.233V499.587C755.146 497.745 756.705 495.633 759.191 495.633H759.494C760.568 495.633 761.586 496.063 762.322 496.759C763.555 497.94 763.539 499.066 763.539 500.661V500.911H756.988V500.908ZM761.749 499.369C761.749 498.116 760.675 497.312 759.478 497.312C758.03 497.312 757.115 498.402 757.008 499.369H761.749Z" fill="black"/>
<path d="M764.47 499.584C764.47 497.742 765.902 495.63 768.388 495.63C769.446 495.63 770.357 496.079 771.017 496.775V492.193H772.859V505.008H771.196L771.017 504.025C770.301 504.722 769.354 505.187 768.388 505.187C765.902 505.187 764.47 503.075 764.47 501.233V499.584ZM766.315 501.23C766.315 502.249 767.103 503.485 768.658 503.485C770.054 503.485 771.021 502.359 771.021 501.338V499.584C771.021 498.565 770.054 497.312 768.658 497.312C767.103 497.312 766.315 498.565 766.315 499.584V501.23Z" fill="black"/>
<path d="M776.246 503.108V505.005H774.401V503.108H776.246Z" fill="black"/>
</svg>
