<svg width="850" height="551" viewBox="0 0 850 551" fill="none" xmlns="http://www.w3.org/2000/svg">
<path d="M98.4601 190.001H93.8701V128.891H129.51V137.261H103.14V153.101H126.81V161.471H103.14V181.721H129.51V190.091H98.4601V190.001Z" fill="black"/>
<path d="M133.171 143.741H142.531L155.311 179.111L168.001 143.741H177.361L159.721 190.001H150.811L133.171 143.741Z" fill="black"/>
<path d="M220.17 169.391H187.23V171.011C187.23 176.141 191.28 182.351 199.11 182.351C204.87 182.351 210.54 179.831 210.54 174.881H219.72C219.72 183.071 211.17 190.721 200.37 190.721H197.76C185.25 190.721 177.96 180.281 177.96 171.011V162.731C177.96 153.461 185.79 142.841 198.3 142.841H199.83C205.23 142.841 210.36 145.001 214.05 148.511C220.26 154.451 220.17 160.121 220.17 168.131V169.391ZM187.32 161.651H211.17C211.17 155.351 205.77 151.301 199.74 151.301C192.45 151.301 187.86 156.791 187.32 161.651Z" fill="black"/>
<path d="M258.702 148.061L252.042 154.991C250.062 152.471 247.362 151.301 244.932 151.301C240.522 151.301 236.382 154.901 236.382 161.021V190.001H227.112V143.741H235.482L236.382 148.781V148.871C239.712 145.451 244.482 142.931 249.342 142.841C253.122 142.841 256.722 144.461 258.702 148.061Z" fill="black"/>
<path d="M262.16 143.741H271.43V168.761C271.43 173.891 275.39 180.191 283.22 180.191C290.24 180.191 295.1 173.891 295.1 168.761V143.741H304.37V191.891C304.37 200.441 297.89 208.631 285.38 208.631C273.14 208.631 266.39 200.891 266.03 192.521H275.12C275.48 197.651 280.43 200.171 285.38 200.171C290.51 200.171 295.1 197.471 295.1 191.801V182.801C291.77 186.401 287.18 188.651 281.87 188.651C269.36 188.651 262.16 178.031 262.16 168.761V143.741Z" fill="black"/>
<path d="M111.33 251.841C116.19 251.841 120.96 254.091 124.56 257.691L125.46 252.741H133.83V300.891C133.83 309.441 127.35 317.631 114.84 317.631C102.6 317.631 95.8501 309.891 95.4901 301.521H104.58C104.94 306.651 109.89 309.171 114.84 309.171C119.97 309.171 124.56 306.471 124.56 300.801V291.801C121.23 295.401 116.64 297.651 111.33 297.651C98.8201 297.651 91.6201 287.031 91.6201 277.761V271.731C91.6201 262.461 98.8201 251.841 111.33 251.841ZM100.89 277.761C100.89 282.891 104.85 289.191 112.68 289.191C119.7 289.191 124.56 282.891 124.56 277.761V271.191C124.56 266.061 119.7 260.301 112.68 260.301C104.85 260.301 100.89 266.601 100.89 271.731V277.761Z" fill="black"/>
<path d="M183.805 299.001H174.535V271.731C174.535 266.601 170.485 260.301 162.655 260.301C155.635 260.301 150.865 266.061 150.865 271.191V299.001H141.595V234.561H150.865V257.691C154.465 254.091 159.325 251.841 164.095 251.841C176.605 251.841 183.805 259.221 183.805 271.731V299.001Z" fill="black"/>
<path d="M213.948 299.721H209.538C197.028 299.721 189.738 289.281 189.738 280.011V271.731C189.738 262.461 197.568 251.841 210.078 251.841H213.408C225.918 251.841 233.748 262.461 233.748 271.731V280.011C233.748 289.281 226.458 299.721 213.948 299.721ZM199.008 271.731V280.011C199.008 287.481 205.308 291.351 211.698 291.351C218.088 291.351 224.478 287.481 224.478 280.011V271.731C224.478 264.081 218.088 260.301 211.698 260.301C204.858 260.301 199.008 264.531 199.008 271.731Z" fill="black"/>
<path d="M277.37 265.791H268.19C268.19 261.561 263.69 260.301 259.01 260.301C254.51 260.301 249.83 262.371 249.83 265.611C249.83 274.971 278.36 267.861 278.36 285.501C278.36 294.771 268.64 299.901 258.92 299.901C249.29 299.901 239.66 294.771 239.66 284.151H248.84C248.84 289.191 253.97 291.351 259.01 291.351C264.05 291.351 269.09 289.281 269.09 285.501C269.09 276.681 240.56 283.071 240.56 265.791C240.56 257.061 249.47 251.931 258.65 251.931C267.92 251.931 277.37 254.811 277.37 265.791Z" fill="black"/>
<path d="M313.108 290.811L312.028 299.631C311.038 299.901 307.258 299.901 306.178 299.901C295.828 299.901 291.688 294.591 291.688 283.611V260.571H282.508V254.991C288.538 254.991 294.928 252.291 294.928 241.671H300.958V252.741H312.388V260.571H300.958V283.431C300.958 289.281 303.208 290.811 308.068 290.811H313.108Z" fill="black"/>
<path d="M359.477 278.391H326.537V280.011C326.537 285.141 330.587 291.351 338.417 291.351C344.177 291.351 349.847 288.831 349.847 283.881H359.027C359.027 292.071 350.477 299.721 339.677 299.721H337.067C324.557 299.721 317.267 289.281 317.267 280.011V271.731C317.267 262.461 325.097 251.841 337.607 251.841H339.137C344.537 251.841 349.667 254.001 353.357 257.511C359.567 263.451 359.477 269.121 359.477 277.131V278.391ZM326.627 270.651H350.477C350.477 264.351 345.077 260.301 339.047 260.301C331.757 260.301 327.167 265.791 326.627 270.651Z" fill="black"/>
<path d="M383.879 299.901C371.369 299.901 364.169 289.281 364.169 280.011V271.731C364.169 262.461 371.369 251.841 383.879 251.841C389.189 251.841 393.779 254.091 397.109 257.601V234.561H406.379V299.001H398.009L397.109 294.051C393.509 297.561 388.739 299.901 383.879 299.901ZM373.439 271.731V280.011C373.439 285.141 377.399 291.351 385.229 291.351C392.249 291.351 397.109 285.681 397.109 280.551V271.731C397.109 266.601 392.249 260.301 385.229 260.301C377.399 260.301 373.439 266.601 373.439 271.731Z" fill="black"/>
<path d="M473.454 265.791H464.274C464.274 261.561 459.774 260.301 455.094 260.301C450.594 260.301 445.914 262.371 445.914 265.611C445.914 274.971 474.444 267.861 474.444 285.501C474.444 294.771 464.724 299.901 455.004 299.901C445.374 299.901 435.744 294.771 435.744 284.151H444.924C444.924 289.191 450.054 291.351 455.094 291.351C460.134 291.351 465.174 289.281 465.174 285.501C465.174 276.681 436.644 283.071 436.644 265.791C436.644 257.061 445.554 251.931 454.734 251.931C464.004 251.931 473.454 254.811 473.454 265.791Z" fill="black"/>
<path d="M481.292 252.741H490.562V280.011C490.562 285.141 494.612 291.351 502.352 291.351C509.462 291.351 514.232 285.681 514.232 280.551V252.741H523.502V299.001H515.132L514.232 293.961C510.632 297.651 505.772 299.901 500.912 299.901C488.402 299.901 481.292 292.521 481.292 280.011V252.741Z" fill="black"/>
<path d="M553.624 251.841C566.134 251.841 573.424 262.461 573.424 271.731V280.011C573.424 289.281 566.134 299.901 553.624 299.901C548.404 299.901 543.814 297.651 540.484 294.141V317.181H531.214V252.741H539.584L540.484 257.601C544.084 254.091 548.854 251.841 553.624 251.841ZM564.154 280.011V271.731C564.154 266.601 560.104 260.301 552.274 260.301C545.254 260.301 540.484 266.061 540.484 271.191V280.011C540.484 285.141 545.254 291.351 552.274 291.351C560.104 291.351 564.154 285.141 564.154 280.011Z" fill="black"/>
<path d="M601.788 251.841C614.298 251.841 621.588 262.461 621.588 271.731V280.011C621.588 289.281 614.298 299.901 601.788 299.901C596.568 299.901 591.978 297.651 588.648 294.141V317.181H579.378V252.741H587.748L588.648 257.601C592.248 254.091 597.018 251.841 601.788 251.841ZM612.318 280.011V271.731C612.318 266.601 608.268 260.301 600.438 260.301C593.418 260.301 588.648 266.061 588.648 271.191V280.011C588.648 285.141 593.418 291.351 600.438 291.351C608.268 291.351 612.318 285.141 612.318 280.011Z" fill="black"/>
<path d="M627.542 299.001V234.561H636.812V299.001H627.542Z" fill="black"/>
<path d="M644.683 252.741H653.953V299.001H644.683V252.741ZM644.593 234.651H653.953V244.191H644.593V234.651Z" fill="black"/>
<path d="M703.041 278.391H670.101V280.011C670.101 285.141 674.151 291.351 681.981 291.351C687.741 291.351 693.411 288.831 693.411 283.881H702.591C702.591 292.071 694.041 299.721 683.241 299.721H680.631C668.121 299.721 660.831 289.281 660.831 280.011V271.731C660.831 262.461 668.661 251.841 681.171 251.841H682.701C688.101 251.841 693.231 254.001 696.921 257.511C703.131 263.451 703.041 269.121 703.041 277.131V278.391ZM670.191 270.651H694.041C694.041 264.351 688.641 260.301 682.611 260.301C675.321 260.301 670.731 265.791 670.191 270.651Z" fill="black"/>
<path d="M741.573 257.061L734.913 263.991C732.933 261.471 730.233 260.301 727.803 260.301C723.393 260.301 719.253 263.901 719.253 270.021V299.001H709.983V252.741H718.353L719.253 257.781V257.871C722.583 254.451 727.353 251.931 732.213 251.841C735.993 251.841 739.593 253.461 741.573 257.061Z" fill="black"/>
<path d="M745.931 289.461H755.201V299.001H745.931V289.461Z" fill="black"/>
<path d="M137.52 408.001H128.25L124.83 391.801C123.48 385.591 120.87 384.421 116.82 384.421H103.14V408.001H93.8701V346.891H118.62C128.61 346.891 136.98 354.181 136.98 364.441C136.98 371.821 133.11 377.401 125.46 380.191C130.59 381.811 133.29 386.221 133.92 389.551L137.52 408.001ZM116.37 355.261H103.14V376.141H116.37C123.84 376.141 127.71 370.921 127.71 365.701C127.71 360.481 124.02 355.261 116.37 355.261Z" fill="black"/>
<path d="M183.872 387.391H150.932V389.011C150.932 394.141 154.982 400.351 162.812 400.351C168.572 400.351 174.242 397.831 174.242 392.881H183.422C183.422 401.071 174.872 408.721 164.072 408.721H161.462C148.952 408.721 141.662 398.281 141.662 389.011V380.731C141.662 371.461 149.492 360.841 162.002 360.841H163.532C168.932 360.841 174.062 363.001 177.752 366.511C183.962 372.451 183.872 378.121 183.872 386.131V387.391ZM151.022 379.651H174.872C174.872 373.351 169.472 369.301 163.442 369.301C156.152 369.301 151.562 374.791 151.022 379.651Z" fill="black"/>
<path d="M213.223 360.841C225.733 360.841 233.023 371.461 233.023 380.731V389.011C233.023 398.281 225.733 408.901 213.223 408.901C208.003 408.901 203.413 406.651 200.083 403.141V426.181H190.813V361.741H199.183L200.083 366.601C203.683 363.091 208.453 360.841 213.223 360.841ZM223.753 389.011V380.731C223.753 375.601 219.703 369.301 211.873 369.301C204.853 369.301 200.083 375.061 200.083 380.191V389.011C200.083 394.141 204.853 400.351 211.873 400.351C219.703 400.351 223.753 394.141 223.753 389.011Z" fill="black"/>
<path d="M238.978 408.001V343.561H248.248V408.001H238.978Z" fill="black"/>
<path d="M285.638 387.661H271.508C266.288 387.661 263.498 390.721 263.408 393.871C263.318 397.291 266.288 400.801 272.948 400.801C278.798 400.801 285.638 396.391 285.638 388.651V387.661ZM275.378 360.841C287.888 360.841 294.638 369.031 294.638 377.581V408.001H286.538L285.638 403.141V403.051C282.218 406.381 277.358 408.901 270.788 408.901C262.418 408.901 254.228 404.131 254.228 394.861C254.228 387.751 260.168 380.461 271.958 380.461H285.638V377.671C285.638 372.001 280.508 369.301 275.378 369.301C270.428 369.301 265.478 371.821 265.028 376.951H256.028C256.388 368.581 263.138 360.841 275.378 360.841Z" fill="black"/>
<path d="M309.838 380.731V388.921C309.838 396.841 316.138 400.351 322.168 400.351C327.658 400.351 332.878 397.471 332.878 392.341H342.148C342.148 403.771 332.968 408.811 322.528 408.811C311.728 408.811 300.568 402.691 300.568 388.921V380.731C300.568 366.871 311.728 360.751 322.438 360.751C332.968 360.751 342.058 365.791 342.058 377.311H332.788C332.788 372.271 327.568 369.391 322.168 369.391C316.138 369.391 309.838 372.811 309.838 380.731Z" fill="black"/>
<path d="M390.327 387.391H357.387V389.011C357.387 394.141 361.437 400.351 369.267 400.351C375.027 400.351 380.697 397.831 380.697 392.881H389.877C389.877 401.071 381.327 408.721 370.527 408.721H367.917C355.407 408.721 348.117 398.281 348.117 389.011V380.731C348.117 371.461 355.947 360.841 368.457 360.841H369.987C375.387 360.841 380.517 363.001 384.207 366.511C390.417 372.451 390.327 378.121 390.327 386.131V387.391ZM357.477 379.651H381.327C381.327 373.351 375.927 369.301 369.897 369.301C362.607 369.301 358.017 374.791 357.477 379.651Z" fill="black"/>
<path d="M414.729 408.901C402.219 408.901 395.019 398.281 395.019 389.011V380.731C395.019 371.461 402.219 360.841 414.729 360.841C420.039 360.841 424.629 363.091 427.959 366.601V343.561H437.229V408.001H428.859L427.959 403.051C424.359 406.561 419.589 408.901 414.729 408.901ZM404.289 380.731V389.011C404.289 394.141 408.249 400.351 416.079 400.351C423.099 400.351 427.959 394.681 427.959 389.551V380.731C427.959 375.601 423.099 369.301 416.079 369.301C408.249 369.301 404.289 375.601 404.289 380.731Z" fill="black"/>
<path d="M444.993 398.461H454.263V408.001H444.993V398.461Z" fill="black"/>
<path d="M614.441 472.207C618.395 472.207 621.557 469.603 621.557 465.555C621.557 462.207 619.091 458.904 614.441 458.904H608.303V470.765H603.51V454.579H615.602C622.114 454.579 626.348 459.323 626.348 465.649C626.348 471.185 622.765 476.535 615.602 476.535H611.694C609.833 476.535 608.3 478.07 608.3 479.929V486.16H603.51V480.345C603.51 475.835 607.138 472.207 611.649 472.207H614.441Z" fill="#C71617"/>
<path d="M638.395 486.531C631.929 486.531 628.164 481.136 628.164 476.346V472.067C628.164 467.277 632.209 461.787 638.674 461.787H640.396C646.862 461.787 650.907 467.277 650.907 472.067V476.346C650.907 481.136 647.138 486.531 640.676 486.531H638.395ZM632.954 476.346C632.954 480.205 636.208 482.206 639.511 482.206C642.814 482.206 646.117 480.205 646.117 476.346V472.067C646.117 468.113 642.814 466.16 639.511 466.16C635.977 466.16 632.954 468.347 632.954 472.067V476.346Z" fill="black"/>
<path d="M668.3 486.486C667.789 486.626 665.833 486.626 665.277 486.626C659.927 486.626 657.789 483.882 657.789 478.207V466.3H653.045V463.417C656.162 463.417 659.462 462.021 659.462 456.535H662.579V462.255H668.485V466.3H662.579V478.113C662.579 481.136 663.741 481.927 666.253 481.927H668.856L668.297 486.486H668.3Z" fill="black"/>
<path d="M708.16 461.787C714.532 461.787 718.206 465.695 718.206 472.067V486.16H713.416V472.067C713.416 469.414 711.369 466.16 707.324 466.16C704.07 466.16 701.974 467.973 700.207 470.485C700.067 470.716 699.927 470.905 699.787 471.136C695.834 477.182 693.321 486.626 682.765 486.626C677.741 486.626 670.998 483.277 670.998 476.44V472.161C670.998 467.371 675.043 461.881 681.509 461.881H682.3C685.092 461.881 687.74 462.997 689.647 464.81C692.856 467.879 692.81 470.811 692.81 474.95V475.601H675.788C675.788 479.183 678.16 482.252 683.185 482.252C690.393 482.252 693.37 476.811 696.393 471.556V462.252H700.718L701.183 464.764C701.743 464.208 702.394 463.694 703.136 463.277L703.181 463.232C704.577 462.395 706.204 461.881 708.157 461.79L708.16 461.787ZM688.16 471.507C688.16 468.25 685.463 466.157 682.345 466.157C678.577 466.157 676.065 468.995 675.834 471.507H688.16ZM701.183 472.997V486.16H696.393V481.416L701.183 472.997Z" fill="black"/>
<path d="M735.602 486.486C735.091 486.626 733.135 486.626 732.579 486.626C727.229 486.626 725.091 483.882 725.091 478.207V466.3H720.347V463.417C723.464 463.417 726.764 462.021 726.764 456.535H729.881V462.255H735.787V466.3H729.881V478.113C729.881 481.136 731.043 481.927 733.555 481.927H736.158L735.599 486.486H735.602Z" fill="black"/>
<path d="M743.6 452.903V457.833H738.765V452.903H743.6ZM743.6 462.252V486.16H738.81V462.252H743.6Z" fill="black"/>
<path d="M762.855 483.648C761.134 485.369 758.576 486.626 755.182 486.626C750.298 486.626 746.578 483.697 746.578 479.418C746.578 474.582 750.812 471.93 755.787 471.93H758.16C759.835 471.93 763.275 471.094 763.275 468.952C763.275 467.14 760.903 466.16 758.345 466.16C755.416 466.16 752.299 467.416 752.299 470.069H747.509C747.509 464.488 752.859 461.79 758.16 461.79C763.184 461.79 768.205 464.257 768.205 469.187C768.205 474.117 762.624 475.653 758.765 475.653H755.602C753.789 475.653 751.417 476.723 751.417 478.907C751.417 481.419 754.486 482.35 756.347 482.35C759.09 482.35 763.418 480.488 763.789 477.094H767.557V486.163H763.324L762.859 483.651L762.855 483.648Z" fill="black"/>
<path d="M771.089 452.857H775.879V486.16H771.089V452.857Z" fill="black"/>
<path d="M603.143 505.005V492.854H610.23V494.517H604.984V497.667H609.69V499.33H604.984V503.355H610.227V505.018H604.054V504.998H603.143V505.005Z" fill="black"/>
<path d="M612.824 495.806L615.365 502.838L617.887 495.806H619.749L616.241 505.005H614.47L610.962 495.806H612.824Z" fill="black"/>
<path d="M621.72 500.908V501.23C621.72 502.249 622.524 503.485 624.083 503.485C625.228 503.485 626.354 502.984 626.354 502.001H628.18C628.18 503.628 626.481 505.151 624.333 505.151H623.816C621.33 505.151 619.878 503.075 619.878 501.233V499.587C619.878 497.745 621.434 495.633 623.923 495.633H624.226C625.3 495.633 626.318 496.063 627.054 496.759C628.287 497.94 628.271 499.066 628.271 500.661V500.911H621.72V500.908ZM626.481 499.369C626.481 498.116 625.407 497.312 624.21 497.312C622.762 497.312 621.847 498.402 621.74 499.369H626.481Z" fill="black"/>
<path d="M634.606 498.044C634.213 497.543 633.676 497.312 633.194 497.312C632.319 497.312 631.496 498.028 631.496 499.245V505.008H629.654V495.809H631.317L631.496 496.811V496.827C632.156 496.147 633.106 495.646 634.073 495.63C634.825 495.63 635.54 495.952 635.934 496.668L634.61 498.044H634.606Z" fill="black"/>
<path d="M638.453 495.806V500.781C638.453 501.8 639.241 503.052 640.796 503.052C642.192 503.052 643.159 501.8 643.159 500.781V495.806H645V505.379C645 507.078 643.712 508.708 641.226 508.708C638.739 508.708 637.451 507.169 637.379 505.506H639.185C639.257 506.525 640.24 507.026 641.226 507.026C642.212 507.026 643.159 506.489 643.159 505.363V503.573C642.498 504.289 641.584 504.735 640.529 504.735C638.043 504.735 636.611 502.623 636.611 500.781V495.806H638.453Z" fill="black"/>
<path d="M656.513 498.402C656.513 497.563 655.618 497.312 654.688 497.312C653.757 497.312 652.862 497.725 652.862 498.367C652.862 500.228 658.534 498.816 658.534 502.32C658.534 504.162 656.601 505.184 654.668 505.184C652.735 505.184 650.838 504.165 650.838 502.053H652.664C652.664 503.056 653.682 503.485 654.685 503.485C655.687 503.485 656.689 503.072 656.689 502.324C656.689 500.57 651.017 501.842 651.017 498.406C651.017 496.671 652.787 495.649 654.613 495.649C656.438 495.649 658.336 496.222 658.336 498.406H656.51L656.513 498.402Z" fill="black"/>
<path d="M668.287 499.584V501.23C668.287 503.072 666.839 505.184 664.35 505.184C663.312 505.184 662.401 504.738 661.737 504.038V508.62H659.895V495.809H661.558L661.737 496.775C662.453 496.079 663.4 495.63 664.35 495.63C666.836 495.63 668.287 497.742 668.287 499.584ZM666.445 499.584C666.445 498.565 665.642 497.312 664.083 497.312C662.687 497.312 661.74 498.458 661.74 499.476V501.23C661.74 502.249 662.687 503.485 664.083 503.485C665.638 503.485 666.445 502.252 666.445 501.23V499.584Z" fill="black"/>
<path d="M677.148 498.956V505.005H675.538L675.359 504.038V504.022C674.679 504.683 673.712 505.184 672.407 505.184C670.744 505.184 669.114 504.237 669.114 502.392C669.114 500.98 670.295 499.528 672.638 499.528H675.359V498.972C675.359 497.846 674.34 497.309 673.318 497.309C672.296 497.309 671.35 497.81 671.262 498.829H669.472C669.544 497.166 670.884 495.627 673.318 495.627C675.752 495.627 677.148 497.254 677.148 498.956ZM672.55 500.96C671.512 500.96 670.959 501.569 670.94 502.193C670.92 502.874 671.512 503.57 672.837 503.57C673.998 503.57 675.359 502.695 675.359 501.155V500.96H672.55Z" fill="black"/>
<path d="M680.174 501.211C680.174 502.786 681.427 503.482 682.625 503.482C683.715 503.482 684.753 502.909 684.753 501.891H686.595C686.595 504.162 684.769 505.164 682.693 505.164C680.617 505.164 678.326 503.947 678.326 501.211V499.584C678.326 496.827 680.545 495.61 682.673 495.61C684.802 495.61 686.575 496.613 686.575 498.903H684.733C684.733 497.901 683.695 497.328 682.621 497.328C681.424 497.328 680.171 498.009 680.171 499.584V501.211H680.174Z" fill="black"/>
<path d="M689.625 500.908V501.23C689.625 502.249 690.428 503.485 691.987 503.485C693.133 503.485 694.258 502.984 694.258 502.001H696.084C696.084 503.628 694.385 505.151 692.238 505.151H691.717C689.231 505.151 687.779 503.075 687.779 501.233V499.587C687.779 497.745 689.335 495.633 691.824 495.633H692.13C693.204 495.633 694.223 496.063 694.958 496.759C696.191 497.94 696.175 499.066 696.175 500.661V500.911H689.625V500.908ZM694.382 499.369C694.382 498.116 693.308 497.312 692.111 497.312C690.659 497.312 689.748 498.402 689.641 499.369H694.382Z" fill="black"/>
<path d="M698.538 503.108V505.005H696.696V503.108H698.538Z" fill="black"/>
<path d="M704.551 505.005V492.854H708.667C712.049 492.854 713.122 495.288 713.122 497.846V499.974C713.122 502.532 712.049 505.002 708.667 505.002H704.551V505.005ZM711.277 497.846C711.277 496.111 710.848 494.501 708.397 494.501H706.393V503.306H708.397C710.851 503.306 711.277 501.715 711.277 499.977V497.846Z" fill="black"/>
<path d="M716.149 500.908V501.23C716.149 502.249 716.953 503.485 718.511 503.485C719.657 503.485 720.783 502.984 720.783 502.001H722.608C722.608 503.628 720.91 505.151 718.762 505.151H718.245C715.758 505.151 714.307 503.075 714.307 501.233V499.587C714.307 497.745 715.863 495.633 718.352 495.633H718.655C719.728 495.633 720.747 496.063 721.482 496.759C722.716 497.94 722.699 499.066 722.699 500.661V500.911H716.149V500.908ZM720.906 499.369C720.906 498.116 719.833 497.312 718.635 497.312C717.187 497.312 716.272 498.402 716.165 499.369H720.906Z" fill="black"/>
<path d="M724.076 492.193H725.918V505.008H724.076V492.193Z" fill="black"/>
<path d="M729.318 492.21V494.107H727.457V492.21H729.318ZM729.318 495.806V505.005H727.477V495.806H729.318Z" fill="black"/>
<path d="M732.094 495.806L734.636 502.838L737.157 495.806H739.019L735.511 505.005H733.741L730.233 495.806H732.094Z" fill="black"/>
<path d="M740.988 500.908V501.23C740.988 502.249 741.795 503.485 743.35 503.485C744.496 503.485 745.621 502.984 745.621 502.001H747.447C747.447 503.628 745.748 505.151 743.601 505.151H743.083C740.597 505.151 739.146 503.075 739.146 501.233V499.587C739.146 497.745 740.705 495.633 743.191 495.633H743.493C744.567 495.633 745.586 496.063 746.321 496.759C747.554 497.94 747.538 499.066 747.538 500.661V500.911H740.988V500.908ZM745.748 499.369C745.748 498.116 744.675 497.312 743.477 497.312C742.029 497.312 741.115 498.402 741.007 499.369H745.748Z" fill="black"/>
<path d="M753.874 498.044C753.481 497.543 752.944 497.312 752.462 497.312C751.587 497.312 750.763 498.028 750.763 499.245V505.008H748.918V495.809H750.584L750.763 496.811V496.827C751.424 496.147 752.374 495.646 753.341 495.63C754.092 495.63 754.808 495.952 755.202 496.668L753.878 498.044H753.874Z" fill="black"/>
<path d="M756.988 500.908V501.23C756.988 502.249 757.795 503.485 759.351 503.485C760.496 503.485 761.622 502.984 761.622 502.001H763.448C763.448 503.628 761.749 505.151 759.601 505.151H759.084C756.598 505.151 755.146 503.075 755.146 501.233V499.587C755.146 497.745 756.705 495.633 759.191 495.633H759.494C760.568 495.633 761.586 496.063 762.322 496.759C763.555 497.94 763.539 499.066 763.539 500.661V500.911H756.988V500.908ZM761.749 499.369C761.749 498.116 760.675 497.312 759.478 497.312C758.03 497.312 757.115 498.402 757.008 499.369H761.749Z" fill="black"/>
<path d="M764.47 499.584C764.47 497.742 765.902 495.63 768.388 495.63C769.446 495.63 770.357 496.079 771.017 496.775V492.193H772.859V505.008H771.196L771.017 504.025C770.301 504.722 769.354 505.187 768.388 505.187C765.902 505.187 764.47 503.075 764.47 501.233V499.584ZM766.315 501.23C766.315 502.249 767.103 503.485 768.658 503.485C770.054 503.485 771.021 502.359 771.021 501.338V499.584C771.021 498.565 770.054 497.312 768.658 497.312C767.103 497.312 766.315 498.565 766.315 499.584V501.23Z" fill="black"/>
<path d="M776.246 503.108V505.005H774.401V503.108H776.246Z" fill="black"/>
</svg>
