<svg width="850" height="551" viewBox="0 0 850 551" fill="none" xmlns="http://www.w3.org/2000/svg">
<path d="M101.569 244H96.9795V182.89H132.619V191.26H106.249V207.1H129.919V215.47H106.249V235.72H132.619V244.09H101.569V244Z" fill="black"/>
<path d="M136.281 197.74H145.641L158.421 233.11L171.111 197.74H180.471L162.831 244H153.921L136.281 197.74Z" fill="black"/>
<path d="M223.28 223.39H190.34V225.01C190.34 230.14 194.39 236.35 202.22 236.35C207.98 236.35 213.65 233.83 213.65 228.88H222.83C222.83 237.07 214.28 244.72 203.48 244.72H200.87C188.36 244.72 181.07 234.28 181.07 225.01V216.73C181.07 207.46 188.9 196.84 201.41 196.84H202.94C208.34 196.84 213.47 199 217.16 202.51C223.37 208.45 223.28 214.12 223.28 222.13V223.39ZM190.43 215.65H214.28C214.28 209.35 208.88 205.3 202.85 205.3C195.56 205.3 190.97 210.79 190.43 215.65Z" fill="black"/>
<path d="M261.812 202.06L255.152 208.99C253.172 206.47 250.472 205.3 248.042 205.3C243.632 205.3 239.492 208.9 239.492 215.02V244H230.222V197.74H238.592L239.492 202.78V202.87C242.822 199.45 247.592 196.93 252.452 196.84C256.232 196.84 259.832 198.46 261.812 202.06Z" fill="black"/>
<path d="M265.269 197.74H274.539V222.76C274.539 227.89 278.499 234.19 286.329 234.19C293.349 234.19 298.209 227.89 298.209 222.76V197.74H307.479V245.89C307.479 254.44 300.999 262.63 288.489 262.63C276.249 262.63 269.499 254.89 269.139 246.52H278.229C278.589 251.65 283.539 254.17 288.489 254.17C293.619 254.17 298.209 251.47 298.209 245.8V236.8C294.879 240.4 290.289 242.65 284.979 242.65C272.469 242.65 265.269 232.03 265.269 222.76V197.74Z" fill="black"/>
<path d="M360.122 196.84C372.632 196.84 379.922 207.46 379.922 216.73V225.01C379.922 234.28 372.632 244.9 360.122 244.9C354.902 244.9 350.312 242.65 346.982 239.14V262.18H337.712V197.74H346.082L346.982 202.6C350.582 199.09 355.352 196.84 360.122 196.84ZM370.652 225.01V216.73C370.652 211.6 366.602 205.3 358.772 205.3C351.752 205.3 346.982 211.06 346.982 216.19V225.01C346.982 230.14 351.752 236.35 358.772 236.35C366.602 236.35 370.652 230.14 370.652 225.01Z" fill="black"/>
<path d="M417.466 202.06L410.806 208.99C408.826 206.47 406.126 205.3 403.696 205.3C399.286 205.3 395.146 208.9 395.146 215.02V244H385.876V197.74H394.246L395.146 202.78V202.87C398.476 199.45 403.246 196.93 408.106 196.84C411.886 196.84 415.486 198.46 417.466 202.06Z" fill="black"/>
<path d="M441.442 244.72H437.032C424.522 244.72 417.232 234.28 417.232 225.01V216.73C417.232 207.46 425.062 196.84 437.572 196.84H440.902C453.412 196.84 461.242 207.46 461.242 216.73V225.01C461.242 234.28 453.952 244.72 441.442 244.72ZM426.502 216.73V225.01C426.502 232.48 432.802 236.35 439.192 236.35C445.582 236.35 451.972 232.48 451.972 225.01V216.73C451.972 209.08 445.582 205.3 439.192 205.3C432.352 205.3 426.502 209.53 426.502 216.73Z" fill="black"/>
<path d="M506.844 244H497.574V216.73C497.574 209.17 492.354 205.3 487.224 205.3C482.184 205.3 477.324 208.99 477.324 216.19V244H468.054V197.74H475.794L477.324 203.14C480.744 199 485.784 196.84 490.644 196.84C496.314 196.84 501.894 199.72 504.774 206.11C508.104 200.08 514.224 196.84 520.164 196.84C528.354 196.84 536.274 203.05 536.274 216.73V244H527.004V216.73C527.004 209.08 521.874 205.3 516.834 205.3C511.884 205.3 506.844 208.9 506.844 216.19V244Z" fill="black"/>
<path d="M543.202 197.74H552.472V244H543.202V197.74ZM543.112 179.65H552.472V189.19H543.112V179.65Z" fill="black"/>
<path d="M597.061 210.79H587.881C587.881 206.56 583.381 205.3 578.701 205.3C574.201 205.3 569.521 207.37 569.521 210.61C569.521 219.97 598.051 212.86 598.051 230.5C598.051 239.77 588.331 244.9 578.611 244.9C568.981 244.9 559.351 239.77 559.351 229.15H568.531C568.531 234.19 573.661 236.35 578.701 236.35C583.741 236.35 588.781 234.28 588.781 230.5C588.781 221.68 560.251 228.07 560.251 210.79C560.251 202.06 569.161 196.93 578.341 196.93C587.611 196.93 597.061 199.81 597.061 210.79Z" fill="black"/>
<path d="M646.209 223.39H613.269V225.01C613.269 230.14 617.319 236.35 625.149 236.35C630.909 236.35 636.579 233.83 636.579 228.88H645.759C645.759 237.07 637.209 244.72 626.409 244.72H623.799C611.289 244.72 603.999 234.28 603.999 225.01V216.73C603.999 207.46 611.829 196.84 624.339 196.84H625.869C631.269 196.84 636.399 199 640.089 202.51C646.299 208.45 646.209 214.12 646.209 222.13V223.39ZM613.359 215.65H637.209C637.209 209.35 631.809 205.3 625.779 205.3C618.489 205.3 613.899 210.79 613.359 215.65Z" fill="black"/>
<path d="M648.845 234.46H658.115V244H648.845V234.46Z" fill="black"/>
<path d="M115.609 324.2L106.249 337.52V353H96.9795V291.89H106.249V324.83L128.389 291.89H138.289L121.279 316.19L138.379 353H128.569L115.609 324.2Z" fill="black"/>
<path d="M180.477 332.39H147.537V334.01C147.537 339.14 151.587 345.35 159.417 345.35C165.177 345.35 170.847 342.83 170.847 337.88H180.027C180.027 346.07 171.477 353.72 160.677 353.72H158.067C145.557 353.72 138.267 343.28 138.267 334.01V325.73C138.267 316.46 146.097 305.84 158.607 305.84H160.137C165.537 305.84 170.667 308 174.357 311.51C180.567 317.45 180.477 323.12 180.477 331.13V332.39ZM147.627 324.65H171.477C171.477 318.35 166.077 314.3 160.047 314.3C152.757 314.3 148.167 319.79 147.627 324.65Z" fill="black"/>
<path d="M209.829 305.84C222.339 305.84 229.629 316.46 229.629 325.73V334.01C229.629 343.28 222.339 353.9 209.829 353.9C204.609 353.9 200.019 351.65 196.689 348.14V371.18H187.419V306.74H195.789L196.689 311.6C200.289 308.09 205.059 305.84 209.829 305.84ZM220.359 334.01V325.73C220.359 320.6 216.309 314.3 208.479 314.3C201.459 314.3 196.689 320.06 196.689 325.19V334.01C196.689 339.14 201.459 345.35 208.479 345.35C216.309 345.35 220.359 339.14 220.359 334.01Z" fill="black"/>
<path d="M263.483 344.81L262.403 353.63C261.413 353.9 257.633 353.9 256.553 353.9C246.203 353.9 242.063 348.59 242.063 337.61V314.57H232.883V308.99C238.913 308.99 245.303 306.29 245.303 295.67H251.333V306.74H262.763V314.57H251.333V337.43C251.333 343.28 253.583 344.81 258.443 344.81H263.483Z" fill="black"/>
<path d="M268.542 343.46H277.812V353H268.542V343.46Z" fill="black"/>
<path d="M614.441 472.207C618.395 472.207 621.557 469.603 621.557 465.555C621.557 462.207 619.091 458.904 614.441 458.904H608.303V470.765H603.51V454.579H615.602C622.114 454.579 626.348 459.323 626.348 465.649C626.348 471.185 622.765 476.535 615.602 476.535H611.694C609.833 476.535 608.3 478.07 608.3 479.929V486.16H603.51V480.345C603.51 475.835 607.138 472.207 611.649 472.207H614.441Z" fill="#C71617"/>
<path d="M638.395 486.531C631.929 486.531 628.164 481.136 628.164 476.346V472.067C628.164 467.277 632.209 461.787 638.674 461.787H640.396C646.862 461.787 650.907 467.277 650.907 472.067V476.346C650.907 481.136 647.138 486.531 640.676 486.531H638.395ZM632.954 476.346C632.954 480.205 636.208 482.206 639.511 482.206C642.814 482.206 646.117 480.205 646.117 476.346V472.067C646.117 468.113 642.814 466.16 639.511 466.16C635.977 466.16 632.954 468.347 632.954 472.067V476.346Z" fill="black"/>
<path d="M668.3 486.486C667.789 486.626 665.833 486.626 665.277 486.626C659.927 486.626 657.789 483.882 657.789 478.207V466.3H653.045V463.417C656.162 463.417 659.462 462.021 659.462 456.535H662.579V462.255H668.485V466.3H662.579V478.113C662.579 481.136 663.741 481.927 666.253 481.927H668.856L668.297 486.486H668.3Z" fill="black"/>
<path d="M708.16 461.787C714.532 461.787 718.206 465.695 718.206 472.067V486.16H713.416V472.067C713.416 469.414 711.369 466.16 707.324 466.16C704.07 466.16 701.974 467.973 700.207 470.485C700.067 470.716 699.927 470.905 699.787 471.136C695.834 477.182 693.321 486.626 682.765 486.626C677.741 486.626 670.998 483.277 670.998 476.44V472.161C670.998 467.371 675.043 461.881 681.509 461.881H682.3C685.092 461.881 687.74 462.997 689.647 464.81C692.856 467.879 692.81 470.811 692.81 474.95V475.601H675.788C675.788 479.183 678.16 482.252 683.185 482.252C690.393 482.252 693.37 476.811 696.393 471.556V462.252H700.718L701.183 464.764C701.743 464.208 702.394 463.694 703.136 463.277L703.181 463.232C704.577 462.395 706.204 461.881 708.157 461.79L708.16 461.787ZM688.16 471.507C688.16 468.25 685.463 466.157 682.345 466.157C678.577 466.157 676.065 468.995 675.834 471.507H688.16ZM701.183 472.997V486.16H696.393V481.416L701.183 472.997Z" fill="black"/>
<path d="M735.602 486.486C735.091 486.626 733.135 486.626 732.579 486.626C727.229 486.626 725.091 483.882 725.091 478.207V466.3H720.347V463.417C723.464 463.417 726.764 462.021 726.764 456.535H729.881V462.255H735.787V466.3H729.881V478.113C729.881 481.136 731.043 481.927 733.555 481.927H736.158L735.599 486.486H735.602Z" fill="black"/>
<path d="M743.6 452.903V457.833H738.765V452.903H743.6ZM743.6 462.252V486.16H738.81V462.252H743.6Z" fill="black"/>
<path d="M762.855 483.648C761.134 485.369 758.576 486.626 755.182 486.626C750.298 486.626 746.578 483.697 746.578 479.418C746.578 474.582 750.812 471.93 755.787 471.93H758.16C759.835 471.93 763.275 471.094 763.275 468.952C763.275 467.14 760.903 466.16 758.345 466.16C755.416 466.16 752.299 467.416 752.299 470.069H747.509C747.509 464.488 752.859 461.79 758.16 461.79C763.184 461.79 768.205 464.257 768.205 469.187C768.205 474.117 762.624 475.653 758.765 475.653H755.602C753.789 475.653 751.417 476.723 751.417 478.907C751.417 481.419 754.486 482.35 756.347 482.35C759.09 482.35 763.418 480.488 763.789 477.094H767.557V486.163H763.324L762.859 483.651L762.855 483.648Z" fill="black"/>
<path d="M771.089 452.857H775.879V486.16H771.089V452.857Z" fill="black"/>
<path d="M603.143 505.005V492.854H610.23V494.517H604.984V497.667H609.69V499.33H604.984V503.355H610.227V505.018H604.054V504.998H603.143V505.005Z" fill="black"/>
<path d="M612.824 495.806L615.365 502.838L617.887 495.806H619.749L616.241 505.005H614.47L610.962 495.806H612.824Z" fill="black"/>
<path d="M621.72 500.908V501.23C621.72 502.249 622.524 503.485 624.083 503.485C625.228 503.485 626.354 502.984 626.354 502.001H628.18C628.18 503.628 626.481 505.151 624.333 505.151H623.816C621.33 505.151 619.878 503.075 619.878 501.233V499.587C619.878 497.745 621.434 495.633 623.923 495.633H624.226C625.3 495.633 626.318 496.063 627.054 496.759C628.287 497.94 628.271 499.066 628.271 500.661V500.911H621.72V500.908ZM626.481 499.369C626.481 498.116 625.407 497.312 624.21 497.312C622.762 497.312 621.847 498.402 621.74 499.369H626.481Z" fill="black"/>
<path d="M634.606 498.044C634.213 497.543 633.676 497.312 633.194 497.312C632.319 497.312 631.496 498.028 631.496 499.245V505.008H629.654V495.809H631.317L631.496 496.811V496.827C632.156 496.147 633.106 495.646 634.073 495.63C634.825 495.63 635.54 495.952 635.934 496.668L634.61 498.044H634.606Z" fill="black"/>
<path d="M638.453 495.806V500.781C638.453 501.8 639.241 503.052 640.796 503.052C642.192 503.052 643.159 501.8 643.159 500.781V495.806H645V505.379C645 507.078 643.712 508.708 641.226 508.708C638.739 508.708 637.451 507.169 637.379 505.506H639.185C639.257 506.525 640.24 507.026 641.226 507.026C642.212 507.026 643.159 506.489 643.159 505.363V503.573C642.498 504.289 641.584 504.735 640.529 504.735C638.043 504.735 636.611 502.623 636.611 500.781V495.806H638.453Z" fill="black"/>
<path d="M656.513 498.402C656.513 497.563 655.618 497.312 654.688 497.312C653.757 497.312 652.862 497.725 652.862 498.367C652.862 500.228 658.534 498.816 658.534 502.32C658.534 504.162 656.601 505.184 654.668 505.184C652.735 505.184 650.838 504.165 650.838 502.053H652.664C652.664 503.056 653.682 503.485 654.685 503.485C655.687 503.485 656.689 503.072 656.689 502.324C656.689 500.57 651.017 501.842 651.017 498.406C651.017 496.671 652.787 495.649 654.613 495.649C656.438 495.649 658.336 496.222 658.336 498.406H656.51L656.513 498.402Z" fill="black"/>
<path d="M668.287 499.584V501.23C668.287 503.072 666.839 505.184 664.35 505.184C663.312 505.184 662.401 504.738 661.737 504.038V508.62H659.895V495.809H661.558L661.737 496.775C662.453 496.079 663.4 495.63 664.35 495.63C666.836 495.63 668.287 497.742 668.287 499.584ZM666.445 499.584C666.445 498.565 665.642 497.312 664.083 497.312C662.687 497.312 661.74 498.458 661.74 499.476V501.23C661.74 502.249 662.687 503.485 664.083 503.485C665.638 503.485 666.445 502.252 666.445 501.23V499.584Z" fill="black"/>
<path d="M677.148 498.956V505.005H675.538L675.359 504.038V504.022C674.679 504.683 673.712 505.184 672.407 505.184C670.744 505.184 669.114 504.237 669.114 502.392C669.114 500.98 670.295 499.528 672.638 499.528H675.359V498.972C675.359 497.846 674.34 497.309 673.318 497.309C672.296 497.309 671.35 497.81 671.262 498.829H669.472C669.544 497.166 670.884 495.627 673.318 495.627C675.752 495.627 677.148 497.254 677.148 498.956ZM672.55 500.96C671.512 500.96 670.959 501.569 670.94 502.193C670.92 502.874 671.512 503.57 672.837 503.57C673.998 503.57 675.359 502.695 675.359 501.155V500.96H672.55Z" fill="black"/>
<path d="M680.174 501.211C680.174 502.786 681.427 503.482 682.625 503.482C683.715 503.482 684.753 502.909 684.753 501.891H686.595C686.595 504.162 684.769 505.164 682.693 505.164C680.617 505.164 678.326 503.947 678.326 501.211V499.584C678.326 496.827 680.545 495.61 682.673 495.61C684.802 495.61 686.575 496.613 686.575 498.903H684.733C684.733 497.901 683.695 497.328 682.621 497.328C681.424 497.328 680.171 498.009 680.171 499.584V501.211H680.174Z" fill="black"/>
<path d="M689.625 500.908V501.23C689.625 502.249 690.428 503.485 691.987 503.485C693.133 503.485 694.258 502.984 694.258 502.001H696.084C696.084 503.628 694.385 505.151 692.238 505.151H691.717C689.231 505.151 687.779 503.075 687.779 501.233V499.587C687.779 497.745 689.335 495.633 691.824 495.633H692.13C693.204 495.633 694.223 496.063 694.958 496.759C696.191 497.94 696.175 499.066 696.175 500.661V500.911H689.625V500.908ZM694.382 499.369C694.382 498.116 693.308 497.312 692.111 497.312C690.659 497.312 689.748 498.402 689.641 499.369H694.382Z" fill="black"/>
<path d="M698.538 503.108V505.005H696.696V503.108H698.538Z" fill="black"/>
<path d="M704.551 505.005V492.854H708.667C712.049 492.854 713.122 495.288 713.122 497.846V499.974C713.122 502.532 712.049 505.002 708.667 505.002H704.551V505.005ZM711.277 497.846C711.277 496.111 710.848 494.501 708.397 494.501H706.393V503.306H708.397C710.851 503.306 711.277 501.715 711.277 499.977V497.846Z" fill="black"/>
<path d="M716.149 500.908V501.23C716.149 502.249 716.953 503.485 718.511 503.485C719.657 503.485 720.783 502.984 720.783 502.001H722.608C722.608 503.628 720.91 505.151 718.762 505.151H718.245C715.758 505.151 714.307 503.075 714.307 501.233V499.587C714.307 497.745 715.863 495.633 718.352 495.633H718.655C719.728 495.633 720.747 496.063 721.482 496.759C722.716 497.94 722.699 499.066 722.699 500.661V500.911H716.149V500.908ZM720.906 499.369C720.906 498.116 719.833 497.312 718.635 497.312C717.187 497.312 716.272 498.402 716.165 499.369H720.906Z" fill="black"/>
<path d="M724.076 492.193H725.918V505.008H724.076V492.193Z" fill="black"/>
<path d="M729.318 492.21V494.107H727.457V492.21H729.318ZM729.318 495.806V505.005H727.477V495.806H729.318Z" fill="black"/>
<path d="M732.094 495.806L734.636 502.838L737.157 495.806H739.019L735.511 505.005H733.741L730.233 495.806H732.094Z" fill="black"/>
<path d="M740.988 500.908V501.23C740.988 502.249 741.795 503.485 743.35 503.485C744.496 503.485 745.621 502.984 745.621 502.001H747.447C747.447 503.628 745.748 505.151 743.601 505.151H743.083C740.597 505.151 739.146 503.075 739.146 501.233V499.587C739.146 497.745 740.705 495.633 743.191 495.633H743.493C744.567 495.633 745.586 496.063 746.321 496.759C747.554 497.94 747.538 499.066 747.538 500.661V500.911H740.988V500.908ZM745.748 499.369C745.748 498.116 744.675 497.312 743.477 497.312C742.029 497.312 741.115 498.402 741.007 499.369H745.748Z" fill="black"/>
<path d="M753.874 498.044C753.481 497.543 752.944 497.312 752.462 497.312C751.587 497.312 750.763 498.028 750.763 499.245V505.008H748.918V495.809H750.584L750.763 496.811V496.827C751.424 496.147 752.374 495.646 753.341 495.63C754.092 495.63 754.808 495.952 755.202 496.668L753.878 498.044H753.874Z" fill="black"/>
<path d="M756.988 500.908V501.23C756.988 502.249 757.795 503.485 759.351 503.485C760.496 503.485 761.622 502.984 761.622 502.001H763.448C763.448 503.628 761.749 505.151 759.601 505.151H759.084C756.598 505.151 755.146 503.075 755.146 501.233V499.587C755.146 497.745 756.705 495.633 759.191 495.633H759.494C760.568 495.633 761.586 496.063 762.322 496.759C763.555 497.94 763.539 499.066 763.539 500.661V500.911H756.988V500.908ZM761.749 499.369C761.749 498.116 760.675 497.312 759.478 497.312C758.03 497.312 757.115 498.402 757.008 499.369H761.749Z" fill="black"/>
<path d="M764.47 499.584C764.47 497.742 765.902 495.63 768.388 495.63C769.446 495.63 770.357 496.079 771.017 496.775V492.193H772.859V505.008H771.196L771.017 504.025C770.301 504.722 769.354 505.187 768.388 505.187C765.902 505.187 764.47 503.075 764.47 501.233V499.584ZM766.315 501.23C766.315 502.249 767.103 503.485 768.658 503.485C770.054 503.485 771.021 502.359 771.021 501.338V499.584C771.021 498.565 770.054 497.312 768.658 497.312C767.103 497.312 766.315 498.565 766.315 499.584V501.23Z" fill="black"/>
<path d="M776.246 503.108V505.005H774.401V503.108H776.246Z" fill="black"/>
</svg>
