<svg width="850" height="551" viewBox="0 0 850 551" fill="none" xmlns="http://www.w3.org/2000/svg">
<path d="M101.46 244.001H96.8701V182.891H132.51V191.261H106.14V207.101H129.81V215.471H106.14V235.721H132.51V244.091H101.46V244.001Z" fill="black"/>
<path d="M136.171 197.741H145.531L158.311 233.111L171.001 197.741H180.361L162.721 244.001H153.811L136.171 197.741Z" fill="black"/>
<path d="M223.17 223.391H190.23V225.011C190.23 230.141 194.28 236.351 202.11 236.351C207.87 236.351 213.54 233.831 213.54 228.881H222.72C222.72 237.071 214.17 244.721 203.37 244.721H200.76C188.25 244.721 180.96 234.281 180.96 225.011V216.731C180.96 207.461 188.79 196.841 201.3 196.841H202.83C208.23 196.841 213.36 199.001 217.05 202.511C223.26 208.451 223.17 214.121 223.17 222.131V223.391ZM190.32 215.651H214.17C214.17 209.351 208.77 205.301 202.74 205.301C195.45 205.301 190.86 210.791 190.32 215.651Z" fill="black"/>
<path d="M261.702 202.061L255.042 208.991C253.062 206.471 250.362 205.301 247.932 205.301C243.522 205.301 239.382 208.901 239.382 215.021V244.001H230.112V197.741H238.482L239.382 202.781V202.871C242.712 199.451 247.482 196.931 252.342 196.841C256.122 196.841 259.722 198.461 261.702 202.061Z" fill="black"/>
<path d="M265.16 197.741H274.43V222.761C274.43 227.891 278.39 234.191 286.22 234.191C293.24 234.191 298.1 227.891 298.1 222.761V197.741H307.37V245.891C307.37 254.441 300.89 262.631 288.38 262.631C276.14 262.631 269.39 254.891 269.03 246.521H278.12C278.48 251.651 283.43 254.171 288.38 254.171C293.51 254.171 298.1 251.471 298.1 245.801V236.801C294.77 240.401 290.18 242.651 284.87 242.651C272.36 242.651 265.16 232.031 265.16 222.761V197.741Z" fill="black"/>
<path d="M378.913 223.391H345.973V225.011C345.973 230.141 350.023 236.351 357.853 236.351C363.613 236.351 369.283 233.831 369.283 228.881H378.463C378.463 237.071 369.913 244.721 359.113 244.721H356.503C343.993 244.721 336.703 234.281 336.703 225.011V216.731C336.703 207.461 344.533 196.841 357.043 196.841H358.573C363.973 196.841 369.103 199.001 372.793 202.511C379.003 208.451 378.913 214.121 378.913 222.131V223.391ZM346.063 215.651H369.913C369.913 209.351 364.513 205.301 358.483 205.301C351.193 205.301 346.603 210.791 346.063 215.651Z" fill="black"/>
<path d="M383.154 197.741H393.684L404.124 213.581L413.754 197.741H424.284L408.984 220.961L424.194 244.001H413.664L403.224 228.161L393.865 244.001H383.335L398.454 220.961L383.154 197.741Z" fill="black"/>
<path d="M437.73 216.731V224.921C437.73 232.841 444.03 236.351 450.06 236.351C455.55 236.351 460.77 233.471 460.77 228.341H470.04C470.04 239.771 460.86 244.811 450.42 244.811C439.62 244.811 428.46 238.691 428.46 224.921V216.731C428.46 202.871 439.62 196.751 450.33 196.751C460.86 196.751 469.95 201.791 469.95 213.311H460.68C460.68 208.271 455.46 205.391 450.06 205.391C444.03 205.391 437.73 208.811 437.73 216.731Z" fill="black"/>
<path d="M476.909 197.741H486.179V225.011C486.179 230.141 490.229 236.351 497.969 236.351C505.079 236.351 509.849 230.681 509.849 225.551V197.741H519.119V244.001H510.749L509.849 238.961C506.249 242.651 501.389 244.901 496.529 244.901C484.019 244.901 476.909 237.521 476.909 225.011V197.741Z" fill="black"/>
<path d="M563.641 210.791H554.461C554.461 206.561 549.961 205.301 545.281 205.301C540.781 205.301 536.101 207.371 536.101 210.611C536.101 219.971 564.631 212.861 564.631 230.501C564.631 239.771 554.911 244.901 545.191 244.901C535.561 244.901 525.931 239.771 525.931 229.151H535.111C535.111 234.191 540.241 236.351 545.281 236.351C550.321 236.351 555.361 234.281 555.361 230.501C555.361 221.681 526.831 228.071 526.831 210.791C526.831 202.061 535.741 196.931 544.921 196.931C554.191 196.931 563.641 199.811 563.641 210.791Z" fill="black"/>
<path d="M612.789 223.391H579.849V225.011C579.849 230.141 583.899 236.351 591.729 236.351C597.489 236.351 603.159 233.831 603.159 228.881H612.339C612.339 237.071 603.79 244.721 592.99 244.721H590.379C577.869 244.721 570.579 234.281 570.579 225.011V216.731C570.579 207.461 578.409 196.841 590.919 196.841H592.449C597.849 196.841 602.979 199.001 606.669 202.511C612.879 208.451 612.789 214.121 612.789 222.131V223.391ZM579.939 215.651H603.789C603.789 209.351 598.389 205.301 592.359 205.301C585.069 205.301 580.479 210.791 579.939 215.651Z" fill="black"/>
<path d="M615.425 234.461H624.695V244.001H615.425V234.461Z" fill="black"/>
<path d="M101.46 353.001H96.8701V291.891H132.51V300.261H106.14V316.101H129.81V324.471H106.14V344.721H132.51V353.091H101.46V353.001Z" fill="black"/>
<path d="M139.321 353.001V288.561H148.591V353.001H139.321Z" fill="black"/>
<path d="M156.462 306.741H165.732V353.001H156.462V306.741ZM156.372 288.651H165.732V298.191H156.372V288.651Z" fill="black"/>
<path d="M212.301 353.001H203.031V325.731C203.031 318.171 197.811 314.301 192.681 314.301C187.641 314.301 182.781 317.991 182.781 325.191V353.001H173.511V306.741H181.251L182.781 312.141C186.201 308.001 191.241 305.841 196.101 305.841C201.771 305.841 207.351 308.721 210.231 315.111C213.561 309.081 219.681 305.841 225.621 305.841C233.811 305.841 241.731 312.051 241.731 325.731V353.001H232.461V325.731C232.461 318.081 227.331 314.301 222.291 314.301C217.341 314.301 212.301 317.901 212.301 325.191V353.001Z" fill="black"/>
<path d="M248.659 306.741H257.929V353.001H248.659V306.741ZM248.569 288.651H257.929V298.191H248.569V288.651Z" fill="black"/>
<path d="M307.918 353.001H298.648V325.731C298.648 320.601 294.688 314.301 286.858 314.301C279.838 314.301 274.978 320.061 274.978 325.191V353.001H265.708V306.741H274.078L274.978 311.601C278.848 307.821 284.248 305.841 289.558 305.841C298.918 305.841 307.918 311.961 307.918 325.731V353.001Z" fill="black"/>
<path d="M344.361 332.661H330.231C325.011 332.661 322.221 335.721 322.131 338.871C322.041 342.291 325.011 345.801 331.671 345.801C337.521 345.801 344.361 341.391 344.361 333.651V332.661ZM334.101 305.841C346.611 305.841 353.361 314.031 353.361 322.581V353.001H345.261L344.361 348.141V348.051C340.941 351.381 336.081 353.901 329.511 353.901C321.141 353.901 312.951 349.131 312.951 339.861C312.951 332.751 318.891 325.461 330.681 325.461H344.361V322.671C344.361 317.001 339.231 314.301 334.101 314.301C329.151 314.301 324.201 316.821 323.751 321.951H314.751C315.111 313.581 321.861 305.841 334.101 305.841Z" fill="black"/>
<path d="M388.09 344.811L387.01 353.631C386.02 353.901 382.24 353.901 381.16 353.901C370.81 353.901 366.67 348.591 366.67 337.611V314.571H357.49V308.991C363.52 308.991 369.91 306.291 369.91 295.671H375.94V306.741H387.37V314.571H375.94V337.431C375.94 343.281 378.19 344.811 383.05 344.811H388.09Z" fill="black"/>
<path d="M434.459 332.391H401.519V334.011C401.519 339.141 405.569 345.351 413.399 345.351C419.159 345.351 424.829 342.831 424.829 337.881H434.009C434.009 346.071 425.459 353.721 414.659 353.721H412.049C399.539 353.721 392.249 343.281 392.249 334.011V325.731C392.249 316.461 400.079 305.841 412.589 305.841H414.119C419.519 305.841 424.649 308.001 428.339 311.511C434.549 317.451 434.459 323.121 434.459 331.131V332.391ZM401.609 324.651H425.459C425.459 318.351 420.059 314.301 414.029 314.301C406.739 314.301 402.149 319.791 401.609 324.651Z" fill="black"/>
<path d="M458.861 353.901C446.351 353.901 439.151 343.281 439.151 334.011V325.731C439.151 316.461 446.351 305.841 458.861 305.841C464.171 305.841 468.761 308.091 472.091 311.601V288.561H481.361V353.001H472.991L472.091 348.051C468.491 351.561 463.721 353.901 458.861 353.901ZM448.421 325.731V334.011C448.421 339.141 452.381 345.351 460.211 345.351C467.231 345.351 472.091 339.681 472.091 334.551V325.731C472.091 320.601 467.231 314.301 460.211 314.301C452.381 314.301 448.421 320.601 448.421 325.731Z" fill="black"/>
<path d="M489.126 343.461H498.396V353.001H489.126V343.461Z" fill="black"/>
<path d="M614.441 472.207C618.395 472.207 621.557 469.603 621.557 465.555C621.557 462.207 619.091 458.904 614.441 458.904H608.303V470.765H603.51V454.579H615.602C622.114 454.579 626.348 459.323 626.348 465.649C626.348 471.185 622.765 476.535 615.602 476.535H611.694C609.833 476.535 608.3 478.07 608.3 479.929V486.16H603.51V480.345C603.51 475.835 607.138 472.207 611.649 472.207H614.441Z" fill="#C71617"/>
<path d="M638.395 486.531C631.929 486.531 628.164 481.136 628.164 476.346V472.067C628.164 467.277 632.209 461.787 638.674 461.787H640.396C646.862 461.787 650.907 467.277 650.907 472.067V476.346C650.907 481.136 647.138 486.531 640.676 486.531H638.395ZM632.954 476.346C632.954 480.205 636.208 482.206 639.511 482.206C642.814 482.206 646.117 480.205 646.117 476.346V472.067C646.117 468.113 642.814 466.16 639.511 466.16C635.977 466.16 632.954 468.347 632.954 472.067V476.346Z" fill="black"/>
<path d="M668.3 486.486C667.789 486.626 665.833 486.626 665.277 486.626C659.927 486.626 657.789 483.882 657.789 478.207V466.3H653.045V463.417C656.162 463.417 659.462 462.021 659.462 456.535H662.579V462.255H668.485V466.3H662.579V478.113C662.579 481.136 663.741 481.927 666.253 481.927H668.856L668.297 486.486H668.3Z" fill="black"/>
<path d="M708.16 461.787C714.532 461.787 718.206 465.695 718.206 472.067V486.16H713.416V472.067C713.416 469.414 711.369 466.16 707.324 466.16C704.07 466.16 701.974 467.973 700.207 470.485C700.067 470.716 699.927 470.905 699.787 471.136C695.834 477.182 693.321 486.626 682.765 486.626C677.741 486.626 670.998 483.277 670.998 476.44V472.161C670.998 467.371 675.043 461.881 681.509 461.881H682.3C685.092 461.881 687.74 462.997 689.647 464.81C692.856 467.879 692.81 470.811 692.81 474.95V475.601H675.788C675.788 479.183 678.16 482.252 683.185 482.252C690.393 482.252 693.37 476.811 696.393 471.556V462.252H700.718L701.183 464.764C701.743 464.208 702.394 463.694 703.136 463.277L703.181 463.232C704.577 462.395 706.204 461.881 708.157 461.79L708.16 461.787ZM688.16 471.507C688.16 468.25 685.463 466.157 682.345 466.157C678.577 466.157 676.065 468.995 675.834 471.507H688.16ZM701.183 472.997V486.16H696.393V481.416L701.183 472.997Z" fill="black"/>
<path d="M735.602 486.486C735.091 486.626 733.135 486.626 732.579 486.626C727.229 486.626 725.091 483.882 725.091 478.207V466.3H720.347V463.417C723.464 463.417 726.764 462.021 726.764 456.535H729.881V462.255H735.787V466.3H729.881V478.113C729.881 481.136 731.043 481.927 733.555 481.927H736.158L735.599 486.486H735.602Z" fill="black"/>
<path d="M743.6 452.903V457.833H738.765V452.903H743.6ZM743.6 462.252V486.16H738.81V462.252H743.6Z" fill="black"/>
<path d="M762.855 483.648C761.134 485.369 758.576 486.626 755.182 486.626C750.298 486.626 746.578 483.697 746.578 479.418C746.578 474.582 750.812 471.93 755.787 471.93H758.16C759.835 471.93 763.275 471.094 763.275 468.952C763.275 467.14 760.903 466.16 758.345 466.16C755.416 466.16 752.299 467.416 752.299 470.069H747.509C747.509 464.488 752.859 461.79 758.16 461.79C763.184 461.79 768.205 464.257 768.205 469.187C768.205 474.117 762.624 475.653 758.765 475.653H755.602C753.789 475.653 751.417 476.723 751.417 478.907C751.417 481.419 754.486 482.35 756.347 482.35C759.09 482.35 763.418 480.488 763.789 477.094H767.557V486.163H763.324L762.859 483.651L762.855 483.648Z" fill="black"/>
<path d="M771.089 452.857H775.879V486.16H771.089V452.857Z" fill="black"/>
<path d="M603.143 505.005V492.854H610.23V494.517H604.984V497.667H609.69V499.33H604.984V503.355H610.227V505.018H604.054V504.998H603.143V505.005Z" fill="black"/>
<path d="M612.824 495.806L615.365 502.838L617.887 495.806H619.749L616.241 505.005H614.47L610.962 495.806H612.824Z" fill="black"/>
<path d="M621.72 500.908V501.23C621.72 502.249 622.524 503.485 624.083 503.485C625.228 503.485 626.354 502.984 626.354 502.001H628.18C628.18 503.628 626.481 505.151 624.333 505.151H623.816C621.33 505.151 619.878 503.075 619.878 501.233V499.587C619.878 497.745 621.434 495.633 623.923 495.633H624.226C625.3 495.633 626.318 496.063 627.054 496.759C628.287 497.94 628.271 499.066 628.271 500.661V500.911H621.72V500.908ZM626.481 499.369C626.481 498.116 625.407 497.312 624.21 497.312C622.762 497.312 621.847 498.402 621.74 499.369H626.481Z" fill="black"/>
<path d="M634.606 498.044C634.213 497.543 633.676 497.312 633.194 497.312C632.319 497.312 631.496 498.028 631.496 499.245V505.008H629.654V495.809H631.317L631.496 496.811V496.827C632.156 496.147 633.106 495.646 634.073 495.63C634.825 495.63 635.54 495.952 635.934 496.668L634.61 498.044H634.606Z" fill="black"/>
<path d="M638.453 495.806V500.781C638.453 501.8 639.241 503.052 640.796 503.052C642.192 503.052 643.159 501.8 643.159 500.781V495.806H645V505.379C645 507.078 643.712 508.708 641.226 508.708C638.739 508.708 637.451 507.169 637.379 505.506H639.185C639.257 506.525 640.24 507.026 641.226 507.026C642.212 507.026 643.159 506.489 643.159 505.363V503.573C642.498 504.289 641.584 504.735 640.529 504.735C638.043 504.735 636.611 502.623 636.611 500.781V495.806H638.453Z" fill="black"/>
<path d="M656.513 498.402C656.513 497.563 655.618 497.312 654.688 497.312C653.757 497.312 652.862 497.725 652.862 498.367C652.862 500.228 658.534 498.816 658.534 502.32C658.534 504.162 656.601 505.184 654.668 505.184C652.735 505.184 650.838 504.165 650.838 502.053H652.664C652.664 503.056 653.682 503.485 654.685 503.485C655.687 503.485 656.689 503.072 656.689 502.324C656.689 500.57 651.017 501.842 651.017 498.406C651.017 496.671 652.787 495.649 654.613 495.649C656.438 495.649 658.336 496.222 658.336 498.406H656.51L656.513 498.402Z" fill="black"/>
<path d="M668.287 499.584V501.23C668.287 503.072 666.839 505.184 664.35 505.184C663.312 505.184 662.401 504.738 661.737 504.038V508.62H659.895V495.809H661.558L661.737 496.775C662.453 496.079 663.4 495.63 664.35 495.63C666.836 495.63 668.287 497.742 668.287 499.584ZM666.445 499.584C666.445 498.565 665.642 497.312 664.083 497.312C662.687 497.312 661.74 498.458 661.74 499.476V501.23C661.74 502.249 662.687 503.485 664.083 503.485C665.638 503.485 666.445 502.252 666.445 501.23V499.584Z" fill="black"/>
<path d="M677.148 498.956V505.005H675.538L675.359 504.038V504.022C674.679 504.683 673.712 505.184 672.407 505.184C670.744 505.184 669.114 504.237 669.114 502.392C669.114 500.98 670.295 499.528 672.638 499.528H675.359V498.972C675.359 497.846 674.34 497.309 673.318 497.309C672.296 497.309 671.35 497.81 671.262 498.829H669.472C669.544 497.166 670.884 495.627 673.318 495.627C675.752 495.627 677.148 497.254 677.148 498.956ZM672.55 500.96C671.512 500.96 670.959 501.569 670.94 502.193C670.92 502.874 671.512 503.57 672.837 503.57C673.998 503.57 675.359 502.695 675.359 501.155V500.96H672.55Z" fill="black"/>
<path d="M680.174 501.211C680.174 502.786 681.427 503.482 682.625 503.482C683.715 503.482 684.753 502.909 684.753 501.891H686.595C686.595 504.162 684.769 505.164 682.693 505.164C680.617 505.164 678.326 503.947 678.326 501.211V499.584C678.326 496.827 680.545 495.61 682.673 495.61C684.802 495.61 686.575 496.613 686.575 498.903H684.733C684.733 497.901 683.695 497.328 682.621 497.328C681.424 497.328 680.171 498.009 680.171 499.584V501.211H680.174Z" fill="black"/>
<path d="M689.625 500.908V501.23C689.625 502.249 690.428 503.485 691.987 503.485C693.133 503.485 694.258 502.984 694.258 502.001H696.084C696.084 503.628 694.385 505.151 692.238 505.151H691.717C689.231 505.151 687.779 503.075 687.779 501.233V499.587C687.779 497.745 689.335 495.633 691.824 495.633H692.13C693.204 495.633 694.223 496.063 694.958 496.759C696.191 497.94 696.175 499.066 696.175 500.661V500.911H689.625V500.908ZM694.382 499.369C694.382 498.116 693.308 497.312 692.111 497.312C690.659 497.312 689.748 498.402 689.641 499.369H694.382Z" fill="black"/>
<path d="M698.538 503.108V505.005H696.696V503.108H698.538Z" fill="black"/>
<path d="M704.551 505.005V492.854H708.667C712.049 492.854 713.122 495.288 713.122 497.846V499.974C713.122 502.532 712.049 505.002 708.667 505.002H704.551V505.005ZM711.277 497.846C711.277 496.111 710.848 494.501 708.397 494.501H706.393V503.306H708.397C710.851 503.306 711.277 501.715 711.277 499.977V497.846Z" fill="black"/>
<path d="M716.149 500.908V501.23C716.149 502.249 716.953 503.485 718.511 503.485C719.657 503.485 720.783 502.984 720.783 502.001H722.608C722.608 503.628 720.91 505.151 718.762 505.151H718.245C715.758 505.151 714.307 503.075 714.307 501.233V499.587C714.307 497.745 715.863 495.633 718.352 495.633H718.655C719.728 495.633 720.747 496.063 721.482 496.759C722.716 497.94 722.699 499.066 722.699 500.661V500.911H716.149V500.908ZM720.906 499.369C720.906 498.116 719.833 497.312 718.635 497.312C717.187 497.312 716.272 498.402 716.165 499.369H720.906Z" fill="black"/>
<path d="M724.076 492.193H725.918V505.008H724.076V492.193Z" fill="black"/>
<path d="M729.318 492.21V494.107H727.457V492.21H729.318ZM729.318 495.806V505.005H727.477V495.806H729.318Z" fill="black"/>
<path d="M732.094 495.806L734.636 502.838L737.157 495.806H739.019L735.511 505.005H733.741L730.233 495.806H732.094Z" fill="black"/>
<path d="M740.988 500.908V501.23C740.988 502.249 741.795 503.485 743.35 503.485C744.496 503.485 745.621 502.984 745.621 502.001H747.447C747.447 503.628 745.748 505.151 743.601 505.151H743.083C740.597 505.151 739.146 503.075 739.146 501.233V499.587C739.146 497.745 740.705 495.633 743.191 495.633H743.493C744.567 495.633 745.586 496.063 746.321 496.759C747.554 497.94 747.538 499.066 747.538 500.661V500.911H740.988V500.908ZM745.748 499.369C745.748 498.116 744.675 497.312 743.477 497.312C742.029 497.312 741.115 498.402 741.007 499.369H745.748Z" fill="black"/>
<path d="M753.874 498.044C753.481 497.543 752.944 497.312 752.462 497.312C751.587 497.312 750.763 498.028 750.763 499.245V505.008H748.918V495.809H750.584L750.763 496.811V496.827C751.424 496.147 752.374 495.646 753.341 495.63C754.092 495.63 754.808 495.952 755.202 496.668L753.878 498.044H753.874Z" fill="black"/>
<path d="M756.988 500.908V501.23C756.988 502.249 757.795 503.485 759.351 503.485C760.496 503.485 761.622 502.984 761.622 502.001H763.448C763.448 503.628 761.749 505.151 759.601 505.151H759.084C756.598 505.151 755.146 503.075 755.146 501.233V499.587C755.146 497.745 756.705 495.633 759.191 495.633H759.494C760.568 495.633 761.586 496.063 762.322 496.759C763.555 497.94 763.539 499.066 763.539 500.661V500.911H756.988V500.908ZM761.749 499.369C761.749 498.116 760.675 497.312 759.478 497.312C758.03 497.312 757.115 498.402 757.008 499.369H761.749Z" fill="black"/>
<path d="M764.47 499.584C764.47 497.742 765.902 495.63 768.388 495.63C769.446 495.63 770.357 496.079 771.017 496.775V492.193H772.859V505.008H771.196L771.017 504.025C770.301 504.722 769.354 505.187 768.388 505.187C765.902 505.187 764.47 503.075 764.47 501.233V499.584ZM766.315 501.23C766.315 502.249 767.103 503.485 768.658 503.485C770.054 503.485 771.021 502.359 771.021 501.338V499.584C771.021 498.565 770.054 497.312 768.658 497.312C767.103 497.312 766.315 498.565 766.315 499.584V501.23Z" fill="black"/>
<path d="M776.246 503.108V505.005H774.401V503.108H776.246Z" fill="black"/>
</svg>
