<svg width="850" height="551" viewBox="0 0 850 551" fill="none" xmlns="http://www.w3.org/2000/svg">
<path d="M101.46 244.001H96.8698V182.891H132.51V191.261H106.14V207.101H129.81V215.471H106.14V235.721H132.51V244.091H101.46V244.001Z" fill="black"/>
<path d="M136.171 197.741H145.531L158.311 233.111L171.001 197.741H180.361L162.721 244.001H153.811L136.171 197.741Z" fill="black"/>
<path d="M223.17 223.391H190.23V225.011C190.23 230.141 194.28 236.351 202.11 236.351C207.87 236.351 213.54 233.831 213.54 228.881H222.72C222.72 237.071 214.17 244.721 203.37 244.721H200.76C188.25 244.721 180.96 234.281 180.96 225.011V216.731C180.96 207.461 188.79 196.841 201.3 196.841H202.83C208.23 196.841 213.36 199.001 217.05 202.511C223.26 208.451 223.17 214.121 223.17 222.131V223.391ZM190.32 215.651H214.17C214.17 209.351 208.77 205.301 202.74 205.301C195.45 205.301 190.86 210.791 190.32 215.651Z" fill="black"/>
<path d="M261.702 202.061L255.042 208.991C253.062 206.471 250.362 205.301 247.932 205.301C243.522 205.301 239.382 208.901 239.382 215.021V244.001H230.112V197.741H238.482L239.382 202.781V202.871C242.712 199.451 247.482 196.931 252.342 196.841C256.122 196.841 259.722 198.461 261.702 202.061Z" fill="black"/>
<path d="M265.159 197.741H274.429V222.761C274.429 227.891 278.389 234.191 286.219 234.191C293.239 234.191 298.099 227.891 298.099 222.761V197.741H307.369V245.891C307.369 254.441 300.889 262.631 288.379 262.631C276.139 262.631 269.389 254.891 269.029 246.521H278.119C278.479 251.651 283.429 254.171 288.379 254.171C293.509 254.171 298.099 251.471 298.099 245.801V236.801C294.769 240.401 290.179 242.651 284.869 242.651C272.359 242.651 265.159 232.031 265.159 222.761V197.741Z" fill="black"/>
<path d="M341.332 197.201H345.412V205.441H337.172V196.001C337.172 195.681 337.172 195.361 337.252 195.041V194.881C337.252 194.721 337.252 194.561 337.332 194.481C337.412 193.921 337.492 193.441 337.572 193.041C337.572 192.961 337.572 192.801 337.652 192.721C337.892 191.681 338.292 190.721 338.772 189.841C338.852 189.761 338.852 189.681 338.932 189.601C339.012 189.521 339.012 189.441 339.092 189.361C339.172 189.281 339.172 189.281 339.172 189.201C339.332 189.041 339.492 188.881 339.652 188.641C339.732 188.561 339.732 188.561 339.732 188.481C339.812 188.401 339.812 188.401 339.812 188.321L340.052 188.081C340.052 188.001 340.052 188.001 340.132 188.001C340.372 187.761 340.532 187.601 340.772 187.441L341.492 186.881C341.572 186.801 341.732 186.721 341.812 186.641H341.892L341.972 186.561C342.212 186.401 342.532 186.241 342.852 186.081L343.012 185.921H343.172C343.252 185.841 343.332 185.841 343.412 185.761L343.732 185.601H343.892C343.972 185.601 343.972 185.601 343.972 185.521L345.972 188.641L345.332 188.961H345.252C345.172 189.041 345.092 189.041 345.012 189.121H344.932C344.772 189.201 344.612 189.361 344.532 189.441H344.452L344.292 189.601C344.292 189.681 344.292 189.681 344.212 189.681H344.132C344.052 189.681 344.052 189.681 344.052 189.761C343.892 189.841 343.732 190.001 343.652 190.081V190.161C343.572 190.161 343.572 190.161 343.492 190.241V190.321L343.252 190.561C343.252 190.641 343.252 190.641 343.172 190.721C343.172 190.801 343.172 190.801 343.092 190.801L342.932 190.961C342.932 191.041 342.932 191.041 342.852 191.121L342.692 191.281V191.361L342.612 191.441V191.521L342.532 191.601C342.452 191.681 342.452 191.681 342.452 191.761V191.841C342.212 192.321 341.972 192.881 341.812 193.521C341.732 193.601 341.732 193.681 341.732 193.761C341.652 193.921 341.652 194.081 341.652 194.321V194.401C341.492 195.121 341.412 195.921 341.332 196.801V197.201ZM353.652 197.201H357.732V205.441H349.492V197.201C349.492 191.121 351.492 187.521 356.292 185.521L358.292 188.641C355.172 189.921 353.892 192.321 353.652 197.201Z" fill="black"/>
<path d="M365.221 202.881H373.461V244.001H365.221V202.881ZM365.141 186.801H373.461V195.281H365.141V186.801Z" fill="black"/>
<path d="M405.175 236.721L404.215 244.561C403.335 244.801 399.975 244.801 399.015 244.801C389.815 244.801 386.135 240.081 386.135 230.321V209.841H377.975V204.881C383.335 204.881 389.015 202.481 389.015 193.041H394.375V202.881H404.535V209.841H394.375V230.161C394.375 235.361 396.375 236.721 400.695 236.721H405.175Z" fill="black"/>
<path d="M414.312 194.961H410.232V186.721H418.472V194.961C418.472 201.041 416.472 204.641 411.672 206.641L409.672 203.521C412.792 202.241 414.072 199.841 414.312 194.961Z" fill="black"/>
<path d="M458.095 214.481H449.935C449.935 210.721 445.935 209.601 441.775 209.601C437.775 209.601 433.615 211.441 433.615 214.321C433.615 222.641 458.975 216.321 458.975 232.001C458.975 240.241 450.335 244.801 441.695 244.801C433.135 244.801 424.575 240.241 424.575 230.801H432.735C432.735 235.281 437.295 237.201 441.775 237.201C446.255 237.201 450.735 235.361 450.735 232.001C450.735 224.161 425.375 229.841 425.375 214.481C425.375 206.721 433.295 202.161 441.455 202.161C449.695 202.161 458.095 204.721 458.095 214.481Z" fill="black"/>
<path d="M492.503 219.761V227.041C492.503 234.081 498.103 237.201 503.463 237.201C508.343 237.201 512.983 234.641 512.983 230.081H521.223C521.223 240.241 513.063 244.721 503.783 244.721C494.183 244.721 484.263 239.281 484.263 227.041V219.761C484.263 207.441 494.183 202.001 503.703 202.001C513.063 202.001 521.143 206.481 521.143 216.721H512.903C512.903 212.241 508.263 209.681 503.463 209.681C498.103 209.681 492.503 212.721 492.503 219.761Z" fill="black"/>
<path d="M548.048 244.641H544.129C533.009 244.641 526.529 235.361 526.529 227.121V219.761C526.529 211.521 533.488 202.081 544.608 202.081H547.568C558.688 202.081 565.648 211.521 565.648 219.761V227.121C565.648 235.361 559.168 244.641 548.048 244.641ZM534.768 219.761V227.121C534.768 233.761 540.368 237.201 546.048 237.201C551.728 237.201 557.409 233.761 557.409 227.121V219.761C557.409 212.961 551.728 209.601 546.048 209.601C539.968 209.601 534.768 213.361 534.768 219.761Z" fill="black"/>
<path d="M606.184 244.001H597.944V219.761C597.944 213.041 593.304 209.601 588.743 209.601C584.263 209.601 579.944 212.881 579.944 219.281V244.001H571.703V202.881H578.583L579.944 207.681C582.984 204.001 587.464 202.081 591.784 202.081C596.824 202.081 601.784 204.641 604.344 210.321C607.304 204.961 612.743 202.081 618.023 202.081C625.304 202.081 632.344 207.601 632.344 219.761V244.001H624.104V219.761C624.104 212.961 619.543 209.601 615.063 209.601C610.663 209.601 606.184 212.801 606.184 219.281V244.001Z" fill="black"/>
<path d="M638.502 202.881H646.742V244.001H638.502V202.881ZM638.422 186.801H646.742V195.281H638.422V186.801Z" fill="black"/>
<path d="M691.177 244.001H682.937V219.761C682.937 215.201 679.417 209.601 672.457 209.601C666.217 209.601 661.897 214.721 661.897 219.281V244.001H653.657V202.881H661.097L661.897 207.201C665.337 203.841 670.137 202.081 674.857 202.081C683.177 202.081 691.177 207.521 691.177 219.761V244.001Z" fill="black"/>
<path d="M712.77 202.081C717.09 202.081 721.33 204.081 724.53 207.281L725.33 202.881H732.77V245.681C732.77 253.281 727.01 260.561 715.89 260.561C705.01 260.561 699.01 253.681 698.69 246.241H706.77C707.09 250.801 711.49 253.041 715.89 253.041C720.45 253.041 724.53 250.641 724.53 245.601V237.601C721.57 240.801 717.49 242.801 712.77 242.801C701.65 242.801 695.25 233.361 695.25 225.121V219.761C695.25 211.521 701.65 202.081 712.77 202.081ZM703.49 225.121C703.49 229.681 707.01 235.281 713.97 235.281C720.21 235.281 724.53 229.681 724.53 225.121V219.281C724.53 214.721 720.21 209.601 713.97 209.601C707.01 209.601 703.49 215.201 703.49 219.761V225.121Z" fill="black"/>
<path d="M744.312 194.961H740.232V186.721H748.472V194.961C748.472 201.041 746.472 204.641 741.672 206.641L739.672 203.521C742.792 202.241 744.072 199.841 744.312 194.961ZM756.632 194.961H752.552V186.721H760.792V195.841C760.712 196.001 760.712 196.161 760.712 196.401V197.121C760.712 197.361 760.712 197.601 760.632 197.841C760.552 197.921 760.552 198.001 760.552 198.081V198.481L760.392 198.961V199.201C760.392 199.281 760.392 199.281 760.312 199.361C760.232 199.441 760.232 199.601 760.232 199.681V199.761C760.232 199.841 760.232 200.001 760.152 200.161C760.152 200.241 760.152 200.321 760.072 200.401C760.072 200.481 760.072 200.481 759.992 200.481V200.561C759.992 200.641 759.992 200.641 759.912 200.721C759.832 200.801 759.832 200.801 759.832 200.881C759.752 200.961 759.752 201.041 759.752 201.121C759.672 201.201 759.672 201.361 759.592 201.521C759.592 201.601 759.592 201.681 759.512 201.761C759.512 201.841 759.512 201.841 759.432 201.921L759.352 202.001C759.352 202.081 759.352 202.161 759.272 202.241C759.272 202.321 759.272 202.321 759.192 202.321C759.112 202.321 759.112 202.321 759.112 202.401V202.481L758.872 202.881C758.792 202.961 758.712 203.121 758.632 203.201L758.312 203.521C758.232 203.521 758.232 203.521 758.232 203.601V203.761C757.912 204.161 757.592 204.481 757.192 204.721L756.952 204.961C756.872 205.041 756.872 205.041 756.792 205.041C756.712 205.041 756.712 205.041 756.632 205.121C756.552 205.121 756.552 205.121 756.552 205.201L756.392 205.361C756.312 205.441 756.232 205.441 756.152 205.521H756.072L755.992 205.601C755.912 205.601 755.912 205.601 755.832 205.681L755.752 205.761H755.672L755.592 205.841C755.512 205.921 755.432 205.921 755.352 206.001C755.272 206.081 755.192 206.081 755.112 206.081C755.032 206.081 755.032 206.081 755.032 206.161L754.712 206.321C754.632 206.401 754.632 206.401 754.552 206.401C754.312 206.481 754.152 206.561 753.992 206.641L751.992 203.521H752.072C752.232 203.441 752.392 203.361 752.472 203.281H752.552C752.632 203.201 752.792 203.121 752.952 203.041C753.032 202.961 753.112 202.961 753.192 202.881C753.272 202.881 753.352 202.881 753.432 202.801C753.672 202.641 753.912 202.481 754.072 202.241C754.072 202.161 754.072 202.161 754.152 202.161C754.152 202.081 754.152 202.081 754.232 202.081H754.312C754.392 202.001 754.392 202.001 754.392 201.921H754.472C754.552 201.841 754.552 201.841 754.552 201.761C754.632 201.601 754.792 201.441 754.872 201.361L755.032 201.201C755.112 201.121 755.112 201.041 755.192 200.961V200.881L755.352 200.721V200.641L755.432 200.561V200.481L755.512 200.401V200.321L755.592 200.241C755.672 200.161 755.672 200.161 755.672 200.081C755.752 199.921 755.832 199.761 755.912 199.521V199.441C755.992 199.201 755.992 198.961 756.072 198.721C756.072 198.641 756.072 198.641 756.152 198.641C756.232 198.561 756.232 198.401 756.232 198.321C756.312 198.241 756.312 198.081 756.312 198.001V197.841C756.392 197.761 756.392 197.601 756.392 197.521V197.201C756.392 197.121 756.392 197.121 756.472 197.041V196.721C756.552 196.641 756.552 196.561 756.552 196.481V195.681C756.552 195.601 756.552 195.521 756.632 195.441V194.961Z" fill="black"/>
<path d="M768.071 234.461H777.341V244.001H768.071V234.461Z" fill="black"/>
<path d="M139.8 353.001L135.39 340.221H109.47L105.06 353.001H95.0698L118.11 291.891H126.75L149.79 353.001H139.8ZM112.35 331.851H132.51L122.43 302.781L112.35 331.851Z" fill="black"/>
<path d="M160.347 325.731V333.921C160.347 341.841 166.647 345.351 172.677 345.351C178.167 345.351 183.387 342.471 183.387 337.341H192.657C192.657 348.771 183.477 353.811 173.037 353.811C162.237 353.811 151.077 347.691 151.077 333.921V325.731C151.077 311.871 162.237 305.751 172.947 305.751C183.477 305.751 192.567 310.791 192.567 322.311H183.297C183.297 317.271 178.077 314.391 172.677 314.391C166.647 314.391 160.347 317.811 160.347 325.731Z" fill="black"/>
<path d="M227.426 344.811L226.346 353.631C225.356 353.901 221.576 353.901 220.496 353.901C210.146 353.901 206.006 348.591 206.006 337.611V314.571H196.826V308.991C202.856 308.991 209.246 306.291 209.246 295.671H215.276V306.741H226.706V314.571H215.276V337.431C215.276 343.281 217.526 344.811 222.386 344.811H227.426Z" fill="black"/>
<path d="M232.485 306.741H241.755V334.011C241.755 339.141 245.805 345.351 253.545 345.351C260.655 345.351 265.425 339.681 265.425 334.551V306.741H274.695V353.001H266.325L265.425 347.961C261.825 351.651 256.965 353.901 252.105 353.901C239.595 353.901 232.485 346.521 232.485 334.011V306.741Z" fill="black"/>
<path d="M312.017 332.661H297.887C292.667 332.661 289.877 335.721 289.787 338.871C289.697 342.291 292.667 345.801 299.327 345.801C305.177 345.801 312.017 341.391 312.017 333.651V332.661ZM301.757 305.841C314.267 305.841 321.017 314.031 321.017 322.581V353.001H312.917L312.017 348.141V348.051C308.597 351.381 303.737 353.901 297.167 353.901C288.797 353.901 280.607 349.131 280.607 339.861C280.607 332.751 286.547 325.461 298.337 325.461H312.017V322.671C312.017 317.001 306.887 314.301 301.757 314.301C296.807 314.301 291.857 316.821 291.407 321.951H282.407C282.767 313.581 289.517 305.841 301.757 305.841Z" fill="black"/>
<path d="M327.846 353.001V288.561H337.116V353.001H327.846Z" fill="black"/>
<path d="M344.897 353.001V288.561H354.167V353.001H344.897Z" fill="black"/>
<path d="M361.048 306.741H370.318V331.761C370.318 336.891 374.278 343.191 382.108 343.191C389.128 343.191 393.988 336.891 393.988 331.761V306.741H403.258V354.891C403.258 363.441 396.778 371.631 384.268 371.631C372.028 371.631 365.278 363.891 364.918 355.521H374.008C374.368 360.651 379.318 363.171 384.268 363.171C389.398 363.171 393.988 360.471 393.988 354.801V345.801C390.658 349.401 386.068 351.651 380.758 351.651C368.248 351.651 361.048 341.031 361.048 331.761V306.741Z" fill="black"/>
<path d="M441.861 325.731V333.921C441.861 341.841 448.161 345.351 454.191 345.351C459.681 345.351 464.901 342.471 464.901 337.341H474.171C474.171 348.771 464.991 353.811 454.551 353.811C443.751 353.811 432.591 347.691 432.591 333.921V325.731C432.591 311.871 443.751 305.751 454.461 305.751C464.991 305.751 474.081 310.791 474.081 322.311H464.811C464.811 317.271 459.591 314.391 454.191 314.391C448.161 314.391 441.861 317.811 441.861 325.731Z" fill="black"/>
<path d="M504.35 353.721H499.94C487.43 353.721 480.14 343.281 480.14 334.011V325.731C480.14 316.461 487.97 305.841 500.48 305.841H503.81C516.32 305.841 524.15 316.461 524.15 325.731V334.011C524.15 343.281 516.86 353.721 504.35 353.721ZM489.41 325.731V334.011C489.41 341.481 495.71 345.351 502.1 345.351C508.49 345.351 514.88 341.481 514.88 334.011V325.731C514.88 318.081 508.49 314.301 502.1 314.301C495.26 314.301 489.41 318.531 489.41 325.731Z" fill="black"/>
<path d="M569.752 353.001H560.482V325.731C560.482 318.171 555.262 314.301 550.132 314.301C545.092 314.301 540.232 317.991 540.232 325.191V353.001H530.962V306.741H538.702L540.232 312.141C543.652 308.001 548.692 305.841 553.552 305.841C559.222 305.841 564.802 308.721 567.682 315.111C571.012 309.081 577.132 305.841 583.072 305.841C591.262 305.841 599.182 312.051 599.182 325.731V353.001H589.912V325.731C589.912 318.081 584.782 314.301 579.742 314.301C574.792 314.301 569.752 317.901 569.752 325.191V353.001Z" fill="black"/>
<path d="M606.11 306.741H615.38V353.001H606.11V306.741ZM606.02 288.651H615.38V298.191H606.02V288.651Z" fill="black"/>
<path d="M665.369 353.001H656.099V325.731C656.099 320.601 652.139 314.301 644.309 314.301C637.289 314.301 632.429 320.061 632.429 325.191V353.001H623.159V306.741H631.529L632.429 311.601C636.299 307.821 641.699 305.841 647.009 305.841C656.369 305.841 665.369 311.961 665.369 325.731V353.001Z" fill="black"/>
<path d="M689.662 305.841C694.522 305.841 699.292 308.091 702.892 311.691L703.792 306.741H712.162V354.891C712.162 363.441 705.682 371.631 693.172 371.631C680.932 371.631 674.182 363.891 673.822 355.521H682.912C683.272 360.651 688.222 363.171 693.172 363.171C698.302 363.171 702.892 360.471 702.892 354.801V345.801C699.562 349.401 694.972 351.651 689.662 351.651C677.152 351.651 669.952 341.031 669.952 331.761V325.731C669.952 316.461 677.152 305.841 689.662 305.841ZM679.222 331.761C679.222 336.891 683.182 343.191 691.012 343.191C698.032 343.191 702.892 336.891 702.892 331.761V325.191C702.892 320.061 698.032 314.301 691.012 314.301C683.182 314.301 679.222 320.601 679.222 325.731V331.761Z" fill="black"/>
<path d="M719.926 343.461H729.196V353.001H719.926V343.461Z" fill="black"/>
<path d="M614.441 472.207C618.395 472.207 621.557 469.603 621.557 465.555C621.557 462.207 619.091 458.904 614.441 458.904H608.303V470.765H603.51V454.579H615.602C622.114 454.579 626.348 459.323 626.348 465.649C626.348 471.185 622.765 476.535 615.602 476.535H611.694C609.833 476.535 608.3 478.07 608.3 479.929V486.16H603.51V480.345C603.51 475.835 607.138 472.207 611.649 472.207H614.441Z" fill="#C71617"/>
<path d="M638.395 486.531C631.929 486.531 628.164 481.136 628.164 476.346V472.067C628.164 467.277 632.209 461.787 638.674 461.787H640.396C646.862 461.787 650.907 467.277 650.907 472.067V476.346C650.907 481.136 647.138 486.531 640.676 486.531H638.395ZM632.954 476.346C632.954 480.205 636.208 482.206 639.511 482.206C642.814 482.206 646.117 480.205 646.117 476.346V472.067C646.117 468.113 642.814 466.16 639.511 466.16C635.977 466.16 632.954 468.347 632.954 472.067V476.346Z" fill="black"/>
<path d="M668.3 486.486C667.789 486.626 665.833 486.626 665.277 486.626C659.927 486.626 657.789 483.882 657.789 478.207V466.3H653.045V463.417C656.162 463.417 659.462 462.021 659.462 456.535H662.579V462.255H668.485V466.3H662.579V478.113C662.579 481.136 663.741 481.927 666.253 481.927H668.856L668.297 486.486H668.3Z" fill="black"/>
<path d="M708.16 461.787C714.532 461.787 718.206 465.695 718.206 472.067V486.16H713.416V472.067C713.416 469.414 711.369 466.16 707.324 466.16C704.07 466.16 701.974 467.973 700.207 470.485C700.067 470.716 699.927 470.905 699.787 471.136C695.834 477.182 693.321 486.626 682.765 486.626C677.741 486.626 670.998 483.277 670.998 476.44V472.161C670.998 467.371 675.043 461.881 681.509 461.881H682.3C685.092 461.881 687.74 462.997 689.647 464.81C692.856 467.879 692.81 470.811 692.81 474.95V475.601H675.788C675.788 479.183 678.16 482.252 683.185 482.252C690.393 482.252 693.37 476.811 696.393 471.556V462.252H700.718L701.183 464.764C701.743 464.208 702.394 463.694 703.136 463.277L703.181 463.232C704.577 462.395 706.204 461.881 708.157 461.79L708.16 461.787ZM688.16 471.507C688.16 468.25 685.463 466.157 682.345 466.157C678.577 466.157 676.065 468.995 675.834 471.507H688.16ZM701.183 472.997V486.16H696.393V481.416L701.183 472.997Z" fill="black"/>
<path d="M735.602 486.486C735.091 486.626 733.135 486.626 732.579 486.626C727.229 486.626 725.091 483.882 725.091 478.207V466.3H720.347V463.417C723.464 463.417 726.764 462.021 726.764 456.535H729.881V462.255H735.787V466.3H729.881V478.113C729.881 481.136 731.043 481.927 733.555 481.927H736.158L735.599 486.486H735.602Z" fill="black"/>
<path d="M743.6 452.903V457.833H738.765V452.903H743.6ZM743.6 462.252V486.16H738.81V462.252H743.6Z" fill="black"/>
<path d="M762.855 483.648C761.134 485.369 758.576 486.626 755.182 486.626C750.298 486.626 746.578 483.697 746.578 479.418C746.578 474.582 750.812 471.93 755.787 471.93H758.16C759.835 471.93 763.275 471.094 763.275 468.952C763.275 467.14 760.903 466.16 758.345 466.16C755.416 466.16 752.299 467.416 752.299 470.069H747.509C747.509 464.488 752.859 461.79 758.16 461.79C763.184 461.79 768.205 464.257 768.205 469.187C768.205 474.117 762.624 475.653 758.765 475.653H755.602C753.789 475.653 751.417 476.723 751.417 478.907C751.417 481.419 754.486 482.35 756.347 482.35C759.09 482.35 763.418 480.488 763.789 477.094H767.557V486.163H763.324L762.859 483.651L762.855 483.648Z" fill="black"/>
<path d="M771.089 452.857H775.879V486.16H771.089V452.857Z" fill="black"/>
<path d="M603.143 505.005V492.854H610.23V494.517H604.984V497.667H609.69V499.33H604.984V503.355H610.227V505.018H604.054V504.998H603.143V505.005Z" fill="black"/>
<path d="M612.824 495.806L615.365 502.838L617.887 495.806H619.749L616.241 505.005H614.47L610.962 495.806H612.824Z" fill="black"/>
<path d="M621.72 500.908V501.23C621.72 502.249 622.524 503.485 624.083 503.485C625.228 503.485 626.354 502.984 626.354 502.001H628.18C628.18 503.628 626.481 505.151 624.333 505.151H623.816C621.33 505.151 619.878 503.075 619.878 501.233V499.587C619.878 497.745 621.434 495.633 623.923 495.633H624.226C625.3 495.633 626.318 496.063 627.054 496.759C628.287 497.94 628.271 499.066 628.271 500.661V500.911H621.72V500.908ZM626.481 499.369C626.481 498.116 625.407 497.312 624.21 497.312C622.762 497.312 621.847 498.402 621.74 499.369H626.481Z" fill="black"/>
<path d="M634.606 498.044C634.213 497.543 633.676 497.312 633.194 497.312C632.319 497.312 631.496 498.028 631.496 499.245V505.008H629.654V495.809H631.317L631.496 496.811V496.827C632.156 496.147 633.106 495.646 634.073 495.63C634.825 495.63 635.54 495.952 635.934 496.668L634.61 498.044H634.606Z" fill="black"/>
<path d="M638.453 495.806V500.781C638.453 501.8 639.241 503.052 640.796 503.052C642.192 503.052 643.159 501.8 643.159 500.781V495.806H645V505.379C645 507.078 643.712 508.708 641.226 508.708C638.739 508.708 637.451 507.169 637.379 505.506H639.185C639.257 506.525 640.24 507.026 641.226 507.026C642.212 507.026 643.159 506.489 643.159 505.363V503.573C642.498 504.289 641.584 504.735 640.529 504.735C638.043 504.735 636.611 502.623 636.611 500.781V495.806H638.453Z" fill="black"/>
<path d="M656.513 498.402C656.513 497.563 655.618 497.312 654.688 497.312C653.757 497.312 652.862 497.725 652.862 498.367C652.862 500.228 658.534 498.816 658.534 502.32C658.534 504.162 656.601 505.184 654.668 505.184C652.735 505.184 650.838 504.165 650.838 502.053H652.664C652.664 503.056 653.682 503.485 654.685 503.485C655.687 503.485 656.689 503.072 656.689 502.324C656.689 500.57 651.017 501.842 651.017 498.406C651.017 496.671 652.787 495.649 654.613 495.649C656.438 495.649 658.336 496.222 658.336 498.406H656.51L656.513 498.402Z" fill="black"/>
<path d="M668.287 499.584V501.23C668.287 503.072 666.839 505.184 664.35 505.184C663.312 505.184 662.401 504.738 661.737 504.038V508.62H659.895V495.809H661.558L661.737 496.775C662.453 496.079 663.4 495.63 664.35 495.63C666.836 495.63 668.287 497.742 668.287 499.584ZM666.445 499.584C666.445 498.565 665.642 497.312 664.083 497.312C662.687 497.312 661.74 498.458 661.74 499.476V501.23C661.74 502.249 662.687 503.485 664.083 503.485C665.638 503.485 666.445 502.252 666.445 501.23V499.584Z" fill="black"/>
<path d="M677.148 498.956V505.005H675.538L675.359 504.038V504.022C674.679 504.683 673.712 505.184 672.407 505.184C670.744 505.184 669.114 504.237 669.114 502.392C669.114 500.98 670.295 499.528 672.638 499.528H675.359V498.972C675.359 497.846 674.34 497.309 673.318 497.309C672.296 497.309 671.35 497.81 671.262 498.829H669.472C669.544 497.166 670.884 495.627 673.318 495.627C675.752 495.627 677.148 497.254 677.148 498.956ZM672.55 500.96C671.512 500.96 670.959 501.569 670.94 502.193C670.92 502.874 671.512 503.57 672.837 503.57C673.998 503.57 675.359 502.695 675.359 501.155V500.96H672.55Z" fill="black"/>
<path d="M680.174 501.211C680.174 502.786 681.427 503.482 682.625 503.482C683.715 503.482 684.753 502.909 684.753 501.891H686.595C686.595 504.162 684.769 505.164 682.693 505.164C680.617 505.164 678.326 503.947 678.326 501.211V499.584C678.326 496.827 680.545 495.61 682.673 495.61C684.802 495.61 686.575 496.613 686.575 498.903H684.733C684.733 497.901 683.695 497.328 682.621 497.328C681.424 497.328 680.171 498.009 680.171 499.584V501.211H680.174Z" fill="black"/>
<path d="M689.625 500.908V501.23C689.625 502.249 690.428 503.485 691.987 503.485C693.133 503.485 694.258 502.984 694.258 502.001H696.084C696.084 503.628 694.385 505.151 692.238 505.151H691.717C689.231 505.151 687.779 503.075 687.779 501.233V499.587C687.779 497.745 689.335 495.633 691.824 495.633H692.13C693.204 495.633 694.223 496.063 694.958 496.759C696.191 497.94 696.175 499.066 696.175 500.661V500.911H689.625V500.908ZM694.382 499.369C694.382 498.116 693.308 497.312 692.111 497.312C690.659 497.312 689.748 498.402 689.641 499.369H694.382Z" fill="black"/>
<path d="M698.538 503.108V505.005H696.696V503.108H698.538Z" fill="black"/>
<path d="M704.551 505.005V492.854H708.667C712.049 492.854 713.122 495.288 713.122 497.846V499.974C713.122 502.532 712.049 505.002 708.667 505.002H704.551V505.005ZM711.277 497.846C711.277 496.111 710.848 494.501 708.397 494.501H706.393V503.306H708.397C710.851 503.306 711.277 501.715 711.277 499.977V497.846Z" fill="black"/>
<path d="M716.149 500.908V501.23C716.149 502.249 716.953 503.485 718.511 503.485C719.657 503.485 720.783 502.984 720.783 502.001H722.608C722.608 503.628 720.91 505.151 718.762 505.151H718.245C715.758 505.151 714.307 503.075 714.307 501.233V499.587C714.307 497.745 715.863 495.633 718.352 495.633H718.655C719.728 495.633 720.747 496.063 721.482 496.759C722.716 497.94 722.699 499.066 722.699 500.661V500.911H716.149V500.908ZM720.906 499.369C720.906 498.116 719.833 497.312 718.635 497.312C717.187 497.312 716.272 498.402 716.165 499.369H720.906Z" fill="black"/>
<path d="M724.076 492.193H725.918V505.008H724.076V492.193Z" fill="black"/>
<path d="M729.318 492.21V494.107H727.457V492.21H729.318ZM729.318 495.806V505.005H727.477V495.806H729.318Z" fill="black"/>
<path d="M732.094 495.806L734.636 502.838L737.157 495.806H739.019L735.511 505.005H733.741L730.233 495.806H732.094Z" fill="black"/>
<path d="M740.988 500.908V501.23C740.988 502.249 741.795 503.485 743.35 503.485C744.496 503.485 745.621 502.984 745.621 502.001H747.447C747.447 503.628 745.748 505.151 743.601 505.151H743.083C740.597 505.151 739.146 503.075 739.146 501.233V499.587C739.146 497.745 740.705 495.633 743.191 495.633H743.493C744.567 495.633 745.586 496.063 746.321 496.759C747.554 497.94 747.538 499.066 747.538 500.661V500.911H740.988V500.908ZM745.748 499.369C745.748 498.116 744.675 497.312 743.477 497.312C742.029 497.312 741.115 498.402 741.007 499.369H745.748Z" fill="black"/>
<path d="M753.874 498.044C753.481 497.543 752.944 497.312 752.462 497.312C751.587 497.312 750.763 498.028 750.763 499.245V505.008H748.918V495.809H750.584L750.763 496.811V496.827C751.424 496.147 752.374 495.646 753.341 495.63C754.092 495.63 754.808 495.952 755.202 496.668L753.878 498.044H753.874Z" fill="black"/>
<path d="M756.988 500.908V501.23C756.988 502.249 757.795 503.485 759.351 503.485C760.496 503.485 761.622 502.984 761.622 502.001H763.448C763.448 503.628 761.749 505.151 759.601 505.151H759.084C756.598 505.151 755.146 503.075 755.146 501.233V499.587C755.146 497.745 756.705 495.633 759.191 495.633H759.494C760.568 495.633 761.586 496.063 762.322 496.759C763.555 497.94 763.539 499.066 763.539 500.661V500.911H756.988V500.908ZM761.749 499.369C761.749 498.116 760.675 497.312 759.478 497.312C758.03 497.312 757.115 498.402 757.008 499.369H761.749Z" fill="black"/>
<path d="M764.47 499.584C764.47 497.742 765.902 495.63 768.388 495.63C769.446 495.63 770.357 496.079 771.017 496.775V492.193H772.859V505.008H771.196L771.017 504.025C770.301 504.722 769.354 505.187 768.388 505.187C765.902 505.187 764.47 503.075 764.47 501.233V499.584ZM766.315 501.23C766.315 502.249 767.103 503.485 768.658 503.485C770.054 503.485 771.021 502.359 771.021 501.338V499.584C771.021 498.565 770.054 497.312 768.658 497.312C767.103 497.312 766.315 498.565 766.315 499.584V501.23Z" fill="black"/>
<path d="M776.246 503.108V505.005H774.401V503.108H776.246Z" fill="black"/>
</svg>
