<svg width="850" height="551" viewBox="0 0 850 551" fill="none" xmlns="http://www.w3.org/2000/svg">
<path d="M167.579 247.069C181.079 247.069 191.88 238.18 191.88 224.357C191.88 212.924 183.457 201.645 167.579 201.645H146.622V242.147H130.255V186.878H171.546C193.78 186.878 208.236 203.079 208.236 224.68C208.236 243.58 196.002 261.848 171.546 261.848H158.201C151.845 261.848 146.611 267.093 146.611 273.437V294.716H130.255V274.86C130.255 259.459 142.644 247.069 158.045 247.069H167.579Z" fill="#C71617"/>
<path d="M249.372 295.983C227.293 295.983 214.437 277.56 214.437 261.204V246.592C214.437 230.236 228.249 211.49 250.327 211.49H256.205C278.284 211.49 292.096 230.236 292.096 246.592V261.204C292.096 277.56 279.229 295.983 257.161 295.983H249.372ZM230.793 261.204C230.793 274.382 241.905 281.215 253.183 281.215C264.461 281.215 275.74 274.382 275.74 261.204V246.592C275.74 233.091 264.461 226.424 253.183 226.424C241.116 226.424 230.793 233.891 230.793 246.592V261.204Z" fill="black"/>
<path d="M351.487 295.827C349.742 296.305 343.064 296.305 341.164 296.305C322.897 296.305 315.596 286.938 315.596 267.559V226.902H299.396V217.057C310.04 217.057 321.308 212.29 321.308 193.556H331.952V213.09H352.12V226.902H331.952V267.237C331.952 277.56 335.919 280.26 344.497 280.26H353.387L351.476 295.827H351.487Z" fill="black"/>
<path d="M487.594 211.49C509.35 211.49 521.895 224.835 521.895 246.592V294.716H505.539V246.592C505.539 237.536 498.55 226.424 484.738 226.424C473.626 226.424 466.47 232.613 460.437 241.192C459.959 241.98 459.481 242.625 459.003 243.414C445.503 264.059 436.925 296.305 400.879 296.305C383.722 296.305 360.699 284.871 360.699 261.526V246.914C360.699 230.558 374.511 211.812 396.59 211.812H399.29C408.824 211.812 417.868 215.624 424.38 221.813C435.336 232.291 435.18 242.303 435.18 256.437V258.659H377.055C377.055 270.893 385.156 281.371 402.312 281.371C426.924 281.371 437.091 262.792 447.414 244.847V213.079H462.181L463.77 221.657C465.681 219.757 467.904 218.002 470.437 216.579L470.593 216.424C475.36 213.568 480.915 211.813 487.582 211.501L487.594 211.49ZM419.302 244.681C419.302 233.558 410.09 226.413 399.445 226.413C386.578 226.413 378 236.102 377.211 244.681H419.302ZM463.77 249.77V294.716H447.414V278.515L463.77 249.77Z" fill="black"/>
<path d="M581.296 295.827C579.552 296.305 572.874 296.305 570.974 296.305C552.706 296.305 545.406 286.938 545.406 267.559V226.902H529.205V217.057C539.85 217.057 551.117 212.29 551.117 193.556H561.762V213.09H581.93V226.902H561.762V267.237C561.762 277.56 565.729 280.26 574.307 280.26H583.196L581.285 295.827H581.296Z" fill="black"/>
<path d="M608.608 181.155V197.99H592.096V181.155H608.608ZM608.608 213.079V294.716H592.251V213.079H608.608Z" fill="black"/>
<path d="M674.356 286.138C668.477 292.016 659.744 296.305 648.154 296.305C631.476 296.305 618.775 286.304 618.775 271.693C618.775 255.181 633.232 246.125 650.221 246.125H658.322C664.044 246.125 675.789 243.269 675.789 235.958C675.789 229.769 667.689 226.424 658.955 226.424C648.954 226.424 638.31 230.713 638.31 239.769H621.953C621.953 220.713 640.221 211.501 658.322 211.501C675.478 211.501 692.623 219.924 692.623 236.758C692.623 253.592 673.567 258.837 660.388 258.837H649.588C643.399 258.837 635.298 262.492 635.298 269.948C635.298 278.526 645.777 281.704 652.132 281.704C661.499 281.704 676.278 275.348 677.545 263.759H690.412V294.727H675.956L674.367 286.149L674.356 286.138Z" fill="black"/>
<path d="M702.469 181H718.826V294.716H702.469V181Z" fill="black"/>
<path d="M129 359.063V317.573H153.201V323.251H135.289V334.007H151.357V339.685H135.289V353.43H153.19V359.108H132.111V359.041H129V359.063Z" fill="black"/>
<path d="M162.057 327.651L170.736 351.663L179.347 327.651H185.703L173.725 359.063H167.68L155.702 327.651H162.057Z" fill="black"/>
<path d="M192.435 345.074V346.174C192.435 349.652 195.18 353.874 200.502 353.874C204.413 353.874 208.258 352.163 208.258 348.807H214.492C214.492 354.363 208.691 359.563 201.358 359.563H199.591C191.102 359.563 186.146 352.474 186.146 346.185V340.562C186.146 334.273 191.457 327.062 199.958 327.062H200.991C204.658 327.062 208.136 328.529 210.647 330.906C214.858 334.94 214.803 338.785 214.803 344.229V345.085H192.435V345.074ZM208.691 339.818C208.691 335.54 205.025 332.795 200.936 332.795C195.991 332.795 192.869 336.518 192.502 339.818H208.691Z" fill="black"/>
<path d="M236.437 335.296C235.092 333.584 233.259 332.795 231.614 332.795C228.625 332.795 225.814 335.24 225.814 339.396V359.074H219.525V327.662H225.203L225.814 331.084V331.14C228.07 328.817 231.314 327.106 234.614 327.051C237.181 327.051 239.626 328.151 240.97 330.595L236.448 335.296H236.437Z" fill="black"/>
<path d="M249.571 327.651V344.64C249.571 348.118 252.26 352.396 257.572 352.396C262.339 352.396 265.639 348.118 265.639 344.64V327.651H271.928V360.341C271.928 366.141 267.528 371.708 259.038 371.708C250.549 371.708 246.149 366.452 245.905 360.774H252.071C252.316 364.252 255.672 365.963 259.038 365.963C262.405 365.963 265.639 364.13 265.639 360.285V354.174C263.383 356.619 260.261 358.141 256.661 358.141C248.171 358.141 243.282 350.929 243.282 344.64V327.651H249.571Z" fill="black"/>
<path d="M311.24 336.518C311.24 333.651 308.184 332.795 305.006 332.795C301.828 332.795 298.773 334.207 298.773 336.396C298.773 342.751 318.14 337.929 318.14 349.896C318.14 356.185 311.54 359.674 304.94 359.674C298.339 359.674 291.861 356.196 291.861 348.985H298.095C298.095 352.407 301.573 353.874 304.995 353.874C308.418 353.874 311.84 352.463 311.84 349.907C311.84 343.918 292.472 348.263 292.472 336.529C292.472 330.606 298.517 327.117 304.751 327.117C310.984 327.117 317.462 329.073 317.462 336.529H311.229L311.24 336.518Z" fill="black"/>
<path d="M351.443 340.551V346.174C351.443 352.463 346.499 359.674 337.998 359.674C334.454 359.674 331.343 358.152 329.076 355.763V371.408H322.787V327.662H328.465L329.076 330.962C331.52 328.584 334.754 327.051 337.998 327.051C346.488 327.051 351.443 334.262 351.443 340.551ZM345.154 340.551C345.154 337.073 342.41 332.795 337.087 332.795C332.32 332.795 329.087 336.707 329.087 340.185V346.174C329.087 349.652 332.32 353.874 337.087 353.874C342.399 353.874 345.154 349.663 345.154 346.174V340.551Z" fill="black"/>
<path d="M381.701 338.407V359.063H376.2L375.589 355.763V355.707C373.267 357.963 369.967 359.674 365.511 359.674C359.833 359.674 354.266 356.441 354.266 350.141C354.266 345.318 358.3 340.362 366.3 340.362H375.589V338.462C375.589 334.618 372.111 332.784 368.622 332.784C365.133 332.784 361.9 334.495 361.6 337.973H355.488C355.733 332.295 360.311 327.04 368.622 327.04C376.934 327.04 381.701 332.595 381.701 338.407ZM366 345.251C362.455 345.251 360.566 347.329 360.5 349.463C360.433 351.785 362.455 354.163 366.978 354.163C370.945 354.163 375.589 351.174 375.589 345.918V345.251H366Z" fill="black"/>
<path d="M392.033 346.107C392.033 351.485 396.311 353.863 400.4 353.863C404.122 353.863 407.667 351.907 407.667 348.429H413.956C413.956 356.185 407.722 359.608 400.633 359.608C393.544 359.608 385.721 355.452 385.721 346.107V340.551C385.721 331.14 393.299 326.984 400.566 326.984C407.833 326.984 413.889 330.406 413.889 338.229H407.6C407.6 334.807 404.055 332.851 400.388 332.851C396.299 332.851 392.021 335.173 392.021 340.551V346.107H392.033Z" fill="black"/>
<path d="M424.302 345.074V346.174C424.302 349.652 427.046 353.874 432.369 353.874C436.28 353.874 440.125 352.163 440.125 348.807H446.358C446.358 354.363 440.558 359.563 433.224 359.563H431.447C422.957 359.563 418.001 352.474 418.001 346.185V340.562C418.001 334.273 423.313 327.062 431.813 327.062H432.858C436.524 327.062 440.002 328.529 442.514 330.906C446.725 334.94 446.669 338.785 446.669 344.229V345.085H424.302V345.074ZM440.547 339.818C440.547 335.54 436.88 332.795 432.791 332.795C427.835 332.795 424.724 336.518 424.357 339.818H440.547Z" fill="black"/>
<path d="M454.737 352.585V359.063H448.448V352.585H454.737Z" fill="black"/>
<path d="M475.27 359.063V317.573H489.326C500.871 317.573 504.537 325.884 504.537 334.618V341.885C504.537 350.618 500.871 359.052 489.326 359.052H475.27V359.063ZM498.237 334.618C498.237 328.695 496.77 323.195 488.403 323.195H481.559V353.263H488.403C496.782 353.263 498.237 347.829 498.237 341.896V334.618Z" fill="black"/>
<path d="M514.872 345.074V346.174C514.872 349.652 517.616 353.874 522.939 353.874C526.85 353.874 530.695 352.163 530.695 348.807H536.928C536.928 354.363 531.128 359.563 523.794 359.563H522.028C513.538 359.563 508.583 352.474 508.583 346.185V340.562C508.583 334.273 513.894 327.062 522.394 327.062H523.428C527.094 327.062 530.572 328.529 533.084 330.906C537.295 334.94 537.239 338.785 537.239 344.229V345.085H514.872V345.074ZM531.117 339.818C531.117 335.54 527.45 332.795 523.361 332.795C518.416 332.795 515.294 336.518 514.927 339.818H531.117Z" fill="black"/>
<path d="M541.939 315.317H548.229V359.074H541.939V315.317Z" fill="black"/>
<path d="M559.841 315.372V321.85H553.485V315.372H559.841ZM559.841 327.651V359.063H553.552V327.651H559.841Z" fill="black"/>
<path d="M569.318 327.651L577.996 351.663L586.608 327.651H592.964L580.985 359.063H574.941L562.962 327.651H569.318Z" fill="black"/>
<path d="M599.686 345.074V346.174C599.686 349.652 602.442 353.874 607.753 353.874C611.664 353.874 615.509 352.163 615.509 348.807H621.743C621.743 354.363 615.942 359.563 608.609 359.563H606.842C598.353 359.563 593.397 352.474 593.397 346.185V340.562C593.397 334.273 598.719 327.062 607.209 327.062H608.242C611.909 327.062 615.387 328.529 617.898 330.906C622.109 334.94 622.054 338.785 622.054 344.229V345.085H599.686V345.074ZM615.942 339.818C615.942 335.54 612.276 332.795 608.186 332.795C603.242 332.795 600.119 336.518 599.753 339.818H615.942Z" fill="black"/>
<path d="M643.689 335.296C642.345 333.584 640.511 332.795 638.867 332.795C635.878 332.795 633.066 335.24 633.066 339.396V359.074H626.766V327.662H632.455L633.066 331.084V331.14C635.322 328.817 638.567 327.106 641.867 327.051C644.434 327.051 646.878 328.151 648.223 330.595L643.7 335.296H643.689Z" fill="black"/>
<path d="M654.322 345.074V346.174C654.322 349.652 657.078 353.874 662.389 353.874C666.301 353.874 670.145 352.163 670.145 348.807H676.379C676.379 354.363 670.579 359.563 663.245 359.563H661.478C652.989 359.563 648.033 352.474 648.033 346.185V340.562C648.033 334.273 653.356 327.062 661.845 327.062H662.878C666.545 327.062 670.023 328.529 672.534 330.906C676.746 334.94 676.69 338.785 676.69 344.229V345.085H654.322V345.074ZM670.579 339.818C670.579 335.54 666.912 332.795 662.823 332.795C657.878 332.795 654.756 336.518 654.389 339.818H670.579Z" fill="black"/>
<path d="M679.869 340.551C679.869 334.262 684.758 327.051 693.247 327.051C696.859 327.051 699.97 328.584 702.226 330.962V315.317H708.515V359.074H702.837L702.226 355.719C699.781 358.096 696.548 359.685 693.247 359.685C684.758 359.685 679.869 352.474 679.869 346.185V340.551ZM686.169 346.174C686.169 349.652 688.858 353.874 694.17 353.874C698.937 353.874 702.237 350.029 702.237 346.54V340.551C702.237 337.073 698.937 332.795 694.17 332.795C688.858 332.795 686.169 337.073 686.169 340.551V346.174Z" fill="black"/>
<path d="M720.081 352.585V359.063H713.78V352.585H720.081Z" fill="black"/>
</svg>
