<svg width="850" height="551" viewBox="0 0 850 551" fill="none" xmlns="http://www.w3.org/2000/svg">
<path d="M101.46 244.001H96.87V182.891H132.51V191.261H106.14V207.101H129.81V215.471H106.14V235.721H132.51V244.091H101.46V244.001Z" fill="black"/>
<path d="M136.171 197.741H145.531L158.311 233.111L171.001 197.741H180.361L162.721 244.001H153.811L136.171 197.741Z" fill="black"/>
<path d="M223.17 223.391H190.23V225.011C190.23 230.141 194.28 236.351 202.11 236.351C207.87 236.351 213.54 233.831 213.54 228.881H222.72C222.72 237.071 214.17 244.721 203.37 244.721H200.76C188.25 244.721 180.96 234.281 180.96 225.011V216.731C180.96 207.461 188.79 196.841 201.3 196.841H202.83C208.23 196.841 213.36 199.001 217.05 202.511C223.26 208.451 223.17 214.121 223.17 222.131V223.391ZM190.32 215.651H214.17C214.17 209.351 208.77 205.301 202.74 205.301C195.45 205.301 190.86 210.791 190.32 215.651Z" fill="black"/>
<path d="M261.702 202.061L255.042 208.991C253.062 206.471 250.362 205.301 247.932 205.301C243.522 205.301 239.382 208.901 239.382 215.021V244.001H230.112V197.741H238.482L239.382 202.781V202.871C242.712 199.451 247.482 196.931 252.342 196.841C256.122 196.841 259.722 198.461 261.702 202.061Z" fill="black"/>
<path d="M265.159 197.741H274.429V222.761C274.429 227.891 278.389 234.191 286.219 234.191C293.239 234.191 298.099 227.891 298.099 222.761V197.741H307.369V245.891C307.369 254.441 300.889 262.631 288.379 262.631C276.139 262.631 269.389 254.891 269.029 246.521H278.119C278.479 251.651 283.429 254.171 288.379 254.171C293.509 254.171 298.099 251.471 298.099 245.801V236.801C294.769 240.401 290.179 242.651 284.869 242.651C272.359 242.651 265.159 232.031 265.159 222.761V197.741Z" fill="black"/>
<path d="M341.332 197.201H345.412V205.441H337.172V196.001C337.172 195.681 337.172 195.361 337.252 195.041V194.881C337.252 194.721 337.252 194.561 337.332 194.481C337.412 193.921 337.492 193.441 337.572 193.041C337.572 192.961 337.572 192.801 337.652 192.721C337.892 191.681 338.292 190.721 338.772 189.841C338.852 189.761 338.852 189.681 338.932 189.601C339.012 189.521 339.012 189.441 339.092 189.361C339.172 189.281 339.172 189.281 339.172 189.201C339.332 189.041 339.492 188.881 339.652 188.641C339.732 188.561 339.732 188.561 339.732 188.481C339.812 188.401 339.812 188.401 339.812 188.321L340.052 188.081C340.052 188.001 340.052 188.001 340.132 188.001C340.372 187.761 340.532 187.601 340.772 187.441L341.492 186.881C341.572 186.801 341.732 186.721 341.812 186.641H341.892L341.972 186.561C342.212 186.401 342.532 186.241 342.852 186.081L343.012 185.921H343.172C343.252 185.841 343.332 185.841 343.412 185.761L343.732 185.601H343.892C343.972 185.601 343.972 185.601 343.972 185.521L345.972 188.641L345.332 188.961H345.252C345.172 189.041 345.092 189.041 345.012 189.121H344.932C344.772 189.201 344.612 189.361 344.532 189.441H344.452L344.292 189.601C344.292 189.681 344.292 189.681 344.212 189.681H344.132C344.052 189.681 344.052 189.681 344.052 189.761C343.892 189.841 343.732 190.001 343.652 190.081V190.161C343.572 190.161 343.572 190.161 343.492 190.241V190.321L343.252 190.561C343.252 190.641 343.252 190.641 343.172 190.721C343.172 190.801 343.172 190.801 343.092 190.801L342.932 190.961C342.932 191.041 342.932 191.041 342.852 191.121L342.692 191.281V191.361L342.612 191.441V191.521L342.532 191.601C342.452 191.681 342.452 191.681 342.452 191.761V191.841C342.212 192.321 341.972 192.881 341.812 193.521C341.732 193.601 341.732 193.681 341.732 193.761C341.652 193.921 341.652 194.081 341.652 194.321V194.401C341.492 195.121 341.412 195.921 341.332 196.801V197.201ZM353.652 197.201H357.732V205.441H349.492V197.201C349.492 191.121 351.492 187.521 356.292 185.521L358.292 188.641C355.172 189.921 353.892 192.321 353.652 197.201Z" fill="black"/>
<path d="M365.221 202.881H373.461V244.001H365.221V202.881ZM365.141 186.801H373.461V195.281H365.141V186.801Z" fill="black"/>
<path d="M414.856 244.001H406.616V219.761C406.616 213.041 401.976 209.601 397.416 209.601C392.936 209.601 388.616 212.881 388.616 219.281V244.001H380.376V202.881H387.256L388.616 207.681C391.656 204.001 396.136 202.081 400.456 202.081C405.496 202.081 410.456 204.641 413.016 210.321C415.976 204.961 421.416 202.081 426.696 202.081C433.976 202.081 441.016 207.601 441.016 219.761V244.001H432.776V219.761C432.776 212.961 428.216 209.601 423.736 209.601C419.336 209.601 414.856 212.801 414.856 219.281V244.001Z" fill="black"/>
<path d="M467.014 202.081C478.134 202.081 484.614 211.521 484.614 219.761V227.121C484.614 235.361 478.134 244.801 467.014 244.801C462.374 244.801 458.294 242.801 455.334 239.681V260.161H447.094V202.881H454.534L455.334 207.201C458.534 204.081 462.774 202.081 467.014 202.081ZM476.374 227.121V219.761C476.374 215.201 472.774 209.601 465.814 209.601C459.574 209.601 455.334 214.721 455.334 219.281V227.121C455.334 231.681 459.574 237.201 465.814 237.201C472.774 237.201 476.374 231.681 476.374 227.121Z" fill="black"/>
<path d="M510.627 244.641H506.707C495.587 244.641 489.107 235.361 489.107 227.121V219.761C489.107 211.521 496.067 202.081 507.187 202.081H510.147C521.267 202.081 528.227 211.521 528.227 219.761V227.121C528.227 235.361 521.747 244.641 510.627 244.641ZM497.347 219.761V227.121C497.347 233.761 502.947 237.201 508.627 237.201C514.307 237.201 519.987 233.761 519.987 227.121V219.761C519.987 212.961 514.307 209.601 508.627 209.601C502.547 209.601 497.347 213.361 497.347 219.761Z" fill="black"/>
<path d="M567.002 214.481H558.842C558.842 210.721 554.842 209.601 550.682 209.601C546.682 209.601 542.522 211.441 542.522 214.321C542.522 222.641 567.882 216.321 567.882 232.001C567.882 240.241 559.242 244.801 550.602 244.801C542.042 244.801 533.482 240.241 533.482 230.801H541.642C541.642 235.281 546.202 237.201 550.682 237.201C555.162 237.201 559.642 235.361 559.642 232.001C559.642 224.161 534.282 229.841 534.282 214.481C534.282 206.721 542.202 202.161 550.362 202.161C558.602 202.161 567.002 204.721 567.002 214.481Z" fill="black"/>
<path d="M606.689 214.481H598.529C598.529 210.721 594.529 209.601 590.369 209.601C586.369 209.601 582.209 211.441 582.209 214.321C582.209 222.641 607.569 216.321 607.569 232.001C607.569 240.241 598.929 244.801 590.289 244.801C581.729 244.801 573.169 240.241 573.169 230.801H581.329C581.329 235.281 585.889 237.201 590.369 237.201C594.849 237.201 599.329 235.361 599.329 232.001C599.329 224.161 573.969 229.841 573.969 214.481C573.969 206.721 581.889 202.161 590.049 202.161C598.289 202.161 606.689 204.721 606.689 214.481Z" fill="black"/>
<path d="M613.737 202.881H621.977V244.001H613.737V202.881ZM613.657 186.801H621.977V195.281H613.657V186.801Z" fill="black"/>
<path d="M648.891 244.801C644.571 244.801 640.331 242.721 637.131 239.601L636.331 244.001H628.891V186.721H637.131V207.201C640.091 204.081 644.171 202.081 648.891 202.081C660.011 202.081 666.411 211.521 666.411 219.761V227.121C666.411 235.361 660.011 244.801 648.891 244.801ZM658.171 227.121V219.761C658.171 215.201 654.651 209.601 647.691 209.601C641.451 209.601 637.131 215.201 637.131 219.761V227.601C637.131 232.161 641.451 237.201 647.691 237.201C654.651 237.201 658.171 231.681 658.171 227.121Z" fill="black"/>
<path d="M671.313 244.001V186.721H679.553V244.001H671.313Z" fill="black"/>
<path d="M723.189 225.681H693.909V227.121C693.909 231.681 697.509 237.201 704.469 237.201C709.589 237.201 714.629 234.961 714.629 230.561H722.789C722.789 237.841 715.189 244.641 705.589 244.641H703.269C692.149 244.641 685.669 235.361 685.669 227.121V219.761C685.669 211.521 692.629 202.081 703.749 202.081H705.109C709.909 202.081 714.469 204.001 717.749 207.121C723.269 212.401 723.189 217.441 723.189 224.561V225.681ZM693.989 218.801H715.189C715.189 213.201 710.389 209.601 705.029 209.601C698.549 209.601 694.469 214.481 693.989 218.801Z" fill="black"/>
<path d="M734 194.961H729.92V186.721H738.16V194.961C738.16 201.041 736.16 204.641 731.36 206.641L729.36 203.521C732.48 202.241 733.76 199.841 734 194.961ZM746.32 194.961H742.24V186.721H750.48V195.841C750.4 196.001 750.4 196.161 750.4 196.401V197.121C750.4 197.361 750.4 197.601 750.32 197.841C750.24 197.921 750.24 198.001 750.24 198.081V198.481L750.08 198.961V199.201C750.08 199.281 750.08 199.281 750 199.361C749.92 199.441 749.92 199.601 749.92 199.681V199.761C749.92 199.841 749.92 200.001 749.84 200.161C749.84 200.241 749.84 200.321 749.76 200.401C749.76 200.481 749.76 200.481 749.68 200.481V200.561C749.68 200.641 749.68 200.641 749.6 200.721C749.52 200.801 749.52 200.801 749.52 200.881C749.44 200.961 749.44 201.041 749.44 201.121C749.36 201.201 749.36 201.361 749.28 201.521C749.28 201.601 749.28 201.681 749.2 201.761C749.2 201.841 749.2 201.841 749.12 201.921L749.04 202.001C749.04 202.081 749.04 202.161 748.96 202.241C748.96 202.321 748.96 202.321 748.88 202.321C748.8 202.321 748.8 202.321 748.8 202.401V202.481L748.56 202.881C748.48 202.961 748.4 203.121 748.32 203.201L748 203.521C747.92 203.521 747.92 203.521 747.92 203.601V203.761C747.6 204.161 747.28 204.481 746.88 204.721L746.64 204.961C746.56 205.041 746.56 205.041 746.48 205.041C746.4 205.041 746.4 205.041 746.32 205.121C746.24 205.121 746.24 205.121 746.24 205.201L746.08 205.361C746 205.441 745.92 205.441 745.84 205.521H745.76L745.68 205.601C745.6 205.601 745.6 205.601 745.52 205.681L745.44 205.761H745.36L745.28 205.841C745.2 205.921 745.12 205.921 745.04 206.001C744.96 206.081 744.88 206.081 744.8 206.081C744.72 206.081 744.72 206.081 744.72 206.161L744.4 206.321C744.32 206.401 744.32 206.401 744.24 206.401C744 206.481 743.84 206.561 743.68 206.641L741.68 203.521H741.76C741.92 203.441 742.08 203.361 742.16 203.281H742.24C742.32 203.201 742.48 203.121 742.64 203.041C742.72 202.961 742.8 202.961 742.88 202.881C742.96 202.881 743.04 202.881 743.12 202.801C743.36 202.641 743.6 202.481 743.76 202.241C743.76 202.161 743.76 202.161 743.84 202.161C743.84 202.081 743.84 202.081 743.92 202.081H744C744.08 202.001 744.08 202.001 744.08 201.921H744.16C744.24 201.841 744.24 201.841 744.24 201.761C744.32 201.601 744.48 201.441 744.56 201.361L744.72 201.201C744.8 201.121 744.8 201.041 744.88 200.961V200.881L745.04 200.721V200.641L745.12 200.561V200.481L745.2 200.401V200.321L745.28 200.241C745.36 200.161 745.36 200.161 745.36 200.081C745.44 199.921 745.52 199.761 745.6 199.521V199.441C745.68 199.201 745.68 198.961 745.76 198.721C745.76 198.641 745.76 198.641 745.84 198.641C745.92 198.561 745.92 198.401 745.92 198.321C746 198.241 746 198.081 746 198.001V197.841C746.08 197.761 746.08 197.601 746.08 197.521V197.201C746.08 197.121 746.08 197.121 746.16 197.041V196.721C746.24 196.641 746.24 196.561 746.24 196.481V195.681C746.24 195.601 746.24 195.521 746.32 195.441V194.961Z" fill="black"/>
<path d="M757.759 234.461H767.029V244.001H757.759V234.461Z" fill="black"/>
<path d="M117.57 353.001H96.87V291.891H117.57C134.58 291.891 139.98 304.131 139.98 317.001V327.711C139.98 340.581 134.58 353.001 117.57 353.001ZM130.71 327.711V317.001C130.71 308.271 128.55 300.171 116.22 300.171H106.14V344.451H116.22C128.55 344.451 130.71 336.441 130.71 327.711Z" fill="black"/>
<path d="M188.102 332.391H155.162V334.011C155.162 339.141 159.212 345.351 167.042 345.351C172.802 345.351 178.472 342.831 178.472 337.881H187.652C187.652 346.071 179.102 353.721 168.302 353.721H165.692C153.182 353.721 145.892 343.281 145.892 334.011V325.731C145.892 316.461 153.722 305.841 166.232 305.841H167.762C173.162 305.841 178.292 308.001 181.982 311.511C188.192 317.451 188.102 323.121 188.102 331.131V332.391ZM155.252 324.651H179.102C179.102 318.351 173.702 314.301 167.672 314.301C160.382 314.301 155.792 319.791 155.252 324.651Z" fill="black"/>
<path d="M195.044 353.001V288.561H204.314V353.001H195.044Z" fill="black"/>
<path d="M212.185 306.741H221.455V353.001H212.185V306.741ZM212.095 288.651H221.455V298.191H212.095V288.651Z" fill="black"/>
<path d="M226.083 306.741H235.443L248.223 342.111L260.913 306.741H270.273L252.633 353.001H243.723L226.083 306.741Z" fill="black"/>
<path d="M313.082 332.391H280.142V334.011C280.142 339.141 284.192 345.351 292.022 345.351C297.782 345.351 303.452 342.831 303.452 337.881H312.632C312.632 346.071 304.082 353.721 293.282 353.721H290.672C278.162 353.721 270.872 343.281 270.872 334.011V325.731C270.872 316.461 278.702 305.841 291.212 305.841H292.742C298.142 305.841 303.272 308.001 306.962 311.511C313.172 317.451 313.082 323.121 313.082 331.131V332.391ZM280.232 324.651H304.082C304.082 318.351 298.682 314.301 292.652 314.301C285.362 314.301 280.772 319.791 280.232 324.651Z" fill="black"/>
<path d="M351.614 311.061L344.954 317.991C342.974 315.471 340.274 314.301 337.844 314.301C333.434 314.301 329.294 317.901 329.294 324.021V353.001H320.024V306.741H328.394L329.294 311.781V311.871C332.624 308.451 337.394 305.931 342.254 305.841C346.034 305.841 349.634 307.461 351.614 311.061Z" fill="black"/>
<path d="M393.59 332.391H360.65V334.011C360.65 339.141 364.7 345.351 372.53 345.351C378.29 345.351 383.96 342.831 383.96 337.881H393.14C393.14 346.071 384.59 353.721 373.79 353.721H371.18C358.67 353.721 351.38 343.281 351.38 334.011V325.731C351.38 316.461 359.21 305.841 371.72 305.841H373.25C378.65 305.841 383.78 308.001 387.47 311.511C393.68 317.451 393.59 323.121 393.59 331.131V332.391ZM360.74 324.651H384.59C384.59 318.351 379.19 314.301 373.16 314.301C365.87 314.301 361.28 319.791 360.74 324.651Z" fill="black"/>
<path d="M417.992 353.901C405.482 353.901 398.282 343.281 398.282 334.011V325.731C398.282 316.461 405.482 305.841 417.992 305.841C423.302 305.841 427.892 308.091 431.222 311.601V288.561H440.492V353.001H432.122L431.222 348.051C427.622 351.561 422.852 353.901 417.992 353.901ZM407.552 325.731V334.011C407.552 339.141 411.512 345.351 419.342 345.351C426.362 345.351 431.222 339.681 431.222 334.551V325.731C431.222 320.601 426.362 314.301 419.342 314.301C411.512 314.301 407.552 320.601 407.552 325.731Z" fill="black"/>
<path d="M500.367 332.661H486.237C481.017 332.661 478.227 335.721 478.137 338.871C478.047 342.291 481.017 345.801 487.677 345.801C493.527 345.801 500.367 341.391 500.367 333.651V332.661ZM490.107 305.841C502.617 305.841 509.367 314.031 509.367 322.581V353.001H501.267L500.367 348.141V348.051C496.947 351.381 492.087 353.901 485.517 353.901C477.147 353.901 468.957 349.131 468.957 339.861C468.957 332.751 474.897 325.461 486.687 325.461H500.367V322.671C500.367 317.001 495.237 314.301 490.107 314.301C485.157 314.301 480.207 316.821 479.757 321.951H470.757C471.117 313.581 477.867 305.841 490.107 305.841Z" fill="black"/>
<path d="M558.406 353.001H549.136V325.731C549.136 320.601 545.176 314.301 537.346 314.301C530.326 314.301 525.466 320.061 525.466 325.191V353.001H516.196V306.741H524.566L525.466 311.601C529.336 307.821 534.736 305.841 540.046 305.841C549.406 305.841 558.406 311.961 558.406 325.731V353.001Z" fill="black"/>
<path d="M564.339 306.741H573.609V331.761C573.609 336.891 577.569 343.191 585.399 343.191C592.419 343.191 597.279 336.891 597.279 331.761V306.741H606.549V354.891C606.549 363.441 600.069 371.631 587.559 371.631C575.319 371.631 568.569 363.891 568.209 355.521H577.299C577.659 360.651 582.609 363.171 587.559 363.171C592.689 363.171 597.279 360.471 597.279 354.801V345.801C593.949 349.401 589.359 351.651 584.049 351.651C571.539 351.651 564.339 341.031 564.339 331.761V306.741Z" fill="black"/>
<path d="M631.922 353.001H623.642L611.582 306.741H620.852L628.322 339.411L636.512 306.741H645.062L653.162 339.231L660.632 306.741H669.902L657.842 353.001H648.662L640.832 321.951L631.922 353.001Z" fill="black"/>
<path d="M702.427 332.661H688.297C683.077 332.661 680.287 335.721 680.197 338.871C680.107 342.291 683.077 345.801 689.737 345.801C695.587 345.801 702.427 341.391 702.427 333.651V332.661ZM692.167 305.841C704.677 305.841 711.427 314.031 711.427 322.581V353.001H703.327L702.427 348.141V348.051C699.007 351.381 694.147 353.901 687.577 353.901C679.207 353.901 671.017 349.131 671.017 339.861C671.017 332.751 676.957 325.461 688.747 325.461H702.427V322.671C702.427 317.001 697.297 314.301 692.167 314.301C687.217 314.301 682.267 316.821 681.817 321.951H672.817C673.177 313.581 679.927 305.841 692.167 305.841Z" fill="black"/>
<path d="M717.357 306.741H726.627V331.761C726.627 336.891 730.587 343.191 738.417 343.191C745.437 343.191 750.297 336.891 750.297 331.761V306.741H759.567V354.891C759.567 363.441 753.087 371.631 740.577 371.631C728.337 371.631 721.587 363.891 721.227 355.521H730.317C730.677 360.651 735.627 363.171 740.577 363.171C745.707 363.171 750.297 360.471 750.297 354.801V345.801C746.967 349.401 742.377 351.651 737.067 351.651C724.557 351.651 717.357 341.031 717.357 331.761V306.741Z" fill="black"/>
<path d="M767.3 343.461H776.57V353.001H767.3V343.461Z" fill="black"/>
<path d="M614.441 472.207C618.395 472.207 621.557 469.603 621.557 465.555C621.557 462.207 619.091 458.904 614.441 458.904H608.303V470.765H603.51V454.579H615.602C622.114 454.579 626.348 459.323 626.348 465.649C626.348 471.185 622.765 476.535 615.602 476.535H611.694C609.833 476.535 608.3 478.07 608.3 479.929V486.16H603.51V480.345C603.51 475.835 607.138 472.207 611.649 472.207H614.441Z" fill="#C71617"/>
<path d="M638.395 486.531C631.929 486.531 628.164 481.136 628.164 476.346V472.067C628.164 467.277 632.209 461.787 638.674 461.787H640.396C646.862 461.787 650.907 467.277 650.907 472.067V476.346C650.907 481.136 647.138 486.531 640.676 486.531H638.395ZM632.954 476.346C632.954 480.205 636.208 482.206 639.511 482.206C642.814 482.206 646.117 480.205 646.117 476.346V472.067C646.117 468.113 642.814 466.16 639.511 466.16C635.977 466.16 632.954 468.347 632.954 472.067V476.346Z" fill="black"/>
<path d="M668.3 486.486C667.789 486.626 665.833 486.626 665.277 486.626C659.927 486.626 657.789 483.882 657.789 478.207V466.3H653.045V463.417C656.162 463.417 659.462 462.021 659.462 456.535H662.579V462.255H668.485V466.3H662.579V478.113C662.579 481.136 663.741 481.927 666.253 481.927H668.856L668.297 486.486H668.3Z" fill="black"/>
<path d="M708.16 461.787C714.532 461.787 718.206 465.695 718.206 472.067V486.16H713.416V472.067C713.416 469.414 711.369 466.16 707.324 466.16C704.07 466.16 701.974 467.973 700.207 470.485C700.067 470.716 699.927 470.905 699.787 471.136C695.834 477.182 693.321 486.626 682.765 486.626C677.741 486.626 670.998 483.277 670.998 476.44V472.161C670.998 467.371 675.043 461.881 681.509 461.881H682.3C685.092 461.881 687.74 462.997 689.647 464.81C692.856 467.879 692.81 470.811 692.81 474.95V475.601H675.788C675.788 479.183 678.16 482.252 683.185 482.252C690.393 482.252 693.37 476.811 696.393 471.556V462.252H700.718L701.183 464.764C701.743 464.208 702.394 463.694 703.136 463.277L703.181 463.232C704.577 462.395 706.204 461.881 708.157 461.79L708.16 461.787ZM688.16 471.507C688.16 468.25 685.463 466.157 682.345 466.157C678.577 466.157 676.065 468.995 675.834 471.507H688.16ZM701.183 472.997V486.16H696.393V481.416L701.183 472.997Z" fill="black"/>
<path d="M735.602 486.486C735.091 486.626 733.135 486.626 732.579 486.626C727.229 486.626 725.091 483.882 725.091 478.207V466.3H720.347V463.417C723.464 463.417 726.764 462.021 726.764 456.535H729.881V462.255H735.787V466.3H729.881V478.113C729.881 481.136 731.043 481.927 733.555 481.927H736.158L735.599 486.486H735.602Z" fill="black"/>
<path d="M743.6 452.903V457.833H738.765V452.903H743.6ZM743.6 462.252V486.16H738.81V462.252H743.6Z" fill="black"/>
<path d="M762.855 483.648C761.134 485.369 758.576 486.626 755.182 486.626C750.298 486.626 746.578 483.697 746.578 479.418C746.578 474.582 750.812 471.93 755.787 471.93H758.16C759.835 471.93 763.275 471.094 763.275 468.952C763.275 467.14 760.903 466.16 758.345 466.16C755.416 466.16 752.299 467.416 752.299 470.069H747.509C747.509 464.488 752.859 461.79 758.16 461.79C763.184 461.79 768.205 464.257 768.205 469.187C768.205 474.117 762.624 475.653 758.765 475.653H755.602C753.789 475.653 751.417 476.723 751.417 478.907C751.417 481.419 754.486 482.35 756.347 482.35C759.09 482.35 763.418 480.488 763.789 477.094H767.557V486.163H763.324L762.859 483.651L762.855 483.648Z" fill="black"/>
<path d="M771.089 452.857H775.879V486.16H771.089V452.857Z" fill="black"/>
<path d="M603.143 505.005V492.854H610.23V494.517H604.984V497.667H609.69V499.33H604.984V503.355H610.227V505.018H604.054V504.998H603.143V505.005Z" fill="black"/>
<path d="M612.824 495.806L615.365 502.838L617.887 495.806H619.749L616.241 505.005H614.47L610.962 495.806H612.824Z" fill="black"/>
<path d="M621.72 500.908V501.23C621.72 502.249 622.524 503.485 624.083 503.485C625.228 503.485 626.354 502.984 626.354 502.001H628.18C628.18 503.628 626.481 505.151 624.333 505.151H623.816C621.33 505.151 619.878 503.075 619.878 501.233V499.587C619.878 497.745 621.434 495.633 623.923 495.633H624.226C625.3 495.633 626.318 496.063 627.054 496.759C628.287 497.94 628.271 499.066 628.271 500.661V500.911H621.72V500.908ZM626.481 499.369C626.481 498.116 625.407 497.312 624.21 497.312C622.762 497.312 621.847 498.402 621.74 499.369H626.481Z" fill="black"/>
<path d="M634.606 498.044C634.213 497.543 633.676 497.312 633.194 497.312C632.319 497.312 631.496 498.028 631.496 499.245V505.008H629.654V495.809H631.317L631.496 496.811V496.827C632.156 496.147 633.106 495.646 634.073 495.63C634.825 495.63 635.54 495.952 635.934 496.668L634.61 498.044H634.606Z" fill="black"/>
<path d="M638.453 495.806V500.781C638.453 501.8 639.241 503.052 640.796 503.052C642.192 503.052 643.159 501.8 643.159 500.781V495.806H645V505.379C645 507.078 643.712 508.708 641.226 508.708C638.739 508.708 637.451 507.169 637.379 505.506H639.185C639.257 506.525 640.24 507.026 641.226 507.026C642.212 507.026 643.159 506.489 643.159 505.363V503.573C642.498 504.289 641.584 504.735 640.529 504.735C638.043 504.735 636.611 502.623 636.611 500.781V495.806H638.453Z" fill="black"/>
<path d="M656.513 498.402C656.513 497.563 655.618 497.312 654.688 497.312C653.757 497.312 652.862 497.725 652.862 498.367C652.862 500.228 658.534 498.816 658.534 502.32C658.534 504.162 656.601 505.184 654.668 505.184C652.735 505.184 650.838 504.165 650.838 502.053H652.664C652.664 503.056 653.682 503.485 654.685 503.485C655.687 503.485 656.689 503.072 656.689 502.324C656.689 500.57 651.017 501.842 651.017 498.406C651.017 496.671 652.787 495.649 654.613 495.649C656.438 495.649 658.336 496.222 658.336 498.406H656.51L656.513 498.402Z" fill="black"/>
<path d="M668.287 499.584V501.23C668.287 503.072 666.839 505.184 664.35 505.184C663.312 505.184 662.401 504.738 661.737 504.038V508.62H659.895V495.809H661.558L661.737 496.775C662.453 496.079 663.4 495.63 664.35 495.63C666.836 495.63 668.287 497.742 668.287 499.584ZM666.445 499.584C666.445 498.565 665.642 497.312 664.083 497.312C662.687 497.312 661.74 498.458 661.74 499.476V501.23C661.74 502.249 662.687 503.485 664.083 503.485C665.638 503.485 666.445 502.252 666.445 501.23V499.584Z" fill="black"/>
<path d="M677.148 498.956V505.005H675.538L675.359 504.038V504.022C674.679 504.683 673.712 505.184 672.407 505.184C670.744 505.184 669.114 504.237 669.114 502.392C669.114 500.98 670.295 499.528 672.638 499.528H675.359V498.972C675.359 497.846 674.34 497.309 673.318 497.309C672.296 497.309 671.35 497.81 671.262 498.829H669.472C669.544 497.166 670.884 495.627 673.318 495.627C675.752 495.627 677.148 497.254 677.148 498.956ZM672.55 500.96C671.512 500.96 670.959 501.569 670.94 502.193C670.92 502.874 671.512 503.57 672.837 503.57C673.998 503.57 675.359 502.695 675.359 501.155V500.96H672.55Z" fill="black"/>
<path d="M680.174 501.211C680.174 502.786 681.427 503.482 682.625 503.482C683.715 503.482 684.753 502.909 684.753 501.891H686.595C686.595 504.162 684.769 505.164 682.693 505.164C680.617 505.164 678.326 503.947 678.326 501.211V499.584C678.326 496.827 680.545 495.61 682.673 495.61C684.802 495.61 686.575 496.613 686.575 498.903H684.733C684.733 497.901 683.695 497.328 682.621 497.328C681.424 497.328 680.171 498.009 680.171 499.584V501.211H680.174Z" fill="black"/>
<path d="M689.625 500.908V501.23C689.625 502.249 690.428 503.485 691.987 503.485C693.133 503.485 694.258 502.984 694.258 502.001H696.084C696.084 503.628 694.385 505.151 692.238 505.151H691.717C689.231 505.151 687.779 503.075 687.779 501.233V499.587C687.779 497.745 689.335 495.633 691.824 495.633H692.13C693.204 495.633 694.223 496.063 694.958 496.759C696.191 497.94 696.175 499.066 696.175 500.661V500.911H689.625V500.908ZM694.382 499.369C694.382 498.116 693.308 497.312 692.111 497.312C690.659 497.312 689.748 498.402 689.641 499.369H694.382Z" fill="black"/>
<path d="M698.538 503.108V505.005H696.696V503.108H698.538Z" fill="black"/>
<path d="M704.551 505.005V492.854H708.667C712.049 492.854 713.122 495.288 713.122 497.846V499.974C713.122 502.532 712.049 505.002 708.667 505.002H704.551V505.005ZM711.277 497.846C711.277 496.111 710.848 494.501 708.397 494.501H706.393V503.306H708.397C710.851 503.306 711.277 501.715 711.277 499.977V497.846Z" fill="black"/>
<path d="M716.149 500.908V501.23C716.149 502.249 716.953 503.485 718.511 503.485C719.657 503.485 720.783 502.984 720.783 502.001H722.608C722.608 503.628 720.91 505.151 718.762 505.151H718.245C715.758 505.151 714.307 503.075 714.307 501.233V499.587C714.307 497.745 715.863 495.633 718.352 495.633H718.655C719.728 495.633 720.747 496.063 721.482 496.759C722.716 497.94 722.699 499.066 722.699 500.661V500.911H716.149V500.908ZM720.906 499.369C720.906 498.116 719.833 497.312 718.635 497.312C717.187 497.312 716.272 498.402 716.165 499.369H720.906Z" fill="black"/>
<path d="M724.076 492.193H725.918V505.008H724.076V492.193Z" fill="black"/>
<path d="M729.318 492.21V494.107H727.457V492.21H729.318ZM729.318 495.806V505.005H727.477V495.806H729.318Z" fill="black"/>
<path d="M732.094 495.806L734.636 502.838L737.157 495.806H739.019L735.511 505.005H733.741L730.233 495.806H732.094Z" fill="black"/>
<path d="M740.988 500.908V501.23C740.988 502.249 741.795 503.485 743.35 503.485C744.496 503.485 745.621 502.984 745.621 502.001H747.447C747.447 503.628 745.748 505.151 743.601 505.151H743.083C740.597 505.151 739.146 503.075 739.146 501.233V499.587C739.146 497.745 740.705 495.633 743.191 495.633H743.493C744.567 495.633 745.586 496.063 746.321 496.759C747.554 497.94 747.538 499.066 747.538 500.661V500.911H740.988V500.908ZM745.748 499.369C745.748 498.116 744.675 497.312 743.477 497.312C742.029 497.312 741.115 498.402 741.007 499.369H745.748Z" fill="black"/>
<path d="M753.874 498.044C753.481 497.543 752.944 497.312 752.462 497.312C751.587 497.312 750.763 498.028 750.763 499.245V505.008H748.918V495.809H750.584L750.763 496.811V496.827C751.424 496.147 752.374 495.646 753.341 495.63C754.092 495.63 754.808 495.952 755.202 496.668L753.878 498.044H753.874Z" fill="black"/>
<path d="M756.988 500.908V501.23C756.988 502.249 757.795 503.485 759.351 503.485C760.496 503.485 761.622 502.984 761.622 502.001H763.448C763.448 503.628 761.749 505.151 759.601 505.151H759.084C756.598 505.151 755.146 503.075 755.146 501.233V499.587C755.146 497.745 756.705 495.633 759.191 495.633H759.494C760.568 495.633 761.586 496.063 762.322 496.759C763.555 497.94 763.539 499.066 763.539 500.661V500.911H756.988V500.908ZM761.749 499.369C761.749 498.116 760.675 497.312 759.478 497.312C758.03 497.312 757.115 498.402 757.008 499.369H761.749Z" fill="black"/>
<path d="M764.47 499.584C764.47 497.742 765.902 495.63 768.388 495.63C769.446 495.63 770.357 496.079 771.017 496.775V492.193H772.859V505.008H771.196L771.017 504.025C770.301 504.722 769.354 505.187 768.388 505.187C765.902 505.187 764.47 503.075 764.47 501.233V499.584ZM766.315 501.23C766.315 502.249 767.103 503.485 768.658 503.485C770.054 503.485 771.021 502.359 771.021 501.338V499.584C771.021 498.565 770.054 497.312 768.658 497.312C767.103 497.312 766.315 498.565 766.315 499.584V501.23Z" fill="black"/>
<path d="M776.246 503.108V505.005H774.401V503.108H776.246Z" fill="black"/>
</svg>
