<?xml version="1.0" encoding="UTF-8" standalone="no"?>
<svg
   id="Livello_1"
   data-name="Livello 1"
   viewBox="0 0 529.68999 103.76999"
   version="1.1"
   sodipodi:docname="Potential_Logo_nopayoff_P_redblack.svg"
   inkscape:version="1.4.4 (dcaf3e7, 2026-05-05)"
   width="529.69"
   height="103.77"
   xmlns:inkscape="http://www.inkscape.org/namespaces/inkscape"
   xmlns:sodipodi="http://sodipodi.sourceforge.net/DTD/sodipodi-0.dtd"
   xmlns="http://www.w3.org/2000/svg"
   xmlns:svg="http://www.w3.org/2000/svg">
  <sodipodi:namedview
     id="namedview29"
     pagecolor="#ffffff"
     bordercolor="#000000"
     borderopacity="0.25"
     inkscape:showpageshadow="2"
     inkscape:pageopacity="0.0"
     inkscape:pagecheckerboard="0"
     inkscape:deskcolor="#d1d1d1"
     inkscape:zoom="0.70154945"
     inkscape:cx="188.86766"
     inkscape:cy="203.12182"
     inkscape:window-width="1288"
     inkscape:window-height="888"
     inkscape:window-x="0"
     inkscape:window-y="30"
     inkscape:window-maximized="0"
     inkscape:current-layer="Livello_1" />
  <defs
     id="defs1">
    <style
       id="style1">
      .cls-1 {
        fill: #c71617;
      }
    </style>
  </defs>
  <g
     id="g8"
     transform="translate(-1.13)">
    <path
       class="cls-1"
       d="m 34.72,59.46 c 12.15,0 21.87,-8 21.87,-20.44 0,-10.29 -7.58,-20.44 -21.87,-20.44 H 15.86 V 55.03 H 1.13 V 5.29 h 37.16 c 20.01,0 33.02,14.58 33.02,34.02 0,17.01 -11.01,33.45 -33.02,33.45 H 26.28 c -5.72,0 -10.43,4.72 -10.43,10.43 v 19.15 H 1.13 V 84.47 c 0,-13.86 11.15,-25.01 25.01,-25.01 z"
       id="path1" />
    <path
       d="M 108.33,103.48 C 88.46,103.48 76.89,86.9 76.89,72.18 V 59.03 c 0,-14.72 12.43,-31.59 32.3,-31.59 h 5.29 c 19.87,0 32.3,16.87 32.3,31.59 v 13.15 c 0,14.72 -11.58,31.3 -31.44,31.3 h -7 z M 91.61,72.18 c 0,11.86 10,18.01 20.15,18.01 10.15,0 20.3,-6.15 20.3,-18.01 V 59.03 c 0,-12.15 -10.15,-18.15 -20.3,-18.15 -10.86,0 -20.15,6.72 -20.15,18.15 z"
       id="path2" />
    <path
       d="m 200.23,103.34 c -1.57,0.43 -7.58,0.43 -9.29,0.43 -16.44,0 -23.01,-8.43 -23.01,-25.87 V 41.31 h -14.58 v -8.86 c 9.58,0 19.72,-4.29 19.72,-21.15 h 9.58 v 17.58 h 18.15 v 12.43 h -18.15 v 36.3 c 0,9.29 3.57,11.72 11.29,11.72 h 8 l -1.72,14.01 z"
       id="path3" />
    <path
       d="m 322.72,27.44 c 19.58,0 30.87,12.01 30.87,31.59 v 43.31 H 338.87 V 59.03 c 0,-8.15 -6.29,-18.15 -18.72,-18.15 -10,0 -16.44,5.57 -21.87,13.29 -0.43,0.71 -0.86,1.29 -1.29,2 -12.15,18.58 -19.87,47.6 -52.31,47.6 -15.44,0 -36.16,-10.29 -36.16,-31.3 V 59.32 c 0,-14.72 12.43,-31.59 32.3,-31.59 h 2.43 c 8.58,0 16.72,3.43 22.58,9 9.86,9.43 9.72,18.44 9.72,31.16 v 2 h -52.31 c 0,11.01 7.29,20.44 22.73,20.44 22.15,0 31.3,-16.72 40.59,-32.87 V 28.87 h 13.29 l 1.43,7.72 c 1.72,-1.71 3.72,-3.29 6,-4.57 l 0.14,-0.14 c 4.29,-2.57 9.29,-4.15 15.29,-4.43 z m -61.46,29.87 c 0,-10.01 -8.29,-16.44 -17.87,-16.44 -11.58,0 -19.3,8.72 -20.01,16.44 z m 40.02,4.58 v 40.45 H 286.56 V 87.76 Z"
       id="path4" />
    <path
       d="m 407.05,103.34 c -1.57,0.43 -7.58,0.43 -9.29,0.43 -16.44,0 -23.01,-8.43 -23.01,-25.87 V 41.31 h -14.58 v -8.86 c 9.58,0 19.72,-4.29 19.72,-21.15 h 9.58 v 17.58 h 18.15 v 12.43 h -18.15 v 36.3 c 0,9.29 3.57,11.72 11.29,11.72 h 8 l -1.72,14.01 z"
       id="path5" />
    <path
       d="M 431.63,0.14 V 15.29 H 416.77 V 0.14 Z m 0,28.73 v 73.47 H 416.91 V 28.87 Z"
       id="path6" />
    <path
       d="m 490.8,94.62 c -5.29,5.29 -13.15,9.15 -23.58,9.15 -15.01,0 -26.44,-9 -26.44,-22.15 0,-14.86 13.01,-23.01 28.3,-23.01 h 7.29 c 5.15,0 15.72,-2.57 15.72,-9.15 0,-5.57 -7.29,-8.58 -15.15,-8.58 -9,0 -18.58,3.86 -18.58,12.01 h -14.72 c 0,-17.15 16.44,-25.44 32.73,-25.44 15.44,0 30.87,7.58 30.87,22.73 0,15.15 -17.15,19.87 -29.01,19.87 h -9.72 c -5.57,0 -12.86,3.29 -12.86,10 0,7.72 9.43,10.58 15.15,10.58 8.43,0 21.73,-5.72 22.87,-16.15 h 11.58 v 27.87 h -13.01 l -1.43,-7.72 z"
       id="path7" />
    <path
       d="m 516.1,0 h 14.72 V 102.34 H 516.1 Z"
       id="path8" />
  </g>
</svg>
