<?xml version="1.0" encoding="UTF-8"?>
<svg id="Livello_1" data-name="Livello 1" xmlns="http://www.w3.org/2000/svg" viewBox="0 0 531.95 171.63">
  <defs>
    <style>
      .cls-1 {
        fill: #c71617;
      }

      .cls-2 {
        fill: #fff;
      }
    </style>
  </defs>
  <g>
    <path class="cls-1" d="M34.72,59.46c12.15,0,21.87-8,21.87-20.44,0-10.29-7.58-20.44-21.87-20.44H15.86v36.45H1.13V5.29h37.16c20.01,0,33.02,14.58,33.02,34.02,0,17.01-11.01,33.45-33.02,33.45h-12.01c-5.72,0-10.43,4.72-10.43,10.43v19.15H1.13v-17.87c0-13.86,11.15-25.01,25.01-25.01h8.58Z"/>
    <path class="cls-2" d="M108.33,103.48c-19.87,0-31.44-16.58-31.44-31.3v-13.15c0-14.72,12.43-31.59,32.3-31.59h5.29c19.87,0,32.3,16.87,32.3,31.59v13.15c0,14.72-11.58,31.3-31.44,31.3h-7ZM91.61,72.18c0,11.86,10,18.01,20.15,18.01s20.3-6.15,20.3-18.01v-13.15c0-12.15-10.15-18.15-20.3-18.15-10.86,0-20.15,6.72-20.15,18.15v13.15Z"/>
    <path class="cls-2" d="M200.23,103.34c-1.57.43-7.58.43-9.29.43-16.44,0-23.01-8.43-23.01-25.87v-36.59h-14.58v-8.86c9.58,0,19.72-4.29,19.72-21.15h9.58v17.58h18.15v12.43h-18.15v36.3c0,9.29,3.57,11.72,11.29,11.72h8l-1.72,14.01Z"/>
    <path class="cls-2" d="M322.72,27.44c19.58,0,30.87,12.01,30.87,31.59v43.31h-14.72v-43.31c0-8.15-6.29-18.15-18.72-18.15-10,0-16.44,5.57-21.87,13.29-.43.71-.86,1.29-1.29,2-12.15,18.58-19.87,47.6-52.31,47.6-15.44,0-36.16-10.29-36.16-31.3v-13.15c0-14.72,12.43-31.59,32.3-31.59h2.43c8.58,0,16.72,3.43,22.58,9,9.86,9.43,9.72,18.44,9.72,31.16v2h-52.31c0,11.01,7.29,20.44,22.73,20.44,22.15,0,31.3-16.72,40.59-32.87v-28.59h13.29l1.43,7.72c1.72-1.71,3.72-3.29,6-4.57l.14-.14c4.29-2.57,9.29-4.15,15.29-4.43ZM261.26,57.31c0-10.01-8.29-16.44-17.87-16.44-11.58,0-19.3,8.72-20.01,16.44h37.88ZM301.28,61.89v40.45h-14.72v-14.58l14.72-25.87Z"/>
    <path class="cls-2" d="M407.05,103.34c-1.57.43-7.58.43-9.29.43-16.44,0-23.01-8.43-23.01-25.87v-36.59h-14.58v-8.86c9.58,0,19.72-4.29,19.72-21.15h9.58v17.58h18.15v12.43h-18.15v36.3c0,9.29,3.57,11.72,11.29,11.72h8l-1.72,14.01Z"/>
    <path class="cls-2" d="M431.63.14v15.15h-14.86V.14h14.86ZM431.63,28.87v73.47h-14.72V28.87h14.72Z"/>
    <path class="cls-2" d="M490.8,94.62c-5.29,5.29-13.15,9.15-23.58,9.15-15.01,0-26.44-9-26.44-22.15,0-14.86,13.01-23.01,28.3-23.01h7.29c5.15,0,15.72-2.57,15.72-9.15,0-5.57-7.29-8.58-15.15-8.58-9,0-18.58,3.86-18.58,12.01h-14.72c0-17.15,16.44-25.44,32.73-25.44,15.44,0,30.87,7.58,30.87,22.73s-17.15,19.87-29.01,19.87h-9.72c-5.57,0-12.86,3.29-12.86,10,0,7.72,9.43,10.58,15.15,10.58,8.43,0,21.73-5.72,22.87-16.15h11.58v27.87h-13.01l-1.43-7.72Z"/>
    <path class="cls-2" d="M516.1,0h14.72v102.34h-14.72V0Z"/>
  </g>
  <g>
    <path class="cls-2" d="M0,160.25v-37.34h21.78v5.11H5.66v9.68h14.46v5.11H5.66v12.37h16.11v5.11H2.8v-.06H0Z"/>
    <path class="cls-2" d="M29.75,131.98l7.81,21.61,7.75-21.61h5.72l-10.78,28.27h-5.44l-10.78-28.27h5.72Z"/>
    <path class="cls-2" d="M57.09,147.66v.99c0,3.13,2.47,6.93,7.26,6.93,3.52,0,6.98-1.54,6.98-4.56h5.61c0,5-5.22,9.68-11.82,9.68h-1.59c-7.64,0-12.1-6.38-12.1-12.04v-5.06c0-5.66,4.78-12.15,12.43-12.15h.93c3.3,0,6.43,1.32,8.69,3.46,3.79,3.63,3.74,7.09,3.74,11.99v.77h-20.13ZM71.72,142.93c0-3.85-3.3-6.32-6.98-6.32-4.45,0-7.26,3.35-7.59,6.32h14.57Z"/>
    <path class="cls-2" d="M96.69,138.86c-1.21-1.54-2.86-2.25-4.34-2.25-2.69,0-5.22,2.2-5.22,5.94v17.71h-5.66v-28.27h5.11l.55,3.08v.05c2.03-2.09,4.95-3.63,7.92-3.68,2.31,0,4.51.99,5.72,3.19l-4.07,4.23Z"/>
    <path class="cls-2" d="M108.51,131.98v15.29c0,3.13,2.42,6.98,7.2,6.98,4.29,0,7.26-3.85,7.26-6.98v-15.29h5.66v29.42c0,5.22-3.96,10.23-11.6,10.23s-11.6-4.73-11.82-9.84h5.55c.22,3.13,3.24,4.67,6.27,4.67s5.94-1.65,5.94-5.11v-5.5c-2.03,2.2-4.84,3.57-8.08,3.57-7.64,0-12.04-6.49-12.04-12.15v-15.29h5.66Z"/>
    <path class="cls-2" d="M164.01,139.96c0-2.58-2.75-3.35-5.61-3.35s-5.61,1.27-5.61,3.24c0,5.72,17.43,1.38,17.43,12.15,0,5.66-5.94,8.8-11.88,8.8s-11.77-3.13-11.77-9.62h5.61c0,3.08,3.13,4.4,6.21,4.4s6.16-1.27,6.16-3.57c0-5.39-17.43-1.48-17.43-12.04,0-5.33,5.44-8.47,11.05-8.47s11.44,1.76,11.44,8.47h-5.61Z"/>
    <path class="cls-2" d="M200.19,143.59v5.06c0,5.66-4.45,12.15-12.1,12.15-3.19,0-5.99-1.37-8.03-3.52v14.08h-5.66v-39.37h5.11l.55,2.97c2.2-2.14,5.11-3.52,8.03-3.52,7.64,0,12.1,6.49,12.1,12.15ZM194.53,143.59c0-3.13-2.47-6.98-7.26-6.98-4.29,0-7.2,3.52-7.2,6.65v5.39c0,3.13,2.91,6.93,7.2,6.93,4.78,0,7.26-3.79,7.26-6.93v-5.06Z"/>
    <path class="cls-2" d="M227.42,141.66v18.59h-4.95l-.55-2.97v-.05c-2.09,2.03-5.06,3.57-9.07,3.57-5.11,0-10.12-2.91-10.12-8.58,0-4.34,3.63-8.8,10.83-8.8h8.36v-1.71c0-3.46-3.13-5.11-6.27-5.11s-6.05,1.54-6.32,4.67h-5.5c.22-5.11,4.34-9.84,11.82-9.84s11.77,5,11.77,10.23ZM213.29,147.82c-3.19,0-4.89,1.87-4.95,3.79-.06,2.09,1.76,4.23,5.83,4.23,3.57,0,7.75-2.69,7.75-7.42v-.6h-8.63Z"/>
    <path class="cls-2" d="M236.72,148.59c0,4.84,3.85,6.98,7.53,6.98,3.35,0,6.54-1.76,6.54-4.89h5.66c0,6.98-5.61,10.06-11.99,10.06s-13.42-3.74-13.42-12.15v-5c0-8.47,6.82-12.21,13.36-12.21s11.99,3.08,11.99,10.12h-5.66c0-3.08-3.19-4.84-6.49-4.84-3.68,0-7.53,2.09-7.53,6.93v5Z"/>
    <path class="cls-2" d="M265.76,147.66v.99c0,3.13,2.47,6.93,7.26,6.93,3.52,0,6.98-1.54,6.98-4.56h5.61c0,5-5.22,9.68-11.82,9.68h-1.6c-7.64,0-12.1-6.38-12.1-12.04v-5.06c0-5.66,4.78-12.15,12.43-12.15h.94c3.3,0,6.43,1.32,8.69,3.46,3.79,3.63,3.74,7.09,3.74,11.99v.77h-20.13ZM280.38,142.93c0-3.85-3.3-6.32-6.98-6.32-4.46,0-7.26,3.35-7.59,6.32h14.57Z"/>
    <path class="cls-2" d="M293.15,154.42v5.83h-5.66v-5.83h5.66Z"/>
    <path class="cls-2" d="M311.63,160.25v-37.34h12.65c10.39,0,13.69,7.48,13.69,15.34v6.54c0,7.86-3.3,15.45-13.69,15.45h-12.65ZM332.3,138.25c0-5.33-1.32-10.28-8.85-10.28h-6.16v27.06h6.16c7.54,0,8.85-4.89,8.85-10.23v-6.54Z"/>
    <path class="cls-2" d="M347.27,147.66v.99c0,3.13,2.47,6.93,7.26,6.93,3.52,0,6.98-1.54,6.98-4.56h5.61c0,5-5.22,9.68-11.82,9.68h-1.59c-7.64,0-12.1-6.38-12.1-12.04v-5.06c0-5.66,4.78-12.15,12.43-12.15h.93c3.3,0,6.43,1.32,8.69,3.46,3.79,3.63,3.74,7.09,3.74,11.99v.77h-20.13ZM361.89,142.93c0-3.85-3.3-6.32-6.98-6.32-4.45,0-7.26,3.35-7.59,6.32h14.57Z"/>
    <path class="cls-2" d="M371.63,120.88h5.66v39.38h-5.66v-39.38Z"/>
    <path class="cls-2" d="M387.74,120.93v5.83h-5.72v-5.83h5.72ZM387.74,131.98v28.27h-5.66v-28.27h5.66Z"/>
    <path class="cls-2" d="M396.27,131.98l7.81,21.61,7.75-21.61h5.72l-10.78,28.27h-5.44l-10.78-28.27h5.72Z"/>
    <path class="cls-2" d="M423.6,147.66v.99c0,3.13,2.48,6.93,7.26,6.93,3.52,0,6.98-1.54,6.98-4.56h5.61c0,5-5.22,9.68-11.82,9.68h-1.59c-7.64,0-12.1-6.38-12.1-12.04v-5.06c0-5.66,4.79-12.15,12.43-12.15h.93c3.3,0,6.43,1.32,8.69,3.46,3.79,3.63,3.74,7.09,3.74,11.99v.77h-20.13ZM438.23,142.93c0-3.85-3.3-6.32-6.98-6.32-4.45,0-7.26,3.35-7.59,6.32h14.57Z"/>
    <path class="cls-2" d="M463.2,138.86c-1.21-1.54-2.86-2.25-4.34-2.25-2.69,0-5.22,2.2-5.22,5.94v17.71h-5.67v-28.27h5.12l.55,3.08v.05c2.03-2.09,4.95-3.63,7.92-3.68,2.31,0,4.51.99,5.72,3.19l-4.07,4.23Z"/>
    <path class="cls-2" d="M472.77,147.66v.99c0,3.13,2.48,6.93,7.26,6.93,3.52,0,6.98-1.54,6.98-4.56h5.61c0,5-5.22,9.68-11.82,9.68h-1.59c-7.64,0-12.1-6.38-12.1-12.04v-5.06c0-5.66,4.79-12.15,12.43-12.15h.93c3.3,0,6.43,1.32,8.69,3.46,3.79,3.63,3.74,7.09,3.74,11.99v.77h-20.13ZM487.4,142.93c0-3.85-3.3-6.32-6.98-6.32-4.45,0-7.26,3.35-7.59,6.32h14.57Z"/>
    <path class="cls-2" d="M495.76,148.65v-5.06c0-5.66,4.4-12.15,12.04-12.15,3.25,0,6.05,1.38,8.08,3.52v-14.08h5.66v39.38h-5.11l-.55-3.02c-2.2,2.14-5.11,3.57-8.08,3.57-7.64,0-12.04-6.49-12.04-12.15ZM501.43,148.65c0,3.13,2.42,6.93,7.2,6.93,4.29,0,7.26-3.46,7.26-6.6v-5.39c0-3.13-2.97-6.98-7.26-6.98-4.78,0-7.2,3.85-7.2,6.98v5.06Z"/>
    <path class="cls-2" d="M531.95,154.42v5.83h-5.67v-5.83h5.67Z"/>
  </g>
</svg>